<svg xmlns="http://www.w3.org/2000/svg" width="1040" height="654" viewBox="0 0 1040 654" role="img" aria-labelledby="title desc">
<title id="title">Chinese remainder theorem / PyPy 3.11.13 benchmark</title>
<desc id="desc">Median elapsed time versus input size. Bands and whiskers show the observed minimum and maximum. X axis: log. Y axis: log. Lower is faster.</desc>
<rect width="100%" height="100%" rx="12" fill="white"/>
<g font-family="-apple-system, BlinkMacSystemFont, Segoe UI, sans-serif" fill="#0f172a">
<text x="40" y="36" font-size="23" font-weight="700">Chinese remainder theorem / PyPy 3.11.13</text>
<text x="40" y="61" font-size="13" fill="#64748b">Lower is faster · median line · observed min–max range</text>
<text x="40" y="81" font-size="11" fill="#475569">参考用：C++単体の実行時間（Pythonとの値変換・プロセス起動・入出力を除外）。</text>
<line x1="124.17" y1="94" x2="124.17" y2="406" stroke="#e2e8f0"/>
<text x="124.17" y="431" font-size="12" text-anchor="middle" fill="#475569">100</text>
<line x1="191.37" y1="94" x2="191.37" y2="406" stroke="#e2e8f0"/>
<text x="191.37" y="431" font-size="12" text-anchor="middle" fill="#475569">200</text>
<line x1="280.21" y1="94" x2="280.21" y2="406" stroke="#e2e8f0"/>
<text x="280.21" y="431" font-size="12" text-anchor="middle" fill="#475569">500</text>
<line x1="347.40" y1="94" x2="347.40" y2="406" stroke="#e2e8f0"/>
<text x="347.40" y="431" font-size="12" text-anchor="middle" fill="#475569">1,000</text>
<line x1="414.60" y1="94" x2="414.60" y2="406" stroke="#e2e8f0"/>
<text x="414.60" y="431" font-size="12" text-anchor="middle" fill="#475569">2,000</text>
<line x1="503.43" y1="94" x2="503.43" y2="406" stroke="#e2e8f0"/>
<text x="503.43" y="431" font-size="12" text-anchor="middle" fill="#475569">5,000</text>
<line x1="570.63" y1="94" x2="570.63" y2="406" stroke="#e2e8f0"/>
<text x="570.63" y="431" font-size="12" text-anchor="middle" fill="#475569">10,000</text>
<line x1="637.83" y1="94" x2="637.83" y2="406" stroke="#e2e8f0"/>
<text x="637.83" y="431" font-size="12" text-anchor="middle" fill="#475569">20,000</text>
<line x1="726.66" y1="94" x2="726.66" y2="406" stroke="#e2e8f0"/>
<text x="726.66" y="431" font-size="12" text-anchor="middle" fill="#475569">50,000</text>
<line x1="793.86" y1="94" x2="793.86" y2="406" stroke="#e2e8f0"/>
<text x="793.86" y="431" font-size="12" text-anchor="middle" fill="#475569">100,000</text>
<line x1="861.06" y1="94" x2="861.06" y2="406" stroke="#e2e8f0"/>
<text x="861.06" y="431" font-size="12" text-anchor="middle" fill="#475569">200,000</text>
<line x1="949.89" y1="94" x2="949.89" y2="406" stroke="#e2e8f0"/>
<text x="949.89" y="431" font-size="12" text-anchor="middle" fill="#475569">500,000</text>
<line x1="100" y1="376.58" x2="998" y2="376.58" stroke="#e2e8f0"/>
<text x="87" y="380.58" font-size="12" text-anchor="end" fill="#475569">1e-05</text>
<line x1="100" y1="328.97" x2="998" y2="328.97" stroke="#e2e8f0"/>
<text x="87" y="332.97" font-size="12" text-anchor="end" fill="#475569">0.0001</text>
<line x1="100" y1="281.36" x2="998" y2="281.36" stroke="#e2e8f0"/>
<text x="87" y="285.36" font-size="12" text-anchor="end" fill="#475569">0.001</text>
<line x1="100" y1="233.75" x2="998" y2="233.75" stroke="#e2e8f0"/>
<text x="87" y="237.75" font-size="12" text-anchor="end" fill="#475569">0.01</text>
<line x1="100" y1="186.15" x2="998" y2="186.15" stroke="#e2e8f0"/>
<text x="87" y="190.15" font-size="12" text-anchor="end" fill="#475569">0.1</text>
<line x1="100" y1="138.54" x2="998" y2="138.54" stroke="#e2e8f0"/>
<text x="87" y="142.54" font-size="12" text-anchor="end" fill="#475569">1</text>
<path d="M100 94 V406 H998" fill="none" stroke="#94a3b8"/>
<text x="549" y="461" font-size="14" text-anchor="middle">Input size n (log scale)</text>
<text transform="translate(25 250) rotate(-90)" font-size="14" text-anchor="middle">Elapsed time [s] (log scale)</text>
<polygon points="148.11,364.32 282.50,337.28 416.90,309.20 551.30,277.95 685.70,244.55 820.09,216.43 949.89,185.50 949.89,189.15 820.09,216.85 685.70,246.42 551.30,278.21 416.90,310.43 282.50,341.51 148.11,370.66" fill="#2563eb" fill-opacity="0.09"/>
<path d="M148.11,364.32 V370.66 M145.11,364.32 H151.11 M145.11,370.66 H151.11" stroke="#2563eb" stroke-opacity="0.5" fill="none"/>
<path d="M282.50,337.28 V341.51 M279.50,337.28 H285.50 M279.50,341.51 H285.50" stroke="#2563eb" stroke-opacity="0.5" fill="none"/>
<path d="M416.90,309.20 V310.43 M413.90,309.20 H419.90 M413.90,310.43 H419.90" stroke="#2563eb" stroke-opacity="0.5" fill="none"/>
<path d="M551.30,277.95 V278.21 M548.30,277.95 H554.30 M548.30,278.21 H554.30" stroke="#2563eb" stroke-opacity="0.5" fill="none"/>
<path d="M685.70,244.55 V246.42 M682.70,244.55 H688.70 M682.70,246.42 H688.70" stroke="#2563eb" stroke-opacity="0.5" fill="none"/>
<path d="M820.09,216.43 V216.85 M817.09,216.43 H823.09 M817.09,216.85 H823.09" stroke="#2563eb" stroke-opacity="0.5" fill="none"/>
<path d="M949.89,185.50 V189.15 M946.89,185.50 H952.89 M946.89,189.15 H952.89" stroke="#2563eb" stroke-opacity="0.5" fill="none"/>
<polyline points="148.11,370.56 282.50,339.31 416.90,309.86 551.30,278.11 685.70,246.04 820.09,216.62 949.89,189.03" fill="none" stroke="#2563eb" stroke-width="2.5"/>
<circle cx="148.11" cy="370.56" r="3.8" fill="white" stroke="#2563eb" stroke-width="2"/>
<circle cx="282.50" cy="339.31" r="3.8" fill="white" stroke="#2563eb" stroke-width="2"/>
<circle cx="416.90" cy="309.86" r="3.8" fill="white" stroke="#2563eb" stroke-width="2"/>
<circle cx="551.30" cy="278.11" r="3.8" fill="white" stroke="#2563eb" stroke-width="2"/>
<circle cx="685.70" cy="246.04" r="3.8" fill="white" stroke="#2563eb" stroke-width="2"/>
<circle cx="820.09" cy="216.62" r="3.8" fill="white" stroke="#2563eb" stroke-width="2"/>
<circle cx="949.89" cy="189.03" r="3.8" fill="white" stroke="#2563eb" stroke-width="2"/>
<polygon points="148.11,359.18 282.50,334.51 416.90,309.22 551.30,278.82 685.70,240.70 820.09,214.69 949.89,186.08 949.89,186.48 820.09,215.99 685.70,241.13 551.30,279.15 416.90,311.61 282.50,342.57 148.11,371.16" fill="#dc2626" fill-opacity="0.09"/>
<path d="M148.11,359.18 V371.16 M145.11,359.18 H151.11 M145.11,371.16 H151.11" stroke="#dc2626" stroke-opacity="0.5" fill="none"/>
<path d="M282.50,334.51 V342.57 M279.50,334.51 H285.50 M279.50,342.57 H285.50" stroke="#dc2626" stroke-opacity="0.5" fill="none"/>
<path d="M416.90,309.22 V311.61 M413.90,309.22 H419.90 M413.90,311.61 H419.90" stroke="#dc2626" stroke-opacity="0.5" fill="none"/>
<path d="M551.30,278.82 V279.15 M548.30,278.82 H554.30 M548.30,279.15 H554.30" stroke="#dc2626" stroke-opacity="0.5" fill="none"/>
<path d="M685.70,240.70 V241.13 M682.70,240.70 H688.70 M682.70,241.13 H688.70" stroke="#dc2626" stroke-opacity="0.5" fill="none"/>
<path d="M820.09,214.69 V215.99 M817.09,214.69 H823.09 M817.09,215.99 H823.09" stroke="#dc2626" stroke-opacity="0.5" fill="none"/>
<path d="M949.89,186.08 V186.48 M946.89,186.08 H952.89 M946.89,186.48 H952.89" stroke="#dc2626" stroke-opacity="0.5" fill="none"/>
<polyline points="148.11,370.95 282.50,340.35 416.90,311.06 551.30,279.05 685.70,240.86 820.09,215.54 949.89,186.30" fill="none" stroke="#dc2626" stroke-width="2.5"/>
<circle cx="148.11" cy="370.95" r="3.8" fill="white" stroke="#dc2626" stroke-width="2"/>
<circle cx="282.50" cy="340.35" r="3.8" fill="white" stroke="#dc2626" stroke-width="2"/>
<circle cx="416.90" cy="311.06" r="3.8" fill="white" stroke="#dc2626" stroke-width="2"/>
<circle cx="551.30" cy="279.05" r="3.8" fill="white" stroke="#dc2626" stroke-width="2"/>
<circle cx="685.70" cy="240.86" r="3.8" fill="white" stroke="#dc2626" stroke-width="2"/>
<circle cx="820.09" cy="215.54" r="3.8" fill="white" stroke="#dc2626" stroke-width="2"/>
<circle cx="949.89" cy="186.30" r="3.8" fill="white" stroke="#dc2626" stroke-width="2"/>
<polygon points="148.11,353.65 282.50,326.72 416.90,292.58 551.30,261.26 685.70,229.93 820.09,209.49 949.89,181.49 949.89,181.67 820.09,210.01 685.70,232.89 551.30,264.80 416.90,296.36 282.50,327.54 148.11,359.62" fill="#059669" fill-opacity="0.09"/>
<path d="M148.11,353.65 V359.62 M145.11,353.65 H151.11 M145.11,359.62 H151.11" stroke="#059669" stroke-opacity="0.5" fill="none"/>
<path d="M282.50,326.72 V327.54 M279.50,326.72 H285.50 M279.50,327.54 H285.50" stroke="#059669" stroke-opacity="0.5" fill="none"/>
<path d="M416.90,292.58 V296.36 M413.90,292.58 H419.90 M413.90,296.36 H419.90" stroke="#059669" stroke-opacity="0.5" fill="none"/>
<path d="M551.30,261.26 V264.80 M548.30,261.26 H554.30 M548.30,264.80 H554.30" stroke="#059669" stroke-opacity="0.5" fill="none"/>
<path d="M685.70,229.93 V232.89 M682.70,229.93 H688.70 M682.70,232.89 H688.70" stroke="#059669" stroke-opacity="0.5" fill="none"/>
<path d="M820.09,209.49 V210.01 M817.09,209.49 H823.09 M817.09,210.01 H823.09" stroke="#059669" stroke-opacity="0.5" fill="none"/>
<path d="M949.89,181.49 V181.67 M946.89,181.49 H952.89 M946.89,181.67 H952.89" stroke="#059669" stroke-opacity="0.5" fill="none"/>
<polyline points="148.11,358.28 282.50,327.42 416.90,295.52 551.30,262.92 685.70,232.18 820.09,209.70 949.89,181.56" fill="none" stroke="#059669" stroke-width="2.5"/>
<circle cx="148.11" cy="358.28" r="3.8" fill="white" stroke="#059669" stroke-width="2"/>
<circle cx="282.50" cy="327.42" r="3.8" fill="white" stroke="#059669" stroke-width="2"/>
<circle cx="416.90" cy="295.52" r="3.8" fill="white" stroke="#059669" stroke-width="2"/>
<circle cx="551.30" cy="262.92" r="3.8" fill="white" stroke="#059669" stroke-width="2"/>
<circle cx="685.70" cy="232.18" r="3.8" fill="white" stroke="#059669" stroke-width="2"/>
<circle cx="820.09" cy="209.70" r="3.8" fill="white" stroke="#059669" stroke-width="2"/>
<circle cx="949.89" cy="181.56" r="3.8" fill="white" stroke="#059669" stroke-width="2"/>
<polygon points="148.11,324.85 282.50,296.84 416.90,269.51 551.30,240.35 685.70,212.32 820.09,184.84 949.89,157.09 949.89,157.72 820.09,185.69 685.70,213.98 551.30,242.13 416.90,269.94 282.50,300.01 148.11,327.56" fill="#9333ea" fill-opacity="0.09"/>
<path d="M148.11,324.85 V327.56 M145.11,324.85 H151.11 M145.11,327.56 H151.11" stroke="#9333ea" stroke-opacity="0.5" fill="none"/>
<path d="M282.50,296.84 V300.01 M279.50,296.84 H285.50 M279.50,300.01 H285.50" stroke="#9333ea" stroke-opacity="0.5" fill="none"/>
<path d="M416.90,269.51 V269.94 M413.90,269.51 H419.90 M413.90,269.94 H419.90" stroke="#9333ea" stroke-opacity="0.5" fill="none"/>
<path d="M551.30,240.35 V242.13 M548.30,240.35 H554.30 M548.30,242.13 H554.30" stroke="#9333ea" stroke-opacity="0.5" fill="none"/>
<path d="M685.70,212.32 V213.98 M682.70,212.32 H688.70 M682.70,213.98 H688.70" stroke="#9333ea" stroke-opacity="0.5" fill="none"/>
<path d="M820.09,184.84 V185.69 M817.09,184.84 H823.09 M817.09,185.69 H823.09" stroke="#9333ea" stroke-opacity="0.5" fill="none"/>
<path d="M949.89,157.09 V157.72 M946.89,157.09 H952.89 M946.89,157.72 H952.89" stroke="#9333ea" stroke-opacity="0.5" fill="none"/>
<polyline points="148.11,326.76 282.50,298.92 416.90,269.79 551.30,241.03 685.70,213.13 820.09,185.44 949.89,157.53" fill="none" stroke="#9333ea" stroke-width="2.5"/>
<circle cx="148.11" cy="326.76" r="3.8" fill="white" stroke="#9333ea" stroke-width="2"/>
<circle cx="282.50" cy="298.92" r="3.8" fill="white" stroke="#9333ea" stroke-width="2"/>
<circle cx="416.90" cy="269.79" r="3.8" fill="white" stroke="#9333ea" stroke-width="2"/>
<circle cx="551.30" cy="241.03" r="3.8" fill="white" stroke="#9333ea" stroke-width="2"/>
<circle cx="685.70" cy="213.13" r="3.8" fill="white" stroke="#9333ea" stroke-width="2"/>
<circle cx="820.09" cy="185.44" r="3.8" fill="white" stroke="#9333ea" stroke-width="2"/>
<circle cx="949.89" cy="157.53" r="3.8" fill="white" stroke="#9333ea" stroke-width="2"/>
<polygon points="148.11,358.48 282.50,330.25 416.90,298.25 551.30,269.14 685.70,240.55 820.09,204.45 949.89,174.25 949.89,181.42 820.09,207.69 685.70,240.71 551.30,269.63 416.90,298.58 282.50,330.62 148.11,362.63" fill="#d97706" fill-opacity="0.09"/>
<path d="M148.11,358.48 V362.63 M145.11,358.48 H151.11 M145.11,362.63 H151.11" stroke="#d97706" stroke-opacity="0.5" fill="none"/>
<path d="M282.50,330.25 V330.62 M279.50,330.25 H285.50 M279.50,330.62 H285.50" stroke="#d97706" stroke-opacity="0.5" fill="none"/>
<path d="M416.90,298.25 V298.58 M413.90,298.25 H419.90 M413.90,298.58 H419.90" stroke="#d97706" stroke-opacity="0.5" fill="none"/>
<path d="M551.30,269.14 V269.63 M548.30,269.14 H554.30 M548.30,269.63 H554.30" stroke="#d97706" stroke-opacity="0.5" fill="none"/>
<path d="M685.70,240.55 V240.71 M682.70,240.55 H688.70 M682.70,240.71 H688.70" stroke="#d97706" stroke-opacity="0.5" fill="none"/>
<path d="M820.09,204.45 V207.69 M817.09,204.45 H823.09 M817.09,207.69 H823.09" stroke="#d97706" stroke-opacity="0.5" fill="none"/>
<path d="M949.89,174.25 V181.42 M946.89,174.25 H952.89 M946.89,181.42 H952.89" stroke="#d97706" stroke-opacity="0.5" fill="none"/>
<polyline points="148.11,362.54 282.50,330.34 416.90,298.53 551.30,269.34 685.70,240.62 820.09,205.61 949.89,175.70" fill="none" stroke="#d97706" stroke-width="2.5"/>
<circle cx="148.11" cy="362.54" r="3.8" fill="white" stroke="#d97706" stroke-width="2"/>
<circle cx="282.50" cy="330.34" r="3.8" fill="white" stroke="#d97706" stroke-width="2"/>
<circle cx="416.90" cy="298.53" r="3.8" fill="white" stroke="#d97706" stroke-width="2"/>
<circle cx="551.30" cy="269.34" r="3.8" fill="white" stroke="#d97706" stroke-width="2"/>
<circle cx="685.70" cy="240.62" r="3.8" fill="white" stroke="#d97706" stroke-width="2"/>
<circle cx="820.09" cy="205.61" r="3.8" fill="white" stroke="#d97706" stroke-width="2"/>
<circle cx="949.89" cy="175.70" r="3.8" fill="white" stroke="#d97706" stroke-width="2"/>
<polygon points="148.11,345.04 282.50,323.75 416.90,283.41 551.30,256.63 685.70,228.69 820.09,201.88 949.89,174.33 949.89,180.94 820.09,211.10 685.70,240.27 551.30,268.54 416.90,293.16 282.50,328.17 148.11,356.03" fill="#0891b2" fill-opacity="0.09"/>
<path d="M148.11,345.04 V356.03 M145.11,345.04 H151.11 M145.11,356.03 H151.11" stroke="#0891b2" stroke-opacity="0.5" fill="none"/>
<path d="M282.50,323.75 V328.17 M279.50,323.75 H285.50 M279.50,328.17 H285.50" stroke="#0891b2" stroke-opacity="0.5" fill="none"/>
<path d="M416.90,283.41 V293.16 M413.90,283.41 H419.90 M413.90,293.16 H419.90" stroke="#0891b2" stroke-opacity="0.5" fill="none"/>
<path d="M551.30,256.63 V268.54 M548.30,256.63 H554.30 M548.30,268.54 H554.30" stroke="#0891b2" stroke-opacity="0.5" fill="none"/>
<path d="M685.70,228.69 V240.27 M682.70,228.69 H688.70 M682.70,240.27 H688.70" stroke="#0891b2" stroke-opacity="0.5" fill="none"/>
<path d="M820.09,201.88 V211.10 M817.09,201.88 H823.09 M817.09,211.10 H823.09" stroke="#0891b2" stroke-opacity="0.5" fill="none"/>
<path d="M949.89,174.33 V180.94 M946.89,174.33 H952.89 M946.89,180.94 H952.89" stroke="#0891b2" stroke-opacity="0.5" fill="none"/>
<polyline points="148.11,350.43 282.50,327.68 416.90,292.49 551.30,262.81 685.70,233.31 820.09,204.62 949.89,176.48" fill="none" stroke="#0891b2" stroke-width="2.5"/>
<circle cx="148.11" cy="350.43" r="3.8" fill="white" stroke="#0891b2" stroke-width="2"/>
<circle cx="282.50" cy="327.68" r="3.8" fill="white" stroke="#0891b2" stroke-width="2"/>
<circle cx="416.90" cy="292.49" r="3.8" fill="white" stroke="#0891b2" stroke-width="2"/>
<circle cx="551.30" cy="262.81" r="3.8" fill="white" stroke="#0891b2" stroke-width="2"/>
<circle cx="685.70" cy="233.31" r="3.8" fill="white" stroke="#0891b2" stroke-width="2"/>
<circle cx="820.09" cy="204.62" r="3.8" fill="white" stroke="#0891b2" stroke-width="2"/>
<circle cx="949.89" cy="176.48" r="3.8" fill="white" stroke="#0891b2" stroke-width="2"/>
<polygon points="148.11,294.72 282.50,266.91 416.90,228.41 551.30,201.39 685.70,170.49 820.09,138.38 949.89,110.71 949.89,111.23 820.09,140.38 685.70,175.53 551.30,208.78 416.90,238.93 282.50,275.56 148.11,302.18" fill="#db2777" fill-opacity="0.09"/>
<path d="M148.11,294.72 V302.18 M145.11,294.72 H151.11 M145.11,302.18 H151.11" stroke="#db2777" stroke-opacity="0.5" fill="none"/>
<path d="M282.50,266.91 V275.56 M279.50,266.91 H285.50 M279.50,275.56 H285.50" stroke="#db2777" stroke-opacity="0.5" fill="none"/>
<path d="M416.90,228.41 V238.93 M413.90,228.41 H419.90 M413.90,238.93 H419.90" stroke="#db2777" stroke-opacity="0.5" fill="none"/>
<path d="M551.30,201.39 V208.78 M548.30,201.39 H554.30 M548.30,208.78 H554.30" stroke="#db2777" stroke-opacity="0.5" fill="none"/>
<path d="M685.70,170.49 V175.53 M682.70,170.49 H688.70 M682.70,175.53 H688.70" stroke="#db2777" stroke-opacity="0.5" fill="none"/>
<path d="M820.09,138.38 V140.38 M817.09,138.38 H823.09 M817.09,140.38 H823.09" stroke="#db2777" stroke-opacity="0.5" fill="none"/>
<path d="M949.89,110.71 V111.23 M946.89,110.71 H952.89 M946.89,111.23 H952.89" stroke="#db2777" stroke-opacity="0.5" fill="none"/>
<polyline points="148.11,296.91 282.50,271.37 416.90,234.71 551.30,206.57 685.70,173.62 820.09,139.54 949.89,110.99" fill="none" stroke="#db2777" stroke-width="2.5"/>
<circle cx="148.11" cy="296.91" r="3.8" fill="white" stroke="#db2777" stroke-width="2"/>
<circle cx="282.50" cy="271.37" r="3.8" fill="white" stroke="#db2777" stroke-width="2"/>
<circle cx="416.90" cy="234.71" r="3.8" fill="white" stroke="#db2777" stroke-width="2"/>
<circle cx="551.30" cy="206.57" r="3.8" fill="white" stroke="#db2777" stroke-width="2"/>
<circle cx="685.70" cy="173.62" r="3.8" fill="white" stroke="#db2777" stroke-width="2"/>
<circle cx="820.09" cy="139.54" r="3.8" fill="white" stroke="#db2777" stroke-width="2"/>
<circle cx="949.89" cy="110.99" r="3.8" fill="white" stroke="#db2777" stroke-width="2"/>
<polygon points="148.11,389.20 282.50,360.39 416.90,331.55 551.30,301.75 685.70,268.35 820.09,239.22 949.89,211.21 949.89,212.31 820.09,239.98 685.70,268.83 551.30,303.29 416.90,331.88 282.50,360.58 148.11,389.29" fill="#475569" fill-opacity="0.09"/>
<path d="M148.11,389.20 V389.29 M145.11,389.20 H151.11 M145.11,389.29 H151.11" stroke="#475569" stroke-opacity="0.5" fill="none"/>
<path d="M282.50,360.39 V360.58 M279.50,360.39 H285.50 M279.50,360.58 H285.50" stroke="#475569" stroke-opacity="0.5" fill="none"/>
<path d="M416.90,331.55 V331.88 M413.90,331.55 H419.90 M413.90,331.88 H419.90" stroke="#475569" stroke-opacity="0.5" fill="none"/>
<path d="M551.30,301.75 V303.29 M548.30,301.75 H554.30 M548.30,303.29 H554.30" stroke="#475569" stroke-opacity="0.5" fill="none"/>
<path d="M685.70,268.35 V268.83 M682.70,268.35 H688.70 M682.70,268.83 H688.70" stroke="#475569" stroke-opacity="0.5" fill="none"/>
<path d="M820.09,239.22 V239.98 M817.09,239.22 H823.09 M817.09,239.98 H823.09" stroke="#475569" stroke-opacity="0.5" fill="none"/>
<path d="M949.89,211.21 V212.31 M946.89,211.21 H952.89 M946.89,212.31 H952.89" stroke="#475569" stroke-opacity="0.5" fill="none"/>
<polyline points="148.11,389.28 282.50,360.56 416.90,331.86 551.30,303.15 685.70,268.69 820.09,239.70 949.89,211.76" fill="none" stroke="#475569" stroke-width="2.5" stroke-dasharray="7 5"/>
<rect x="144.31" y="385.48" width="7.6" height="7.6" fill="white" stroke="#475569" stroke-width="2"/>
<rect x="278.70" y="356.76" width="7.6" height="7.6" fill="white" stroke="#475569" stroke-width="2"/>
<rect x="413.10" y="328.06" width="7.6" height="7.6" fill="white" stroke="#475569" stroke-width="2"/>
<rect x="547.50" y="299.35" width="7.6" height="7.6" fill="white" stroke="#475569" stroke-width="2"/>
<rect x="681.90" y="264.89" width="7.6" height="7.6" fill="white" stroke="#475569" stroke-width="2"/>
<rect x="816.29" y="235.90" width="7.6" height="7.6" fill="white" stroke="#475569" stroke-width="2"/>
<rect x="946.09" y="207.96" width="7.6" height="7.6" fill="white" stroke="#475569" stroke-width="2"/>
<line x1="42" y1="489" x2="73" y2="489" stroke="#2563eb" stroke-width="2.5"/>
<circle cx="57.00" cy="489.00" r="3.8" fill="white" stroke="#2563eb" stroke-width="2"/>
<text x="83" y="493" font-size="12">local/acl-cffi (CFFI + C++) / PyPy 3.11.13</text>
<line x1="552" y1="489" x2="583" y2="489" stroke="#dc2626" stroke-width="2.5"/>
<circle cx="567.00" cy="489.00" r="3.8" fill="white" stroke="#dc2626" stroke-width="2"/>
<text x="593" y="493" font-size="12">local/acl-cffi (batched CRT) / PyPy 3.11.13</text>
<line x1="42" y1="523" x2="73" y2="523" stroke="#059669" stroke-width="2.5"/>
<circle cx="57.00" cy="523.00" r="3.8" fill="white" stroke="#059669" stroke-width="2"/>
<text x="83" y="527" font-size="12">lif4635/harurun-s-library (library_codex) / PyPy</text>
<text x="83" y="545" font-size="12">3.11.13</text>
<line x1="552" y1="523" x2="583" y2="523" stroke="#9333ea" stroke-width="2.5"/>
<circle cx="567.00" cy="523.00" r="3.8" fill="white" stroke="#9333ea" stroke-width="2"/>
<text x="593" y="527" font-size="12">local/acl-hpy (HPy Universal + C++) / PyPy 3.11.13</text>
<line x1="42" y1="575" x2="73" y2="575" stroke="#d97706" stroke-width="2.5"/>
<circle cx="57.00" cy="575.00" r="3.8" fill="white" stroke="#d97706" stroke-width="2"/>
<text x="83" y="579" font-size="12">not522/ac-library-python / PyPy 3.11.13</text>
<line x1="552" y1="575" x2="583" y2="575" stroke="#0891b2" stroke-width="2.5"/>
<circle cx="567.00" cy="575.00" r="3.8" fill="white" stroke="#0891b2" stroke-width="2"/>
<text x="593" y="579" font-size="12">shakayami/ACL-for-python / PyPy 3.11.13</text>
<line x1="42" y1="609" x2="73" y2="609" stroke="#db2777" stroke-width="2.5"/>
<circle cx="57.00" cy="609.00" r="3.8" fill="white" stroke="#db2777" stroke-width="2"/>
<text x="83" y="613" font-size="12">tatyam-prime/acl-cpp-python (C++) / PyPy 3.11.13</text>
<line x1="552" y1="609" x2="583" y2="609" stroke="#475569" stroke-width="2.5" stroke-dasharray="7 5"/>
<rect x="563.20" y="605.20" width="7.6" height="7.6" fill="white" stroke="#475569" stroke-width="2"/>
<text x="593" y="613" font-size="12">C++ ACL（参考用） / C++ 17</text>
</g></svg>
