<svg xmlns="http://www.w3.org/2000/svg" width="1040" height="602" viewBox="0 0 1040 602" role="img" aria-labelledby="title desc">
<title id="title">2-SAT / CPython 3.11.16 benchmark</title>
<desc id="desc">Median elapsed time versus input size. Bands and whiskers show the observed minimum and maximum. X axis: log. Y axis: log. Lower is faster.</desc>
<rect width="100%" height="100%" rx="12" fill="white"/>
<g font-family="-apple-system, BlinkMacSystemFont, Segoe UI, sans-serif" fill="#0f172a">
<text x="40" y="36" font-size="23" font-weight="700">2-SAT / CPython 3.11.16</text>
<text x="40" y="61" font-size="13" fill="#64748b">Lower is faster · median line · observed min–max range</text>
<line x1="124.17" y1="94" x2="124.17" y2="406" stroke="#e2e8f0"/>
<text x="124.17" y="431" font-size="12" text-anchor="middle" fill="#475569">100</text>
<line x1="191.37" y1="94" x2="191.37" y2="406" stroke="#e2e8f0"/>
<text x="191.37" y="431" font-size="12" text-anchor="middle" fill="#475569">200</text>
<line x1="280.21" y1="94" x2="280.21" y2="406" stroke="#e2e8f0"/>
<text x="280.21" y="431" font-size="12" text-anchor="middle" fill="#475569">500</text>
<line x1="347.40" y1="94" x2="347.40" y2="406" stroke="#e2e8f0"/>
<text x="347.40" y="431" font-size="12" text-anchor="middle" fill="#475569">1,000</text>
<line x1="414.60" y1="94" x2="414.60" y2="406" stroke="#e2e8f0"/>
<text x="414.60" y="431" font-size="12" text-anchor="middle" fill="#475569">2,000</text>
<line x1="503.43" y1="94" x2="503.43" y2="406" stroke="#e2e8f0"/>
<text x="503.43" y="431" font-size="12" text-anchor="middle" fill="#475569">5,000</text>
<line x1="570.63" y1="94" x2="570.63" y2="406" stroke="#e2e8f0"/>
<text x="570.63" y="431" font-size="12" text-anchor="middle" fill="#475569">10,000</text>
<line x1="637.83" y1="94" x2="637.83" y2="406" stroke="#e2e8f0"/>
<text x="637.83" y="431" font-size="12" text-anchor="middle" fill="#475569">20,000</text>
<line x1="726.66" y1="94" x2="726.66" y2="406" stroke="#e2e8f0"/>
<text x="726.66" y="431" font-size="12" text-anchor="middle" fill="#475569">50,000</text>
<line x1="793.86" y1="94" x2="793.86" y2="406" stroke="#e2e8f0"/>
<text x="793.86" y="431" font-size="12" text-anchor="middle" fill="#475569">100,000</text>
<line x1="861.06" y1="94" x2="861.06" y2="406" stroke="#e2e8f0"/>
<text x="861.06" y="431" font-size="12" text-anchor="middle" fill="#475569">200,000</text>
<line x1="949.89" y1="94" x2="949.89" y2="406" stroke="#e2e8f0"/>
<text x="949.89" y="431" font-size="12" text-anchor="middle" fill="#475569">500,000</text>
<line x1="100" y1="382.53" x2="998" y2="382.53" stroke="#e2e8f0"/>
<text x="87" y="386.53" font-size="12" text-anchor="end" fill="#475569">0.0001</text>
<line x1="100" y1="325.13" x2="998" y2="325.13" stroke="#e2e8f0"/>
<text x="87" y="329.13" font-size="12" text-anchor="end" fill="#475569">0.001</text>
<line x1="100" y1="267.74" x2="998" y2="267.74" stroke="#e2e8f0"/>
<text x="87" y="271.74" font-size="12" text-anchor="end" fill="#475569">0.01</text>
<line x1="100" y1="210.35" x2="998" y2="210.35" stroke="#e2e8f0"/>
<text x="87" y="214.35" font-size="12" text-anchor="end" fill="#475569">0.1</text>
<line x1="100" y1="152.96" x2="998" y2="152.96" stroke="#e2e8f0"/>
<text x="87" y="156.96" font-size="12" text-anchor="end" fill="#475569">1</text>
<line x1="100" y1="95.57" x2="998" y2="95.57" stroke="#e2e8f0"/>
<text x="87" y="99.57" font-size="12" text-anchor="end" fill="#475569">10</text>
<path d="M100 94 V406 H998" fill="none" stroke="#94a3b8"/>
<text x="549" y="461" font-size="14" text-anchor="middle">Input size n (log scale)</text>
<text transform="translate(25 250) rotate(-90)" font-size="14" text-anchor="middle">Elapsed time [s] (log scale)</text>
<polygon points="148.11,364.87 282.50,330.17 416.90,296.10 551.30,261.20 685.70,225.65 820.09,190.41 949.89,156.94 949.89,157.31 820.09,190.83 685.70,226.00 551.30,261.36 416.90,296.25 282.50,330.86 148.11,365.02" fill="#2563eb" fill-opacity="0.09"/>
<path d="M148.11,364.87 V365.02 M145.11,364.87 H151.11 M145.11,365.02 H151.11" stroke="#2563eb" stroke-opacity="0.5" fill="none"/>
<path d="M282.50,330.17 V330.86 M279.50,330.17 H285.50 M279.50,330.86 H285.50" stroke="#2563eb" stroke-opacity="0.5" fill="none"/>
<path d="M416.90,296.10 V296.25 M413.90,296.10 H419.90 M413.90,296.25 H419.90" stroke="#2563eb" stroke-opacity="0.5" fill="none"/>
<path d="M551.30,261.20 V261.36 M548.30,261.20 H554.30 M548.30,261.36 H554.30" stroke="#2563eb" stroke-opacity="0.5" fill="none"/>
<path d="M685.70,225.65 V226.00 M682.70,225.65 H688.70 M682.70,226.00 H688.70" stroke="#2563eb" stroke-opacity="0.5" fill="none"/>
<path d="M820.09,190.41 V190.83 M817.09,190.41 H823.09 M817.09,190.83 H823.09" stroke="#2563eb" stroke-opacity="0.5" fill="none"/>
<path d="M949.89,156.94 V157.31 M946.89,156.94 H952.89 M946.89,157.31 H952.89" stroke="#2563eb" stroke-opacity="0.5" fill="none"/>
<polyline points="148.11,364.89 282.50,330.84 416.90,296.22 551.30,261.25 685.70,225.96 820.09,190.74 949.89,157.25" fill="none" stroke="#2563eb" stroke-width="2.5"/>
<circle cx="148.11" cy="364.89" r="3.8" fill="white" stroke="#2563eb" stroke-width="2"/>
<circle cx="282.50" cy="330.84" r="3.8" fill="white" stroke="#2563eb" stroke-width="2"/>
<circle cx="416.90" cy="296.22" r="3.8" fill="white" stroke="#2563eb" stroke-width="2"/>
<circle cx="551.30" cy="261.25" r="3.8" fill="white" stroke="#2563eb" stroke-width="2"/>
<circle cx="685.70" cy="225.96" r="3.8" fill="white" stroke="#2563eb" stroke-width="2"/>
<circle cx="820.09" cy="190.74" r="3.8" fill="white" stroke="#2563eb" stroke-width="2"/>
<circle cx="949.89" cy="157.25" r="3.8" fill="white" stroke="#2563eb" stroke-width="2"/>
<polygon points="148.11,379.80 282.50,345.47 416.90,310.41 551.30,275.00 685.70,238.71 820.09,203.86 949.89,166.54 949.89,169.88 820.09,204.07 685.70,239.63 551.30,275.24 416.90,310.94 282.50,345.72 148.11,379.93" fill="#dc2626" fill-opacity="0.09"/>
<path d="M148.11,379.80 V379.93 M145.11,379.80 H151.11 M145.11,379.93 H151.11" stroke="#dc2626" stroke-opacity="0.5" fill="none"/>
<path d="M282.50,345.47 V345.72 M279.50,345.47 H285.50 M279.50,345.72 H285.50" stroke="#dc2626" stroke-opacity="0.5" fill="none"/>
<path d="M416.90,310.41 V310.94 M413.90,310.41 H419.90 M413.90,310.94 H419.90" stroke="#dc2626" stroke-opacity="0.5" fill="none"/>
<path d="M551.30,275.00 V275.24 M548.30,275.00 H554.30 M548.30,275.24 H554.30" stroke="#dc2626" stroke-opacity="0.5" fill="none"/>
<path d="M685.70,238.71 V239.63 M682.70,238.71 H688.70 M682.70,239.63 H688.70" stroke="#dc2626" stroke-opacity="0.5" fill="none"/>
<path d="M820.09,203.86 V204.07 M817.09,203.86 H823.09 M817.09,204.07 H823.09" stroke="#dc2626" stroke-opacity="0.5" fill="none"/>
<path d="M949.89,166.54 V169.88 M946.89,166.54 H952.89 M946.89,169.88 H952.89" stroke="#dc2626" stroke-opacity="0.5" fill="none"/>
<polyline points="148.11,379.86 282.50,345.65 416.90,310.81 551.30,275.22 685.70,239.28 820.09,204.02 949.89,169.53" fill="none" stroke="#dc2626" stroke-width="2.5"/>
<circle cx="148.11" cy="379.86" r="3.8" fill="white" stroke="#dc2626" stroke-width="2"/>
<circle cx="282.50" cy="345.65" r="3.8" fill="white" stroke="#dc2626" stroke-width="2"/>
<circle cx="416.90" cy="310.81" r="3.8" fill="white" stroke="#dc2626" stroke-width="2"/>
<circle cx="551.30" cy="275.22" r="3.8" fill="white" stroke="#dc2626" stroke-width="2"/>
<circle cx="685.70" cy="239.28" r="3.8" fill="white" stroke="#dc2626" stroke-width="2"/>
<circle cx="820.09" cy="204.02" r="3.8" fill="white" stroke="#dc2626" stroke-width="2"/>
<circle cx="949.89" cy="169.53" r="3.8" fill="white" stroke="#dc2626" stroke-width="2"/>
<polygon points="148.11,332.36 282.50,296.36 416.90,262.54 551.30,223.21 685.70,183.09 820.09,148.38 949.89,110.71 949.89,112.02 820.09,149.66 685.70,185.26 551.30,225.66 416.90,262.84 282.50,296.86 148.11,332.60" fill="#059669" fill-opacity="0.09"/>
<path d="M148.11,332.36 V332.60 M145.11,332.36 H151.11 M145.11,332.60 H151.11" stroke="#059669" stroke-opacity="0.5" fill="none"/>
<path d="M282.50,296.36 V296.86 M279.50,296.36 H285.50 M279.50,296.86 H285.50" stroke="#059669" stroke-opacity="0.5" fill="none"/>
<path d="M416.90,262.54 V262.84 M413.90,262.54 H419.90 M413.90,262.84 H419.90" stroke="#059669" stroke-opacity="0.5" fill="none"/>
<path d="M551.30,223.21 V225.66 M548.30,223.21 H554.30 M548.30,225.66 H554.30" stroke="#059669" stroke-opacity="0.5" fill="none"/>
<path d="M685.70,183.09 V185.26 M682.70,183.09 H688.70 M682.70,185.26 H688.70" stroke="#059669" stroke-opacity="0.5" fill="none"/>
<path d="M820.09,148.38 V149.66 M817.09,148.38 H823.09 M817.09,149.66 H823.09" stroke="#059669" stroke-opacity="0.5" fill="none"/>
<path d="M949.89,110.71 V112.02 M946.89,110.71 H952.89 M946.89,112.02 H952.89" stroke="#059669" stroke-opacity="0.5" fill="none"/>
<polyline points="148.11,332.56 282.50,296.67 416.90,262.74 551.30,224.65 685.70,184.77 820.09,149.09 949.89,110.93" fill="none" stroke="#059669" stroke-width="2.5"/>
<circle cx="148.11" cy="332.56" r="3.8" fill="white" stroke="#059669" stroke-width="2"/>
<circle cx="282.50" cy="296.67" r="3.8" fill="white" stroke="#059669" stroke-width="2"/>
<circle cx="416.90" cy="262.74" r="3.8" fill="white" stroke="#059669" stroke-width="2"/>
<circle cx="551.30" cy="224.65" r="3.8" fill="white" stroke="#059669" stroke-width="2"/>
<circle cx="685.70" cy="184.77" r="3.8" fill="white" stroke="#059669" stroke-width="2"/>
<circle cx="820.09" cy="149.09" r="3.8" fill="white" stroke="#059669" stroke-width="2"/>
<circle cx="949.89" cy="110.93" r="3.8" fill="white" stroke="#059669" stroke-width="2"/>
<polygon points="148.11,335.51 282.50,297.41 416.90,261.05 551.30,223.56 685.70,185.89 820.09,143.52 949.89,112.09 949.89,113.12 820.09,149.19 685.70,186.79 551.30,224.95 416.90,262.14 282.50,297.64 148.11,335.69" fill="#9333ea" fill-opacity="0.09"/>
<path d="M148.11,335.51 V335.69 M145.11,335.51 H151.11 M145.11,335.69 H151.11" stroke="#9333ea" stroke-opacity="0.5" fill="none"/>
<path d="M282.50,297.41 V297.64 M279.50,297.41 H285.50 M279.50,297.64 H285.50" stroke="#9333ea" stroke-opacity="0.5" fill="none"/>
<path d="M416.90,261.05 V262.14 M413.90,261.05 H419.90 M413.90,262.14 H419.90" stroke="#9333ea" stroke-opacity="0.5" fill="none"/>
<path d="M551.30,223.56 V224.95 M548.30,223.56 H554.30 M548.30,224.95 H554.30" stroke="#9333ea" stroke-opacity="0.5" fill="none"/>
<path d="M685.70,185.89 V186.79 M682.70,185.89 H688.70 M682.70,186.79 H688.70" stroke="#9333ea" stroke-opacity="0.5" fill="none"/>
<path d="M820.09,143.52 V149.19 M817.09,143.52 H823.09 M817.09,149.19 H823.09" stroke="#9333ea" stroke-opacity="0.5" fill="none"/>
<path d="M949.89,112.09 V113.12 M946.89,112.09 H952.89 M946.89,113.12 H952.89" stroke="#9333ea" stroke-opacity="0.5" fill="none"/>
<polyline points="148.11,335.56 282.50,297.59 416.90,261.99 551.30,223.98 685.70,186.61 820.09,144.07 949.89,112.95" fill="none" stroke="#9333ea" stroke-width="2.5"/>
<circle cx="148.11" cy="335.56" r="3.8" fill="white" stroke="#9333ea" stroke-width="2"/>
<circle cx="282.50" cy="297.59" r="3.8" fill="white" stroke="#9333ea" stroke-width="2"/>
<circle cx="416.90" cy="261.99" r="3.8" fill="white" stroke="#9333ea" stroke-width="2"/>
<circle cx="551.30" cy="223.98" r="3.8" fill="white" stroke="#9333ea" stroke-width="2"/>
<circle cx="685.70" cy="186.61" r="3.8" fill="white" stroke="#9333ea" stroke-width="2"/>
<circle cx="820.09" cy="144.07" r="3.8" fill="white" stroke="#9333ea" stroke-width="2"/>
<circle cx="949.89" cy="112.95" r="3.8" fill="white" stroke="#9333ea" stroke-width="2"/>
<polygon points="148.11,389.06 282.50,354.46 416.90,319.22 551.30,283.22 685.70,246.05 820.09,211.14 949.89,174.23 949.89,176.51 820.09,211.48 685.70,247.09 551.30,283.42 416.90,319.47 282.50,354.62 148.11,389.29" fill="#d97706" fill-opacity="0.09"/>
<path d="M148.11,389.06 V389.29 M145.11,389.06 H151.11 M145.11,389.29 H151.11" stroke="#d97706" stroke-opacity="0.5" fill="none"/>
<path d="M282.50,354.46 V354.62 M279.50,354.46 H285.50 M279.50,354.62 H285.50" stroke="#d97706" stroke-opacity="0.5" fill="none"/>
<path d="M416.90,319.22 V319.47 M413.90,319.22 H419.90 M413.90,319.47 H419.90" stroke="#d97706" stroke-opacity="0.5" fill="none"/>
<path d="M551.30,283.22 V283.42 M548.30,283.22 H554.30 M548.30,283.42 H554.30" stroke="#d97706" stroke-opacity="0.5" fill="none"/>
<path d="M685.70,246.05 V247.09 M682.70,246.05 H688.70 M682.70,247.09 H688.70" stroke="#d97706" stroke-opacity="0.5" fill="none"/>
<path d="M820.09,211.14 V211.48 M817.09,211.14 H823.09 M817.09,211.48 H823.09" stroke="#d97706" stroke-opacity="0.5" fill="none"/>
<path d="M949.89,174.23 V176.51 M946.89,174.23 H952.89 M946.89,176.51 H952.89" stroke="#d97706" stroke-opacity="0.5" fill="none"/>
<polyline points="148.11,389.18 282.50,354.58 416.90,319.44 551.30,283.31 685.70,246.40 820.09,211.26 949.89,176.06" fill="none" stroke="#d97706" stroke-width="2.5"/>
<circle cx="148.11" cy="389.18" r="3.8" fill="white" stroke="#d97706" stroke-width="2"/>
<circle cx="282.50" cy="354.58" r="3.8" fill="white" stroke="#d97706" stroke-width="2"/>
<circle cx="416.90" cy="319.44" r="3.8" fill="white" stroke="#d97706" stroke-width="2"/>
<circle cx="551.30" cy="283.31" r="3.8" fill="white" stroke="#d97706" stroke-width="2"/>
<circle cx="685.70" cy="246.40" r="3.8" fill="white" stroke="#d97706" stroke-width="2"/>
<circle cx="820.09" cy="211.26" r="3.8" fill="white" stroke="#d97706" stroke-width="2"/>
<circle cx="949.89" cy="176.06" r="3.8" fill="white" stroke="#d97706" stroke-width="2"/>
<line x1="42" y1="489" x2="73" y2="489" stroke="#2563eb" stroke-width="2.5"/>
<circle cx="57.00" cy="489.00" r="3.8" fill="white" stroke="#2563eb" stroke-width="2"/>
<text x="83" y="493" font-size="12">local/acl-cffi (CFFI + C++) / CPython 3.11.16</text>
<line x1="552" y1="489" x2="583" y2="489" stroke="#dc2626" stroke-width="2.5"/>
<circle cx="567.00" cy="489.00" r="3.8" fill="white" stroke="#dc2626" stroke-width="2"/>
<text x="593" y="493" font-size="12">local/acl-hpy (HPy Universal + C++) / CPython 3.11.16</text>
<line x1="42" y1="523" x2="73" y2="523" stroke="#059669" stroke-width="2.5"/>
<circle cx="57.00" cy="523.00" r="3.8" fill="white" stroke="#059669" stroke-width="2"/>
<text x="83" y="527" font-size="12">not522/ac-library-python / CPython 3.11.16</text>
<line x1="552" y1="523" x2="583" y2="523" stroke="#9333ea" stroke-width="2.5"/>
<circle cx="567.00" cy="523.00" r="3.8" fill="white" stroke="#9333ea" stroke-width="2"/>
<text x="593" y="527" font-size="12">shakayami/ACL-for-python / CPython 3.11.16</text>
<line x1="42" y1="557" x2="73" y2="557" stroke="#d97706" stroke-width="2.5"/>
<circle cx="57.00" cy="557.00" r="3.8" fill="white" stroke="#d97706" stroke-width="2"/>
<text x="83" y="561" font-size="12">tatyam-prime/acl-cpp-python (C++) / CPython 3.11.16</text>
</g></svg>
