<svg xmlns="http://www.w3.org/2000/svg" width="1040" height="620" viewBox="0 0 1040 620" role="img" aria-labelledby="title desc">
<title id="title">Lazy segment tree / PyPy 3.11.13 benchmark</title>
<desc id="desc">Median elapsed time versus input size. Bands and whiskers show the observed minimum and maximum. X axis: log. Y axis: log. Lower is faster.</desc>
<rect width="100%" height="100%" rx="12" fill="white"/>
<g font-family="-apple-system, BlinkMacSystemFont, Segoe UI, sans-serif" fill="#0f172a">
<text x="40" y="36" font-size="23" font-weight="700">Lazy segment tree / PyPy 3.11.13</text>
<text x="40" y="61" font-size="13" fill="#64748b">Lower is faster · median line · observed min–max range</text>
<text x="40" y="81" font-size="11" fill="#475569">参考用：C++単体の実行時間（Pythonとの値変換・プロセス起動・入出力を除外）。</text>
<line x1="124.17" y1="94" x2="124.17" y2="406" stroke="#e2e8f0"/>
<text x="124.17" y="431" font-size="12" text-anchor="middle" fill="#475569">100</text>
<line x1="191.37" y1="94" x2="191.37" y2="406" stroke="#e2e8f0"/>
<text x="191.37" y="431" font-size="12" text-anchor="middle" fill="#475569">200</text>
<line x1="280.21" y1="94" x2="280.21" y2="406" stroke="#e2e8f0"/>
<text x="280.21" y="431" font-size="12" text-anchor="middle" fill="#475569">500</text>
<line x1="347.40" y1="94" x2="347.40" y2="406" stroke="#e2e8f0"/>
<text x="347.40" y="431" font-size="12" text-anchor="middle" fill="#475569">1,000</text>
<line x1="414.60" y1="94" x2="414.60" y2="406" stroke="#e2e8f0"/>
<text x="414.60" y="431" font-size="12" text-anchor="middle" fill="#475569">2,000</text>
<line x1="503.43" y1="94" x2="503.43" y2="406" stroke="#e2e8f0"/>
<text x="503.43" y="431" font-size="12" text-anchor="middle" fill="#475569">5,000</text>
<line x1="570.63" y1="94" x2="570.63" y2="406" stroke="#e2e8f0"/>
<text x="570.63" y="431" font-size="12" text-anchor="middle" fill="#475569">10,000</text>
<line x1="637.83" y1="94" x2="637.83" y2="406" stroke="#e2e8f0"/>
<text x="637.83" y="431" font-size="12" text-anchor="middle" fill="#475569">20,000</text>
<line x1="726.66" y1="94" x2="726.66" y2="406" stroke="#e2e8f0"/>
<text x="726.66" y="431" font-size="12" text-anchor="middle" fill="#475569">50,000</text>
<line x1="793.86" y1="94" x2="793.86" y2="406" stroke="#e2e8f0"/>
<text x="793.86" y="431" font-size="12" text-anchor="middle" fill="#475569">100,000</text>
<line x1="861.06" y1="94" x2="861.06" y2="406" stroke="#e2e8f0"/>
<text x="861.06" y="431" font-size="12" text-anchor="middle" fill="#475569">200,000</text>
<line x1="949.89" y1="94" x2="949.89" y2="406" stroke="#e2e8f0"/>
<text x="949.89" y="431" font-size="12" text-anchor="middle" fill="#475569">500,000</text>
<line x1="100" y1="401.89" x2="998" y2="401.89" stroke="#e2e8f0"/>
<text x="87" y="405.89" font-size="12" text-anchor="end" fill="#475569">1e-05</text>
<line x1="100" y1="350.56" x2="998" y2="350.56" stroke="#e2e8f0"/>
<text x="87" y="354.56" font-size="12" text-anchor="end" fill="#475569">0.0001</text>
<line x1="100" y1="299.22" x2="998" y2="299.22" stroke="#e2e8f0"/>
<text x="87" y="303.22" font-size="12" text-anchor="end" fill="#475569">0.001</text>
<line x1="100" y1="247.89" x2="998" y2="247.89" stroke="#e2e8f0"/>
<text x="87" y="251.89" font-size="12" text-anchor="end" fill="#475569">0.01</text>
<line x1="100" y1="196.56" x2="998" y2="196.56" stroke="#e2e8f0"/>
<text x="87" y="200.56" font-size="12" text-anchor="end" fill="#475569">0.1</text>
<line x1="100" y1="145.22" x2="998" y2="145.22" stroke="#e2e8f0"/>
<text x="87" y="149.22" font-size="12" text-anchor="end" fill="#475569">1</text>
<path d="M100 94 V406 H998" fill="none" stroke="#94a3b8"/>
<text x="549" y="461" font-size="14" text-anchor="middle">Input size n (log scale)</text>
<text transform="translate(25 250) rotate(-90)" font-size="14" text-anchor="middle">Elapsed time [s] (log scale)</text>
<polygon points="148.11,295.82 282.50,286.53 416.90,269.19 551.30,230.84 685.70,189.96 820.09,150.83 949.89,110.71 949.89,111.47 820.09,151.26 685.70,190.27 551.30,231.97 416.90,271.22 282.50,299.45 148.11,328.35" fill="#2563eb" fill-opacity="0.09"/>
<path d="M148.11,295.82 V328.35 M145.11,295.82 H151.11 M145.11,328.35 H151.11" stroke="#2563eb" stroke-opacity="0.5" fill="none"/>
<path d="M282.50,286.53 V299.45 M279.50,286.53 H285.50 M279.50,299.45 H285.50" stroke="#2563eb" stroke-opacity="0.5" fill="none"/>
<path d="M416.90,269.19 V271.22 M413.90,269.19 H419.90 M413.90,271.22 H419.90" stroke="#2563eb" stroke-opacity="0.5" fill="none"/>
<path d="M551.30,230.84 V231.97 M548.30,230.84 H554.30 M548.30,231.97 H554.30" stroke="#2563eb" stroke-opacity="0.5" fill="none"/>
<path d="M685.70,189.96 V190.27 M682.70,189.96 H688.70 M682.70,190.27 H688.70" stroke="#2563eb" stroke-opacity="0.5" fill="none"/>
<path d="M820.09,150.83 V151.26 M817.09,150.83 H823.09 M817.09,151.26 H823.09" stroke="#2563eb" stroke-opacity="0.5" fill="none"/>
<path d="M949.89,110.71 V111.47 M946.89,110.71 H952.89 M946.89,111.47 H952.89" stroke="#2563eb" stroke-opacity="0.5" fill="none"/>
<polyline points="148.11,310.30 282.50,295.77 416.90,269.58 551.30,231.91 685.70,190.17 820.09,150.92 949.89,111.20" fill="none" stroke="#2563eb" stroke-width="2.5"/>
<circle cx="148.11" cy="310.30" r="3.8" fill="white" stroke="#2563eb" stroke-width="2"/>
<circle cx="282.50" cy="295.77" r="3.8" fill="white" stroke="#2563eb" stroke-width="2"/>
<circle cx="416.90" cy="269.58" r="3.8" fill="white" stroke="#2563eb" stroke-width="2"/>
<circle cx="551.30" cy="231.91" r="3.8" fill="white" stroke="#2563eb" stroke-width="2"/>
<circle cx="685.70" cy="190.17" r="3.8" fill="white" stroke="#2563eb" stroke-width="2"/>
<circle cx="820.09" cy="150.92" r="3.8" fill="white" stroke="#2563eb" stroke-width="2"/>
<circle cx="949.89" cy="111.20" r="3.8" fill="white" stroke="#2563eb" stroke-width="2"/>
<polygon points="148.11,343.44 282.50,315.99 416.90,278.91 551.30,241.29 685.70,197.46 820.09,156.73 949.89,117.87 949.89,118.82 820.09,157.92 685.70,198.90 551.30,242.14 416.90,279.11 282.50,316.61 148.11,352.11" fill="#dc2626" fill-opacity="0.09"/>
<path d="M148.11,343.44 V352.11 M145.11,343.44 H151.11 M145.11,352.11 H151.11" stroke="#dc2626" stroke-opacity="0.5" fill="none"/>
<path d="M282.50,315.99 V316.61 M279.50,315.99 H285.50 M279.50,316.61 H285.50" stroke="#dc2626" stroke-opacity="0.5" fill="none"/>
<path d="M416.90,278.91 V279.11 M413.90,278.91 H419.90 M413.90,279.11 H419.90" stroke="#dc2626" stroke-opacity="0.5" fill="none"/>
<path d="M551.30,241.29 V242.14 M548.30,241.29 H554.30 M548.30,242.14 H554.30" stroke="#dc2626" stroke-opacity="0.5" fill="none"/>
<path d="M685.70,197.46 V198.90 M682.70,197.46 H688.70 M682.70,198.90 H688.70" stroke="#dc2626" stroke-opacity="0.5" fill="none"/>
<path d="M820.09,156.73 V157.92 M817.09,156.73 H823.09 M817.09,157.92 H823.09" stroke="#dc2626" stroke-opacity="0.5" fill="none"/>
<path d="M949.89,117.87 V118.82 M946.89,117.87 H952.89 M946.89,118.82 H952.89" stroke="#dc2626" stroke-opacity="0.5" fill="none"/>
<polyline points="148.11,351.96 282.50,316.25 416.90,279.02 551.30,242.02 685.70,198.69 820.09,157.47 949.89,118.51" fill="none" stroke="#dc2626" stroke-width="2.5"/>
<circle cx="148.11" cy="351.96" r="3.8" fill="white" stroke="#dc2626" stroke-width="2"/>
<circle cx="282.50" cy="316.25" r="3.8" fill="white" stroke="#dc2626" stroke-width="2"/>
<circle cx="416.90" cy="279.02" r="3.8" fill="white" stroke="#dc2626" stroke-width="2"/>
<circle cx="551.30" cy="242.02" r="3.8" fill="white" stroke="#dc2626" stroke-width="2"/>
<circle cx="685.70" cy="198.69" r="3.8" fill="white" stroke="#dc2626" stroke-width="2"/>
<circle cx="820.09" cy="157.47" r="3.8" fill="white" stroke="#dc2626" stroke-width="2"/>
<circle cx="949.89" cy="118.51" r="3.8" fill="white" stroke="#dc2626" stroke-width="2"/>
<polygon points="148.11,345.06 282.50,312.95 416.90,275.69 551.30,240.96 685.70,195.89 820.09,155.82 949.89,114.48 949.89,115.98 820.09,156.34 685.70,197.29 551.30,241.38 416.90,277.46 282.50,313.62 148.11,352.33" fill="#059669" fill-opacity="0.09"/>
<path d="M148.11,345.06 V352.33 M145.11,345.06 H151.11 M145.11,352.33 H151.11" stroke="#059669" stroke-opacity="0.5" fill="none"/>
<path d="M282.50,312.95 V313.62 M279.50,312.95 H285.50 M279.50,313.62 H285.50" stroke="#059669" stroke-opacity="0.5" fill="none"/>
<path d="M416.90,275.69 V277.46 M413.90,275.69 H419.90 M413.90,277.46 H419.90" stroke="#059669" stroke-opacity="0.5" fill="none"/>
<path d="M551.30,240.96 V241.38 M548.30,240.96 H554.30 M548.30,241.38 H554.30" stroke="#059669" stroke-opacity="0.5" fill="none"/>
<path d="M685.70,195.89 V197.29 M682.70,195.89 H688.70 M682.70,197.29 H688.70" stroke="#059669" stroke-opacity="0.5" fill="none"/>
<path d="M820.09,155.82 V156.34 M817.09,155.82 H823.09 M817.09,156.34 H823.09" stroke="#059669" stroke-opacity="0.5" fill="none"/>
<path d="M949.89,114.48 V115.98 M946.89,114.48 H952.89 M946.89,115.98 H952.89" stroke="#059669" stroke-opacity="0.5" fill="none"/>
<polyline points="148.11,352.14 282.50,313.50 416.90,277.02 551.30,241.31 685.70,197.00 820.09,156.28 949.89,115.36" fill="none" stroke="#059669" stroke-width="2.5"/>
<circle cx="148.11" cy="352.14" r="3.8" fill="white" stroke="#059669" stroke-width="2"/>
<circle cx="282.50" cy="313.50" r="3.8" fill="white" stroke="#059669" stroke-width="2"/>
<circle cx="416.90" cy="277.02" r="3.8" fill="white" stroke="#059669" stroke-width="2"/>
<circle cx="551.30" cy="241.31" r="3.8" fill="white" stroke="#059669" stroke-width="2"/>
<circle cx="685.70" cy="197.00" r="3.8" fill="white" stroke="#059669" stroke-width="2"/>
<circle cx="820.09" cy="156.28" r="3.8" fill="white" stroke="#059669" stroke-width="2"/>
<circle cx="949.89" cy="115.36" r="3.8" fill="white" stroke="#059669" stroke-width="2"/>
<polygon points="148.11,344.82 282.50,319.07 416.90,277.39 551.30,242.98 685.70,198.96 820.09,159.82 949.89,119.34 949.89,120.77 820.09,160.74 685.70,199.58 551.30,243.78 416.90,281.56 282.50,320.07 148.11,356.46" fill="#9333ea" fill-opacity="0.09"/>
<path d="M148.11,344.82 V356.46 M145.11,344.82 H151.11 M145.11,356.46 H151.11" stroke="#9333ea" stroke-opacity="0.5" fill="none"/>
<path d="M282.50,319.07 V320.07 M279.50,319.07 H285.50 M279.50,320.07 H285.50" stroke="#9333ea" stroke-opacity="0.5" fill="none"/>
<path d="M416.90,277.39 V281.56 M413.90,277.39 H419.90 M413.90,281.56 H419.90" stroke="#9333ea" stroke-opacity="0.5" fill="none"/>
<path d="M551.30,242.98 V243.78 M548.30,242.98 H554.30 M548.30,243.78 H554.30" stroke="#9333ea" stroke-opacity="0.5" fill="none"/>
<path d="M685.70,198.96 V199.58 M682.70,198.96 H688.70 M682.70,199.58 H688.70" stroke="#9333ea" stroke-opacity="0.5" fill="none"/>
<path d="M820.09,159.82 V160.74 M817.09,159.82 H823.09 M817.09,160.74 H823.09" stroke="#9333ea" stroke-opacity="0.5" fill="none"/>
<path d="M949.89,119.34 V120.77 M946.89,119.34 H952.89 M946.89,120.77 H952.89" stroke="#9333ea" stroke-opacity="0.5" fill="none"/>
<polyline points="148.11,354.64 282.50,319.44 416.90,281.34 551.30,243.43 685.70,199.38 820.09,160.55 949.89,120.37" fill="none" stroke="#9333ea" stroke-width="2.5"/>
<circle cx="148.11" cy="354.64" r="3.8" fill="white" stroke="#9333ea" stroke-width="2"/>
<circle cx="282.50" cy="319.44" r="3.8" fill="white" stroke="#9333ea" stroke-width="2"/>
<circle cx="416.90" cy="281.34" r="3.8" fill="white" stroke="#9333ea" stroke-width="2"/>
<circle cx="551.30" cy="243.43" r="3.8" fill="white" stroke="#9333ea" stroke-width="2"/>
<circle cx="685.70" cy="199.38" r="3.8" fill="white" stroke="#9333ea" stroke-width="2"/>
<circle cx="820.09" cy="160.55" r="3.8" fill="white" stroke="#9333ea" stroke-width="2"/>
<circle cx="949.89" cy="120.37" r="3.8" fill="white" stroke="#9333ea" stroke-width="2"/>
<polygon points="148.11,389.22 282.50,353.12 416.90,308.78 551.30,272.02 685.70,235.67 820.09,201.00 949.89,165.68 949.89,166.31 820.09,201.28 685.70,236.53 551.30,272.10 416.90,308.88 282.50,353.19 148.11,389.29" fill="#475569" fill-opacity="0.09"/>
<path d="M148.11,389.22 V389.29 M145.11,389.22 H151.11 M145.11,389.29 H151.11" stroke="#475569" stroke-opacity="0.5" fill="none"/>
<path d="M282.50,353.12 V353.19 M279.50,353.12 H285.50 M279.50,353.19 H285.50" stroke="#475569" stroke-opacity="0.5" fill="none"/>
<path d="M416.90,308.78 V308.88 M413.90,308.78 H419.90 M413.90,308.88 H419.90" stroke="#475569" stroke-opacity="0.5" fill="none"/>
<path d="M551.30,272.02 V272.10 M548.30,272.02 H554.30 M548.30,272.10 H554.30" stroke="#475569" stroke-opacity="0.5" fill="none"/>
<path d="M685.70,235.67 V236.53 M682.70,235.67 H688.70 M682.70,236.53 H688.70" stroke="#475569" stroke-opacity="0.5" fill="none"/>
<path d="M820.09,201.00 V201.28 M817.09,201.00 H823.09 M817.09,201.28 H823.09" stroke="#475569" stroke-opacity="0.5" fill="none"/>
<path d="M949.89,165.68 V166.31 M946.89,165.68 H952.89 M946.89,166.31 H952.89" stroke="#475569" stroke-opacity="0.5" fill="none"/>
<polyline points="148.11,389.23 282.50,353.15 416.90,308.81 551.30,272.07 685.70,236.31 820.09,201.19 949.89,165.87" fill="none" stroke="#475569" stroke-width="2.5" stroke-dasharray="7 5"/>
<rect x="144.31" y="385.43" width="7.6" height="7.6" fill="white" stroke="#475569" stroke-width="2"/>
<rect x="278.70" y="349.35" width="7.6" height="7.6" fill="white" stroke="#475569" stroke-width="2"/>
<rect x="413.10" y="305.01" width="7.6" height="7.6" fill="white" stroke="#475569" stroke-width="2"/>
<rect x="547.50" y="268.27" width="7.6" height="7.6" fill="white" stroke="#475569" stroke-width="2"/>
<rect x="681.90" y="232.51" width="7.6" height="7.6" fill="white" stroke="#475569" stroke-width="2"/>
<rect x="816.29" y="197.39" width="7.6" height="7.6" fill="white" stroke="#475569" stroke-width="2"/>
<rect x="946.09" y="162.07" width="7.6" height="7.6" fill="white" stroke="#475569" stroke-width="2"/>
<line x1="42" y1="489" x2="73" y2="489" stroke="#2563eb" stroke-width="2.5"/>
<circle cx="57.00" cy="489.00" r="3.8" fill="white" stroke="#2563eb" stroke-width="2"/>
<text x="83" y="493" font-size="12">lif4635/harurun-s-library (library_codex) / PyPy</text>
<text x="83" y="511" font-size="12">3.11.13</text>
<line x1="552" y1="489" x2="583" y2="489" stroke="#dc2626" stroke-width="2.5"/>
<circle cx="567.00" cy="489.00" r="3.8" fill="white" stroke="#dc2626" stroke-width="2"/>
<text x="593" y="493" font-size="12">lif4635/harurun-s-library (library) / PyPy 3.11.13</text>
<line x1="42" y1="541" x2="73" y2="541" stroke="#059669" stroke-width="2.5"/>
<circle cx="57.00" cy="541.00" r="3.8" fill="white" stroke="#059669" stroke-width="2"/>
<text x="83" y="545" font-size="12">not522/ac-library-python / PyPy 3.11.13</text>
<line x1="552" y1="541" x2="583" y2="541" stroke="#9333ea" stroke-width="2.5"/>
<circle cx="567.00" cy="541.00" r="3.8" fill="white" stroke="#9333ea" stroke-width="2"/>
<text x="593" y="545" font-size="12">shakayami/ACL-for-python / PyPy 3.11.13</text>
<line x1="42" y1="575" x2="73" y2="575" stroke="#475569" stroke-width="2.5" stroke-dasharray="7 5"/>
<rect x="53.20" y="571.20" width="7.6" height="7.6" fill="white" stroke="#475569" stroke-width="2"/>
<text x="83" y="579" font-size="12">C++ ACL（参考用） / C++ 17</text>
</g></svg>
