<svg xmlns="http://www.w3.org/2000/svg" width="1040" height="654" viewBox="0 0 1040 654" role="img" aria-labelledby="title desc">
<title id="title">Floor sum / PyPy 3.11.13 benchmark</title>
<desc id="desc">Median elapsed time versus input size. Bands and whiskers show the observed minimum and maximum. X axis: log. Y axis: log. Lower is faster.</desc>
<rect width="100%" height="100%" rx="12" fill="white"/>
<g font-family="-apple-system, BlinkMacSystemFont, Segoe UI, sans-serif" fill="#0f172a">
<text x="40" y="36" font-size="23" font-weight="700">Floor sum / PyPy 3.11.13</text>
<text x="40" y="61" font-size="13" fill="#64748b">Lower is faster · median line · observed min–max range</text>
<text x="40" y="81" font-size="11" fill="#475569">参考用：C++単体の実行時間（Pythonとの値変換・プロセス起動・入出力を除外）。</text>
<line x1="124.17" y1="94" x2="124.17" y2="406" stroke="#e2e8f0"/>
<text x="124.17" y="431" font-size="12" text-anchor="middle" fill="#475569">100</text>
<line x1="191.37" y1="94" x2="191.37" y2="406" stroke="#e2e8f0"/>
<text x="191.37" y="431" font-size="12" text-anchor="middle" fill="#475569">200</text>
<line x1="280.21" y1="94" x2="280.21" y2="406" stroke="#e2e8f0"/>
<text x="280.21" y="431" font-size="12" text-anchor="middle" fill="#475569">500</text>
<line x1="347.40" y1="94" x2="347.40" y2="406" stroke="#e2e8f0"/>
<text x="347.40" y="431" font-size="12" text-anchor="middle" fill="#475569">1,000</text>
<line x1="414.60" y1="94" x2="414.60" y2="406" stroke="#e2e8f0"/>
<text x="414.60" y="431" font-size="12" text-anchor="middle" fill="#475569">2,000</text>
<line x1="503.43" y1="94" x2="503.43" y2="406" stroke="#e2e8f0"/>
<text x="503.43" y="431" font-size="12" text-anchor="middle" fill="#475569">5,000</text>
<line x1="570.63" y1="94" x2="570.63" y2="406" stroke="#e2e8f0"/>
<text x="570.63" y="431" font-size="12" text-anchor="middle" fill="#475569">10,000</text>
<line x1="637.83" y1="94" x2="637.83" y2="406" stroke="#e2e8f0"/>
<text x="637.83" y="431" font-size="12" text-anchor="middle" fill="#475569">20,000</text>
<line x1="726.66" y1="94" x2="726.66" y2="406" stroke="#e2e8f0"/>
<text x="726.66" y="431" font-size="12" text-anchor="middle" fill="#475569">50,000</text>
<line x1="793.86" y1="94" x2="793.86" y2="406" stroke="#e2e8f0"/>
<text x="793.86" y="431" font-size="12" text-anchor="middle" fill="#475569">100,000</text>
<line x1="861.06" y1="94" x2="861.06" y2="406" stroke="#e2e8f0"/>
<text x="861.06" y="431" font-size="12" text-anchor="middle" fill="#475569">200,000</text>
<line x1="949.89" y1="94" x2="949.89" y2="406" stroke="#e2e8f0"/>
<text x="949.89" y="431" font-size="12" text-anchor="middle" fill="#475569">500,000</text>
<line x1="100" y1="382.12" x2="998" y2="382.12" stroke="#e2e8f0"/>
<text x="87" y="386.12" font-size="12" text-anchor="end" fill="#475569">0.01</text>
<line x1="100" y1="317.54" x2="998" y2="317.54" stroke="#e2e8f0"/>
<text x="87" y="321.54" font-size="12" text-anchor="end" fill="#475569">0.1</text>
<line x1="100" y1="252.96" x2="998" y2="252.96" stroke="#e2e8f0"/>
<text x="87" y="256.96" font-size="12" text-anchor="end" fill="#475569">1</text>
<line x1="100" y1="188.39" x2="998" y2="188.39" stroke="#e2e8f0"/>
<text x="87" y="192.39" font-size="12" text-anchor="end" fill="#475569">10</text>
<line x1="100" y1="123.81" x2="998" y2="123.81" stroke="#e2e8f0"/>
<text x="87" y="127.81" font-size="12" text-anchor="end" fill="#475569">100</text>
<path d="M100 94 V406 H998" fill="none" stroke="#94a3b8"/>
<text x="549" y="461" font-size="14" text-anchor="middle">Input size n (log scale)</text>
<text transform="translate(25 250) rotate(-90)" font-size="14" text-anchor="middle">Elapsed time [ms] (log scale)</text>
<polygon points="148.11,365.03 282.50,325.33 416.90,283.39 551.30,244.85 685.70,204.90 820.09,166.44 949.89,129.17 949.89,129.31 820.09,167.10 685.70,205.34 551.30,245.00 416.90,283.65 282.50,331.09 148.11,371.03" fill="#2563eb" fill-opacity="0.09"/>
<path d="M148.11,365.03 V371.03 M145.11,365.03 H151.11 M145.11,371.03 H151.11" stroke="#2563eb" stroke-opacity="0.5" fill="none"/>
<path d="M282.50,325.33 V331.09 M279.50,325.33 H285.50 M279.50,331.09 H285.50" stroke="#2563eb" stroke-opacity="0.5" fill="none"/>
<path d="M416.90,283.39 V283.65 M413.90,283.39 H419.90 M413.90,283.65 H419.90" stroke="#2563eb" stroke-opacity="0.5" fill="none"/>
<path d="M551.30,244.85 V245.00 M548.30,244.85 H554.30 M548.30,245.00 H554.30" stroke="#2563eb" stroke-opacity="0.5" fill="none"/>
<path d="M685.70,204.90 V205.34 M682.70,204.90 H688.70 M682.70,205.34 H688.70" stroke="#2563eb" stroke-opacity="0.5" fill="none"/>
<path d="M820.09,166.44 V167.10 M817.09,166.44 H823.09 M817.09,167.10 H823.09" stroke="#2563eb" stroke-opacity="0.5" fill="none"/>
<path d="M949.89,129.17 V129.31 M946.89,129.17 H952.89 M946.89,129.31 H952.89" stroke="#2563eb" stroke-opacity="0.5" fill="none"/>
<polyline points="148.11,370.93 282.50,329.79 416.90,283.48 551.30,244.96 685.70,205.30 820.09,167.02 949.89,129.27" fill="none" stroke="#2563eb" stroke-width="2.5"/>
<circle cx="148.11" cy="370.93" r="3.8" fill="white" stroke="#2563eb" stroke-width="2"/>
<circle cx="282.50" cy="329.79" r="3.8" fill="white" stroke="#2563eb" stroke-width="2"/>
<circle cx="416.90" cy="283.48" r="3.8" fill="white" stroke="#2563eb" stroke-width="2"/>
<circle cx="551.30" cy="244.96" r="3.8" fill="white" stroke="#2563eb" stroke-width="2"/>
<circle cx="685.70" cy="205.30" r="3.8" fill="white" stroke="#2563eb" stroke-width="2"/>
<circle cx="820.09" cy="167.02" r="3.8" fill="white" stroke="#2563eb" stroke-width="2"/>
<circle cx="949.89" cy="129.27" r="3.8" fill="white" stroke="#2563eb" stroke-width="2"/>
<polygon points="148.11,352.56 282.50,311.65 416.90,273.01 551.30,233.52 685.70,194.69 820.09,156.05 949.89,118.35 949.89,118.73 820.09,156.34 685.70,194.98 551.30,233.89 416.90,273.17 282.50,313.80 148.11,356.74" fill="#dc2626" fill-opacity="0.09"/>
<path d="M148.11,352.56 V356.74 M145.11,352.56 H151.11 M145.11,356.74 H151.11" stroke="#dc2626" stroke-opacity="0.5" fill="none"/>
<path d="M282.50,311.65 V313.80 M279.50,311.65 H285.50 M279.50,313.80 H285.50" stroke="#dc2626" stroke-opacity="0.5" fill="none"/>
<path d="M416.90,273.01 V273.17 M413.90,273.01 H419.90 M413.90,273.17 H419.90" stroke="#dc2626" stroke-opacity="0.5" fill="none"/>
<path d="M551.30,233.52 V233.89 M548.30,233.52 H554.30 M548.30,233.89 H554.30" stroke="#dc2626" stroke-opacity="0.5" fill="none"/>
<path d="M685.70,194.69 V194.98 M682.70,194.69 H688.70 M682.70,194.98 H688.70" stroke="#dc2626" stroke-opacity="0.5" fill="none"/>
<path d="M820.09,156.05 V156.34 M817.09,156.05 H823.09 M817.09,156.34 H823.09" stroke="#dc2626" stroke-opacity="0.5" fill="none"/>
<path d="M949.89,118.35 V118.73 M946.89,118.35 H952.89 M946.89,118.73 H952.89" stroke="#dc2626" stroke-opacity="0.5" fill="none"/>
<polyline points="148.11,356.39 282.50,313.18 416.90,273.09 551.30,233.79 685.70,194.77 820.09,156.25 949.89,118.71" fill="none" stroke="#dc2626" stroke-width="2.5"/>
<circle cx="148.11" cy="356.39" r="3.8" fill="white" stroke="#dc2626" stroke-width="2"/>
<circle cx="282.50" cy="313.18" r="3.8" fill="white" stroke="#dc2626" stroke-width="2"/>
<circle cx="416.90" cy="273.09" r="3.8" fill="white" stroke="#dc2626" stroke-width="2"/>
<circle cx="551.30" cy="233.79" r="3.8" fill="white" stroke="#dc2626" stroke-width="2"/>
<circle cx="685.70" cy="194.77" r="3.8" fill="white" stroke="#dc2626" stroke-width="2"/>
<circle cx="820.09" cy="156.25" r="3.8" fill="white" stroke="#dc2626" stroke-width="2"/>
<circle cx="949.89" cy="118.71" r="3.8" fill="white" stroke="#dc2626" stroke-width="2"/>
<polygon points="148.11,346.36 282.50,309.08 416.90,269.97 551.30,230.49 685.70,191.72 820.09,152.65 820.09,152.77 685.70,191.89 551.30,230.59 416.90,270.16 282.50,309.47 148.11,349.98" fill="#059669" fill-opacity="0.09"/>
<path d="M148.11,346.36 V349.98 M145.11,346.36 H151.11 M145.11,349.98 H151.11" stroke="#059669" stroke-opacity="0.5" fill="none"/>
<path d="M282.50,309.08 V309.47 M279.50,309.08 H285.50 M279.50,309.47 H285.50" stroke="#059669" stroke-opacity="0.5" fill="none"/>
<path d="M416.90,269.97 V270.16 M413.90,269.97 H419.90 M413.90,270.16 H419.90" stroke="#059669" stroke-opacity="0.5" fill="none"/>
<path d="M551.30,230.49 V230.59 M548.30,230.49 H554.30 M548.30,230.59 H554.30" stroke="#059669" stroke-opacity="0.5" fill="none"/>
<path d="M685.70,191.72 V191.89 M682.70,191.72 H688.70 M682.70,191.89 H688.70" stroke="#059669" stroke-opacity="0.5" fill="none"/>
<path d="M820.09,152.65 V152.77 M817.09,152.65 H823.09 M817.09,152.77 H823.09" stroke="#059669" stroke-opacity="0.5" fill="none"/>
<polyline points="148.11,349.92 282.50,309.45 416.90,270.14 551.30,230.52 685.70,191.74 820.09,152.74" fill="none" stroke="#059669" stroke-width="2.5"/>
<circle cx="148.11" cy="349.92" r="3.8" fill="white" stroke="#059669" stroke-width="2"/>
<circle cx="282.50" cy="309.45" r="3.8" fill="white" stroke="#059669" stroke-width="2"/>
<circle cx="416.90" cy="270.14" r="3.8" fill="white" stroke="#059669" stroke-width="2"/>
<circle cx="551.30" cy="230.52" r="3.8" fill="white" stroke="#059669" stroke-width="2"/>
<circle cx="685.70" cy="191.74" r="3.8" fill="white" stroke="#059669" stroke-width="2"/>
<circle cx="820.09" cy="152.74" r="3.8" fill="white" stroke="#059669" stroke-width="2"/>
<polygon points="148.11,338.80 282.50,303.16 416.90,260.83 551.30,223.80 685.70,185.28 820.09,145.82 820.09,145.95 685.70,186.14 551.30,224.79 416.90,262.22 282.50,303.36 148.11,341.80" fill="#9333ea" fill-opacity="0.09"/>
<path d="M148.11,338.80 V341.80 M145.11,338.80 H151.11 M145.11,341.80 H151.11" stroke="#9333ea" stroke-opacity="0.5" fill="none"/>
<path d="M282.50,303.16 V303.36 M279.50,303.16 H285.50 M279.50,303.36 H285.50" stroke="#9333ea" stroke-opacity="0.5" fill="none"/>
<path d="M416.90,260.83 V262.22 M413.90,260.83 H419.90 M413.90,262.22 H419.90" stroke="#9333ea" stroke-opacity="0.5" fill="none"/>
<path d="M551.30,223.80 V224.79 M548.30,223.80 H554.30 M548.30,224.79 H554.30" stroke="#9333ea" stroke-opacity="0.5" fill="none"/>
<path d="M685.70,185.28 V186.14 M682.70,185.28 H688.70 M682.70,186.14 H688.70" stroke="#9333ea" stroke-opacity="0.5" fill="none"/>
<path d="M820.09,145.82 V145.95 M817.09,145.82 H823.09 M817.09,145.95 H823.09" stroke="#9333ea" stroke-opacity="0.5" fill="none"/>
<polyline points="148.11,341.53 282.50,303.25 416.90,262.14 551.30,224.44 685.70,185.98 820.09,145.87" fill="none" stroke="#9333ea" stroke-width="2.5"/>
<circle cx="148.11" cy="341.53" r="3.8" fill="white" stroke="#9333ea" stroke-width="2"/>
<circle cx="282.50" cy="303.25" r="3.8" fill="white" stroke="#9333ea" stroke-width="2"/>
<circle cx="416.90" cy="262.14" r="3.8" fill="white" stroke="#9333ea" stroke-width="2"/>
<circle cx="551.30" cy="224.44" r="3.8" fill="white" stroke="#9333ea" stroke-width="2"/>
<circle cx="685.70" cy="185.98" r="3.8" fill="white" stroke="#9333ea" stroke-width="2"/>
<circle cx="820.09" cy="145.87" r="3.8" fill="white" stroke="#9333ea" stroke-width="2"/>
<polygon points="148.11,344.15 282.50,307.56 416.90,268.64 551.30,229.30 685.70,191.13 820.09,151.80 949.89,114.98 949.89,115.13 820.09,151.98 685.70,191.40 551.30,230.54 416.90,268.82 282.50,307.64 148.11,347.79" fill="#d97706" fill-opacity="0.09"/>
<path d="M148.11,344.15 V347.79 M145.11,344.15 H151.11 M145.11,347.79 H151.11" stroke="#d97706" stroke-opacity="0.5" fill="none"/>
<path d="M282.50,307.56 V307.64 M279.50,307.56 H285.50 M279.50,307.64 H285.50" stroke="#d97706" stroke-opacity="0.5" fill="none"/>
<path d="M416.90,268.64 V268.82 M413.90,268.64 H419.90 M413.90,268.82 H419.90" stroke="#d97706" stroke-opacity="0.5" fill="none"/>
<path d="M551.30,229.30 V230.54 M548.30,229.30 H554.30 M548.30,230.54 H554.30" stroke="#d97706" stroke-opacity="0.5" fill="none"/>
<path d="M685.70,191.13 V191.40 M682.70,191.13 H688.70 M682.70,191.40 H688.70" stroke="#d97706" stroke-opacity="0.5" fill="none"/>
<path d="M820.09,151.80 V151.98 M817.09,151.80 H823.09 M817.09,151.98 H823.09" stroke="#d97706" stroke-opacity="0.5" fill="none"/>
<path d="M949.89,114.98 V115.13 M946.89,114.98 H952.89 M946.89,115.13 H952.89" stroke="#d97706" stroke-opacity="0.5" fill="none"/>
<polyline points="148.11,347.76 282.50,307.63 416.90,268.78 551.30,230.33 685.70,191.35 820.09,151.93 949.89,115.10" fill="none" stroke="#d97706" stroke-width="2.5"/>
<circle cx="148.11" cy="347.76" r="3.8" fill="white" stroke="#d97706" stroke-width="2"/>
<circle cx="282.50" cy="307.63" r="3.8" fill="white" stroke="#d97706" stroke-width="2"/>
<circle cx="416.90" cy="268.78" r="3.8" fill="white" stroke="#d97706" stroke-width="2"/>
<circle cx="551.30" cy="230.33" r="3.8" fill="white" stroke="#d97706" stroke-width="2"/>
<circle cx="685.70" cy="191.35" r="3.8" fill="white" stroke="#d97706" stroke-width="2"/>
<circle cx="820.09" cy="151.93" r="3.8" fill="white" stroke="#d97706" stroke-width="2"/>
<circle cx="949.89" cy="115.10" r="3.8" fill="white" stroke="#d97706" stroke-width="2"/>
<polygon points="148.11,311.11 282.50,272.70 416.90,233.57 551.30,193.05 685.70,152.54 820.09,110.71 820.09,112.27 685.70,154.40 551.30,194.01 416.90,233.88 282.50,273.51 148.11,312.90" fill="#0891b2" fill-opacity="0.09"/>
<path d="M148.11,311.11 V312.90 M145.11,311.11 H151.11 M145.11,312.90 H151.11" stroke="#0891b2" stroke-opacity="0.5" fill="none"/>
<path d="M282.50,272.70 V273.51 M279.50,272.70 H285.50 M279.50,273.51 H285.50" stroke="#0891b2" stroke-opacity="0.5" fill="none"/>
<path d="M416.90,233.57 V233.88 M413.90,233.57 H419.90 M413.90,233.88 H419.90" stroke="#0891b2" stroke-opacity="0.5" fill="none"/>
<path d="M551.30,193.05 V194.01 M548.30,193.05 H554.30 M548.30,194.01 H554.30" stroke="#0891b2" stroke-opacity="0.5" fill="none"/>
<path d="M685.70,152.54 V154.40 M682.70,152.54 H688.70 M682.70,154.40 H688.70" stroke="#0891b2" stroke-opacity="0.5" fill="none"/>
<path d="M820.09,110.71 V112.27 M817.09,110.71 H823.09 M817.09,112.27 H823.09" stroke="#0891b2" stroke-opacity="0.5" fill="none"/>
<polyline points="148.11,312.48 282.50,273.08 416.90,233.68 551.30,193.56 685.70,154.30 820.09,111.83" fill="none" stroke="#0891b2" stroke-width="2.5"/>
<circle cx="148.11" cy="312.48" r="3.8" fill="white" stroke="#0891b2" stroke-width="2"/>
<circle cx="282.50" cy="273.08" r="3.8" fill="white" stroke="#0891b2" stroke-width="2"/>
<circle cx="416.90" cy="233.68" r="3.8" fill="white" stroke="#0891b2" stroke-width="2"/>
<circle cx="551.30" cy="193.56" r="3.8" fill="white" stroke="#0891b2" stroke-width="2"/>
<circle cx="685.70" cy="154.30" r="3.8" fill="white" stroke="#0891b2" stroke-width="2"/>
<circle cx="820.09" cy="111.83" r="3.8" fill="white" stroke="#0891b2" stroke-width="2"/>
<polygon points="148.11,389.24 282.50,350.32 416.90,296.75 551.30,256.29 685.70,216.93 820.09,177.38 949.89,140.21 949.89,140.95 820.09,178.40 685.70,217.21 551.30,256.45 416.90,298.09 282.50,350.45 148.11,389.29" fill="#475569" fill-opacity="0.09"/>
<path d="M148.11,389.24 V389.29 M145.11,389.24 H151.11 M145.11,389.29 H151.11" stroke="#475569" stroke-opacity="0.5" fill="none"/>
<path d="M282.50,350.32 V350.45 M279.50,350.32 H285.50 M279.50,350.45 H285.50" stroke="#475569" stroke-opacity="0.5" fill="none"/>
<path d="M416.90,296.75 V298.09 M413.90,296.75 H419.90 M413.90,298.09 H419.90" stroke="#475569" stroke-opacity="0.5" fill="none"/>
<path d="M551.30,256.29 V256.45 M548.30,256.29 H554.30 M548.30,256.45 H554.30" stroke="#475569" stroke-opacity="0.5" fill="none"/>
<path d="M685.70,216.93 V217.21 M682.70,216.93 H688.70 M682.70,217.21 H688.70" stroke="#475569" stroke-opacity="0.5" fill="none"/>
<path d="M820.09,177.38 V178.40 M817.09,177.38 H823.09 M817.09,178.40 H823.09" stroke="#475569" stroke-opacity="0.5" fill="none"/>
<path d="M949.89,140.21 V140.95 M946.89,140.21 H952.89 M946.89,140.95 H952.89" stroke="#475569" stroke-opacity="0.5" fill="none"/>
<polyline points="148.11,389.25 282.50,350.42 416.90,297.91 551.30,256.41 685.70,217.16 820.09,177.57 949.89,140.58" fill="none" stroke="#475569" stroke-width="2.5" stroke-dasharray="7 5"/>
<rect x="144.31" y="385.45" width="7.6" height="7.6" fill="white" stroke="#475569" stroke-width="2"/>
<rect x="278.70" y="346.62" width="7.6" height="7.6" fill="white" stroke="#475569" stroke-width="2"/>
<rect x="413.10" y="294.11" width="7.6" height="7.6" fill="white" stroke="#475569" stroke-width="2"/>
<rect x="547.50" y="252.61" width="7.6" height="7.6" fill="white" stroke="#475569" stroke-width="2"/>
<rect x="681.90" y="213.36" width="7.6" height="7.6" fill="white" stroke="#475569" stroke-width="2"/>
<rect x="816.29" y="173.77" width="7.6" height="7.6" fill="white" stroke="#475569" stroke-width="2"/>
<rect x="946.09" y="136.78" width="7.6" height="7.6" fill="white" stroke="#475569" stroke-width="2"/>
<line x1="42" y1="489" x2="73" y2="489" stroke="#2563eb" stroke-width="2.5"/>
<circle cx="57.00" cy="489.00" r="3.8" fill="white" stroke="#2563eb" stroke-width="2"/>
<text x="83" y="493" font-size="12">local/acl-cffi (CFFI + C++) / PyPy 3.11.13</text>
<line x1="552" y1="489" x2="583" y2="489" stroke="#dc2626" stroke-width="2.5"/>
<circle cx="567.00" cy="489.00" r="3.8" fill="white" stroke="#dc2626" stroke-width="2"/>
<text x="593" y="493" font-size="12">lif4635/harurun-s-library (library_codex) / PyPy</text>
<text x="593" y="511" font-size="12">3.11.13</text>
<line x1="42" y1="541" x2="73" y2="541" stroke="#059669" stroke-width="2.5"/>
<circle cx="57.00" cy="541.00" r="3.8" fill="white" stroke="#059669" stroke-width="2"/>
<text x="83" y="545" font-size="12">local/acl-hpy (HPy Universal + C++) / PyPy 3.11.13</text>
<line x1="552" y1="541" x2="583" y2="541" stroke="#9333ea" stroke-width="2.5"/>
<circle cx="567.00" cy="541.00" r="3.8" fill="white" stroke="#9333ea" stroke-width="2"/>
<text x="593" y="545" font-size="12">not522/ac-library-python / PyPy 3.11.13</text>
<line x1="42" y1="575" x2="73" y2="575" stroke="#d97706" stroke-width="2.5"/>
<circle cx="57.00" cy="575.00" r="3.8" fill="white" stroke="#d97706" stroke-width="2"/>
<text x="83" y="579" font-size="12">shakayami/ACL-for-python / PyPy 3.11.13</text>
<line x1="552" y1="575" x2="583" y2="575" stroke="#0891b2" stroke-width="2.5"/>
<circle cx="567.00" cy="575.00" r="3.8" fill="white" stroke="#0891b2" stroke-width="2"/>
<text x="593" y="579" font-size="12">tatyam-prime/acl-cpp-python (C++) / PyPy 3.11.13</text>
<line x1="42" y1="609" x2="73" y2="609" stroke="#475569" stroke-width="2.5" stroke-dasharray="7 5"/>
<rect x="53.20" y="605.20" width="7.6" height="7.6" fill="white" stroke="#475569" stroke-width="2"/>
<text x="83" y="613" font-size="12">C++ ACL（参考用） / C++ 17</text>
</g></svg>
