<svg xmlns="http://www.w3.org/2000/svg" width="1040" height="568" viewBox="0 0 1040 568" role="img" aria-labelledby="title desc">
<title id="title">Strongly connected components / CPython 3.11.16 benchmark</title>
<desc id="desc">Median elapsed time versus input size. Bands and whiskers show the observed minimum and maximum. X axis: log. Y axis: log. Lower is faster.</desc>
<rect width="100%" height="100%" rx="12" fill="white"/>
<g font-family="-apple-system, BlinkMacSystemFont, Segoe UI, sans-serif" fill="#0f172a">
<text x="40" y="36" font-size="23" font-weight="700">Strongly connected components / CPython 3.11.16</text>
<text x="40" y="61" font-size="13" fill="#64748b">Lower is faster · median line · observed min–max range</text>
<line x1="112.41" y1="94" x2="112.41" y2="406" stroke="#e2e8f0"/>
<text x="112.41" y="431" font-size="12" text-anchor="middle" fill="#475569">100</text>
<line x1="212.64" y1="94" x2="212.64" y2="406" stroke="#e2e8f0"/>
<text x="212.64" y="431" font-size="12" text-anchor="middle" fill="#475569">200</text>
<line x1="345.12" y1="94" x2="345.12" y2="406" stroke="#e2e8f0"/>
<text x="345.12" y="431" font-size="12" text-anchor="middle" fill="#475569">500</text>
<line x1="445.35" y1="94" x2="445.35" y2="406" stroke="#e2e8f0"/>
<text x="445.35" y="431" font-size="12" text-anchor="middle" fill="#475569">1,000</text>
<line x1="545.57" y1="94" x2="545.57" y2="406" stroke="#e2e8f0"/>
<text x="545.57" y="431" font-size="12" text-anchor="middle" fill="#475569">2,000</text>
<line x1="678.06" y1="94" x2="678.06" y2="406" stroke="#e2e8f0"/>
<text x="678.06" y="431" font-size="12" text-anchor="middle" fill="#475569">5,000</text>
<line x1="778.28" y1="94" x2="778.28" y2="406" stroke="#e2e8f0"/>
<text x="778.28" y="431" font-size="12" text-anchor="middle" fill="#475569">10,000</text>
<line x1="878.51" y1="94" x2="878.51" y2="406" stroke="#e2e8f0"/>
<text x="878.51" y="431" font-size="12" text-anchor="middle" fill="#475569">20,000</text>
<line x1="100" y1="378.27" x2="998" y2="378.27" stroke="#e2e8f0"/>
<text x="87" y="382.27" font-size="12" text-anchor="end" fill="#475569">0.05</text>
<line x1="100" y1="355.19" x2="998" y2="355.19" stroke="#e2e8f0"/>
<text x="87" y="359.19" font-size="12" text-anchor="end" fill="#475569">0.1</text>
<line x1="100" y1="332.11" x2="998" y2="332.11" stroke="#e2e8f0"/>
<text x="87" y="336.11" font-size="12" text-anchor="end" fill="#475569">0.2</text>
<line x1="100" y1="301.61" x2="998" y2="301.61" stroke="#e2e8f0"/>
<text x="87" y="305.61" font-size="12" text-anchor="end" fill="#475569">0.5</text>
<line x1="100" y1="278.53" x2="998" y2="278.53" stroke="#e2e8f0"/>
<text x="87" y="282.53" font-size="12" text-anchor="end" fill="#475569">1</text>
<line x1="100" y1="255.45" x2="998" y2="255.45" stroke="#e2e8f0"/>
<text x="87" y="259.45" font-size="12" text-anchor="end" fill="#475569">2</text>
<line x1="100" y1="224.94" x2="998" y2="224.94" stroke="#e2e8f0"/>
<text x="87" y="228.94" font-size="12" text-anchor="end" fill="#475569">5</text>
<line x1="100" y1="201.86" x2="998" y2="201.86" stroke="#e2e8f0"/>
<text x="87" y="205.86" font-size="12" text-anchor="end" fill="#475569">10</text>
<line x1="100" y1="178.79" x2="998" y2="178.79" stroke="#e2e8f0"/>
<text x="87" y="182.79" font-size="12" text-anchor="end" fill="#475569">20</text>
<line x1="100" y1="148.28" x2="998" y2="148.28" stroke="#e2e8f0"/>
<text x="87" y="152.28" font-size="12" text-anchor="end" fill="#475569">50</text>
<line x1="100" y1="125.20" x2="998" y2="125.20" stroke="#e2e8f0"/>
<text x="87" y="129.20" font-size="12" text-anchor="end" fill="#475569">100</text>
<line x1="100" y1="102.12" x2="998" y2="102.12" stroke="#e2e8f0"/>
<text x="87" y="106.12" font-size="12" text-anchor="end" fill="#475569">200</text>
<path d="M100 94 V406 H998" fill="none" stroke="#94a3b8"/>
<text x="549" y="461" font-size="14" text-anchor="middle">Input size n (log scale)</text>
<text transform="translate(25 250) rotate(-90)" font-size="14" text-anchor="middle">Elapsed time [ms] (log scale)</text>
<polygon points="148.11,310.38 348.55,264.25 549.00,216.82 749.45,168.61 949.89,110.71 949.89,117.33 749.45,169.09 549.00,217.20 348.55,265.18 148.11,311.27" fill="#2563eb" fill-opacity="0.09"/>
<path d="M148.11,310.38 V311.27 M145.11,310.38 H151.11 M145.11,311.27 H151.11" stroke="#2563eb" stroke-opacity="0.5" fill="none"/>
<path d="M348.55,264.25 V265.18 M345.55,264.25 H351.55 M345.55,265.18 H351.55" stroke="#2563eb" stroke-opacity="0.5" fill="none"/>
<path d="M549.00,216.82 V217.20 M546.00,216.82 H552.00 M546.00,217.20 H552.00" stroke="#2563eb" stroke-opacity="0.5" fill="none"/>
<path d="M749.45,168.61 V169.09 M746.45,168.61 H752.45 M746.45,169.09 H752.45" stroke="#2563eb" stroke-opacity="0.5" fill="none"/>
<path d="M949.89,110.71 V117.33 M946.89,110.71 H952.89 M946.89,117.33 H952.89" stroke="#2563eb" stroke-opacity="0.5" fill="none"/>
<polyline points="148.11,311.07 348.55,265.10 549.00,217.01 749.45,168.97 949.89,116.52" fill="none" stroke="#2563eb" stroke-width="2.5"/>
<circle cx="148.11" cy="311.07" r="3.8" fill="white" stroke="#2563eb" stroke-width="2"/>
<circle cx="348.55" cy="265.10" r="3.8" fill="white" stroke="#2563eb" stroke-width="2"/>
<circle cx="549.00" cy="217.01" r="3.8" fill="white" stroke="#2563eb" stroke-width="2"/>
<circle cx="749.45" cy="168.97" r="3.8" fill="white" stroke="#2563eb" stroke-width="2"/>
<circle cx="949.89" cy="116.52" r="3.8" fill="white" stroke="#2563eb" stroke-width="2"/>
<polygon points="148.11,331.09 348.55,282.67 549.00,234.61 749.45,185.11 949.89,129.71 949.89,131.99 749.45,186.50 549.00,235.86 348.55,284.15 148.11,331.61" fill="#dc2626" fill-opacity="0.09"/>
<path d="M148.11,331.09 V331.61 M145.11,331.09 H151.11 M145.11,331.61 H151.11" stroke="#dc2626" stroke-opacity="0.5" fill="none"/>
<path d="M348.55,282.67 V284.15 M345.55,282.67 H351.55 M345.55,284.15 H351.55" stroke="#dc2626" stroke-opacity="0.5" fill="none"/>
<path d="M549.00,234.61 V235.86 M546.00,234.61 H552.00 M546.00,235.86 H552.00" stroke="#dc2626" stroke-opacity="0.5" fill="none"/>
<path d="M749.45,185.11 V186.50 M746.45,185.11 H752.45 M746.45,186.50 H752.45" stroke="#dc2626" stroke-opacity="0.5" fill="none"/>
<path d="M949.89,129.71 V131.99 M946.89,129.71 H952.89 M946.89,131.99 H952.89" stroke="#dc2626" stroke-opacity="0.5" fill="none"/>
<polyline points="148.11,331.17 348.55,283.94 549.00,235.82 749.45,186.00 949.89,131.15" fill="none" stroke="#dc2626" stroke-width="2.5"/>
<circle cx="148.11" cy="331.17" r="3.8" fill="white" stroke="#dc2626" stroke-width="2"/>
<circle cx="348.55" cy="283.94" r="3.8" fill="white" stroke="#dc2626" stroke-width="2"/>
<circle cx="549.00" cy="235.82" r="3.8" fill="white" stroke="#dc2626" stroke-width="2"/>
<circle cx="749.45" cy="186.00" r="3.8" fill="white" stroke="#dc2626" stroke-width="2"/>
<circle cx="949.89" cy="131.15" r="3.8" fill="white" stroke="#dc2626" stroke-width="2"/>
<polygon points="148.11,388.78 348.55,340.33 549.00,290.37 749.45,241.10 949.89,192.07 949.89,192.57 749.45,241.64 549.00,291.87 348.55,340.53 148.11,389.29" fill="#059669" fill-opacity="0.09"/>
<path d="M148.11,388.78 V389.29 M145.11,388.78 H151.11 M145.11,389.29 H151.11" stroke="#059669" stroke-opacity="0.5" fill="none"/>
<path d="M348.55,340.33 V340.53 M345.55,340.33 H351.55 M345.55,340.53 H351.55" stroke="#059669" stroke-opacity="0.5" fill="none"/>
<path d="M549.00,290.37 V291.87 M546.00,290.37 H552.00 M546.00,291.87 H552.00" stroke="#059669" stroke-opacity="0.5" fill="none"/>
<path d="M749.45,241.10 V241.64 M746.45,241.10 H752.45 M746.45,241.64 H752.45" stroke="#059669" stroke-opacity="0.5" fill="none"/>
<path d="M949.89,192.07 V192.57 M946.89,192.07 H952.89 M946.89,192.57 H952.89" stroke="#059669" stroke-opacity="0.5" fill="none"/>
<polyline points="148.11,389.05 348.55,340.43 549.00,291.61 749.45,241.39 949.89,192.48" fill="none" stroke="#059669" stroke-width="2.5"/>
<circle cx="148.11" cy="389.05" r="3.8" fill="white" stroke="#059669" stroke-width="2"/>
<circle cx="348.55" cy="340.43" r="3.8" fill="white" stroke="#059669" stroke-width="2"/>
<circle cx="549.00" cy="291.61" r="3.8" fill="white" stroke="#059669" stroke-width="2"/>
<circle cx="749.45" cy="241.39" r="3.8" fill="white" stroke="#059669" stroke-width="2"/>
<circle cx="949.89" cy="192.48" r="3.8" fill="white" stroke="#059669" stroke-width="2"/>
<line x1="42" y1="489" x2="73" y2="489" stroke="#2563eb" stroke-width="2.5"/>
<circle cx="57.00" cy="489.00" r="3.8" fill="white" stroke="#2563eb" stroke-width="2"/>
<text x="83" y="493" font-size="12">not522/ac-library-python / CPython 3.11.16</text>
<line x1="552" y1="489" x2="583" y2="489" stroke="#dc2626" stroke-width="2.5"/>
<circle cx="567.00" cy="489.00" r="3.8" fill="white" stroke="#dc2626" stroke-width="2"/>
<text x="593" y="493" font-size="12">shakayami/ACL-for-python / CPython 3.11.16</text>
<line x1="42" y1="523" x2="73" y2="523" stroke="#059669" stroke-width="2.5"/>
<circle cx="57.00" cy="523.00" r="3.8" fill="white" stroke="#059669" stroke-width="2"/>
<text x="83" y="527" font-size="12">tatyam-prime/acl-cpp-python (C++) / CPython 3.11.16</text>
</g></svg>
