<svg xmlns="http://www.w3.org/2000/svg" width="1040" height="688" viewBox="0 0 1040 688" role="img" aria-labelledby="title desc">
<title id="title">Strongly connected components / PyPy 3.11.13 benchmark</title>
<desc id="desc">Median elapsed time versus input size. Bands and whiskers show the observed minimum and maximum. X axis: log. Y axis: log. Lower is faster.</desc>
<rect width="100%" height="100%" rx="12" fill="white"/>
<g font-family="-apple-system, BlinkMacSystemFont, Segoe UI, sans-serif" fill="#0f172a">
<text x="40" y="36" font-size="23" font-weight="700">Strongly connected components / PyPy 3.11.13</text>
<text x="40" y="61" font-size="13" fill="#64748b">Lower is faster · median line · observed min–max range</text>
<text x="40" y="81" font-size="11" fill="#475569">参考用：C++単体の実行時間（Pythonとの値変換・プロセス起動・入出力を除外）。</text>
<line x1="124.17" y1="94" x2="124.17" y2="406" stroke="#e2e8f0"/>
<text x="124.17" y="431" font-size="12" text-anchor="middle" fill="#475569">100</text>
<line x1="191.37" y1="94" x2="191.37" y2="406" stroke="#e2e8f0"/>
<text x="191.37" y="431" font-size="12" text-anchor="middle" fill="#475569">200</text>
<line x1="280.21" y1="94" x2="280.21" y2="406" stroke="#e2e8f0"/>
<text x="280.21" y="431" font-size="12" text-anchor="middle" fill="#475569">500</text>
<line x1="347.40" y1="94" x2="347.40" y2="406" stroke="#e2e8f0"/>
<text x="347.40" y="431" font-size="12" text-anchor="middle" fill="#475569">1,000</text>
<line x1="414.60" y1="94" x2="414.60" y2="406" stroke="#e2e8f0"/>
<text x="414.60" y="431" font-size="12" text-anchor="middle" fill="#475569">2,000</text>
<line x1="503.43" y1="94" x2="503.43" y2="406" stroke="#e2e8f0"/>
<text x="503.43" y="431" font-size="12" text-anchor="middle" fill="#475569">5,000</text>
<line x1="570.63" y1="94" x2="570.63" y2="406" stroke="#e2e8f0"/>
<text x="570.63" y="431" font-size="12" text-anchor="middle" fill="#475569">10,000</text>
<line x1="637.83" y1="94" x2="637.83" y2="406" stroke="#e2e8f0"/>
<text x="637.83" y="431" font-size="12" text-anchor="middle" fill="#475569">20,000</text>
<line x1="726.66" y1="94" x2="726.66" y2="406" stroke="#e2e8f0"/>
<text x="726.66" y="431" font-size="12" text-anchor="middle" fill="#475569">50,000</text>
<line x1="793.86" y1="94" x2="793.86" y2="406" stroke="#e2e8f0"/>
<text x="793.86" y="431" font-size="12" text-anchor="middle" fill="#475569">100,000</text>
<line x1="861.06" y1="94" x2="861.06" y2="406" stroke="#e2e8f0"/>
<text x="861.06" y="431" font-size="12" text-anchor="middle" fill="#475569">200,000</text>
<line x1="949.89" y1="94" x2="949.89" y2="406" stroke="#e2e8f0"/>
<text x="949.89" y="431" font-size="12" text-anchor="middle" fill="#475569">500,000</text>
<line x1="100" y1="372.40" x2="998" y2="372.40" stroke="#e2e8f0"/>
<text x="87" y="376.40" font-size="12" text-anchor="end" fill="#475569">1e-05</text>
<line x1="100" y1="323.57" x2="998" y2="323.57" stroke="#e2e8f0"/>
<text x="87" y="327.57" font-size="12" text-anchor="end" fill="#475569">0.0001</text>
<line x1="100" y1="274.75" x2="998" y2="274.75" stroke="#e2e8f0"/>
<text x="87" y="278.75" font-size="12" text-anchor="end" fill="#475569">0.001</text>
<line x1="100" y1="225.93" x2="998" y2="225.93" stroke="#e2e8f0"/>
<text x="87" y="229.93" font-size="12" text-anchor="end" fill="#475569">0.01</text>
<line x1="100" y1="177.10" x2="998" y2="177.10" stroke="#e2e8f0"/>
<text x="87" y="181.10" font-size="12" text-anchor="end" fill="#475569">0.1</text>
<line x1="100" y1="128.28" x2="998" y2="128.28" stroke="#e2e8f0"/>
<text x="87" y="132.28" font-size="12" text-anchor="end" fill="#475569">1</text>
<path d="M100 94 V406 H998" fill="none" stroke="#94a3b8"/>
<text x="549" y="461" font-size="14" text-anchor="middle">Input size n (log scale)</text>
<text transform="translate(25 250) rotate(-90)" font-size="14" text-anchor="middle">Elapsed time [s] (log scale)</text>
<polygon points="148.11,362.55 282.50,328.64 416.90,298.18 551.30,264.91 685.70,232.11 820.09,198.35 949.89,163.50 949.89,167.36 820.09,199.58 685.70,232.81 551.30,265.58 416.90,298.42 282.50,331.65 148.11,366.48" fill="#2563eb" fill-opacity="0.09"/>
<path d="M148.11,362.55 V366.48 M145.11,362.55 H151.11 M145.11,366.48 H151.11" stroke="#2563eb" stroke-opacity="0.5" fill="none"/>
<path d="M282.50,328.64 V331.65 M279.50,328.64 H285.50 M279.50,331.65 H285.50" stroke="#2563eb" stroke-opacity="0.5" fill="none"/>
<path d="M416.90,298.18 V298.42 M413.90,298.18 H419.90 M413.90,298.42 H419.90" stroke="#2563eb" stroke-opacity="0.5" fill="none"/>
<path d="M551.30,264.91 V265.58 M548.30,264.91 H554.30 M548.30,265.58 H554.30" stroke="#2563eb" stroke-opacity="0.5" fill="none"/>
<path d="M685.70,232.11 V232.81 M682.70,232.11 H688.70 M682.70,232.81 H688.70" stroke="#2563eb" stroke-opacity="0.5" fill="none"/>
<path d="M820.09,198.35 V199.58 M817.09,198.35 H823.09 M817.09,199.58 H823.09" stroke="#2563eb" stroke-opacity="0.5" fill="none"/>
<path d="M949.89,163.50 V167.36 M946.89,163.50 H952.89 M946.89,167.36 H952.89" stroke="#2563eb" stroke-opacity="0.5" fill="none"/>
<polyline points="148.11,366.29 282.50,329.99 416.90,298.39 551.30,265.38 685.70,232.65 820.09,198.87 949.89,167.09" fill="none" stroke="#2563eb" stroke-width="2.5"/>
<circle cx="148.11" cy="366.29" r="3.8" fill="white" stroke="#2563eb" stroke-width="2"/>
<circle cx="282.50" cy="329.99" r="3.8" fill="white" stroke="#2563eb" stroke-width="2"/>
<circle cx="416.90" cy="298.39" r="3.8" fill="white" stroke="#2563eb" stroke-width="2"/>
<circle cx="551.30" cy="265.38" r="3.8" fill="white" stroke="#2563eb" stroke-width="2"/>
<circle cx="685.70" cy="232.65" r="3.8" fill="white" stroke="#2563eb" stroke-width="2"/>
<circle cx="820.09" cy="198.87" r="3.8" fill="white" stroke="#2563eb" stroke-width="2"/>
<circle cx="949.89" cy="167.09" r="3.8" fill="white" stroke="#2563eb" stroke-width="2"/>
<polygon points="148.11,343.34 282.50,310.81 416.90,279.79 551.30,250.21 685.70,218.06 820.09,188.08 949.89,157.74 949.89,158.20 820.09,188.84 685.70,219.68 551.30,250.39 416.90,281.61 282.50,312.03 148.11,344.16" fill="#dc2626" fill-opacity="0.09"/>
<path d="M148.11,343.34 V344.16 M145.11,343.34 H151.11 M145.11,344.16 H151.11" stroke="#dc2626" stroke-opacity="0.5" fill="none"/>
<path d="M282.50,310.81 V312.03 M279.50,310.81 H285.50 M279.50,312.03 H285.50" stroke="#dc2626" stroke-opacity="0.5" fill="none"/>
<path d="M416.90,279.79 V281.61 M413.90,279.79 H419.90 M413.90,281.61 H419.90" stroke="#dc2626" stroke-opacity="0.5" fill="none"/>
<path d="M551.30,250.21 V250.39 M548.30,250.21 H554.30 M548.30,250.39 H554.30" stroke="#dc2626" stroke-opacity="0.5" fill="none"/>
<path d="M685.70,218.06 V219.68 M682.70,218.06 H688.70 M682.70,219.68 H688.70" stroke="#dc2626" stroke-opacity="0.5" fill="none"/>
<path d="M820.09,188.08 V188.84 M817.09,188.08 H823.09 M817.09,188.84 H823.09" stroke="#dc2626" stroke-opacity="0.5" fill="none"/>
<path d="M949.89,157.74 V158.20 M946.89,157.74 H952.89 M946.89,158.20 H952.89" stroke="#dc2626" stroke-opacity="0.5" fill="none"/>
<polyline points="148.11,344.07 282.50,311.51 416.90,281.40 551.30,250.31 685.70,219.50 820.09,188.46 949.89,157.90" fill="none" stroke="#dc2626" stroke-width="2.5"/>
<circle cx="148.11" cy="344.07" r="3.8" fill="white" stroke="#dc2626" stroke-width="2"/>
<circle cx="282.50" cy="311.51" r="3.8" fill="white" stroke="#dc2626" stroke-width="2"/>
<circle cx="416.90" cy="281.40" r="3.8" fill="white" stroke="#dc2626" stroke-width="2"/>
<circle cx="551.30" cy="250.31" r="3.8" fill="white" stroke="#dc2626" stroke-width="2"/>
<circle cx="685.70" cy="219.50" r="3.8" fill="white" stroke="#dc2626" stroke-width="2"/>
<circle cx="820.09" cy="188.46" r="3.8" fill="white" stroke="#dc2626" stroke-width="2"/>
<circle cx="949.89" cy="157.90" r="3.8" fill="white" stroke="#dc2626" stroke-width="2"/>
<polygon points="148.11,350.39 282.50,312.70 416.90,265.78 551.30,236.89 685.70,201.14 820.09,144.16 949.89,110.71 949.89,116.06 820.09,145.88 685.70,205.83 551.30,238.92 416.90,272.33 282.50,314.14 148.11,353.09" fill="#059669" fill-opacity="0.09"/>
<path d="M148.11,350.39 V353.09 M145.11,350.39 H151.11 M145.11,353.09 H151.11" stroke="#059669" stroke-opacity="0.5" fill="none"/>
<path d="M282.50,312.70 V314.14 M279.50,312.70 H285.50 M279.50,314.14 H285.50" stroke="#059669" stroke-opacity="0.5" fill="none"/>
<path d="M416.90,265.78 V272.33 M413.90,265.78 H419.90 M413.90,272.33 H419.90" stroke="#059669" stroke-opacity="0.5" fill="none"/>
<path d="M551.30,236.89 V238.92 M548.30,236.89 H554.30 M548.30,238.92 H554.30" stroke="#059669" stroke-opacity="0.5" fill="none"/>
<path d="M685.70,201.14 V205.83 M682.70,201.14 H688.70 M682.70,205.83 H688.70" stroke="#059669" stroke-opacity="0.5" fill="none"/>
<path d="M820.09,144.16 V145.88 M817.09,144.16 H823.09 M817.09,145.88 H823.09" stroke="#059669" stroke-opacity="0.5" fill="none"/>
<path d="M949.89,110.71 V116.06 M946.89,110.71 H952.89 M946.89,116.06 H952.89" stroke="#059669" stroke-opacity="0.5" fill="none"/>
<polyline points="148.11,353.02 282.50,313.74 416.90,271.71 551.30,238.37 685.70,205.16 820.09,145.42 949.89,111.37" fill="none" stroke="#059669" stroke-width="2.5"/>
<circle cx="148.11" cy="353.02" r="3.8" fill="white" stroke="#059669" stroke-width="2"/>
<circle cx="282.50" cy="313.74" r="3.8" fill="white" stroke="#059669" stroke-width="2"/>
<circle cx="416.90" cy="271.71" r="3.8" fill="white" stroke="#059669" stroke-width="2"/>
<circle cx="551.30" cy="238.37" r="3.8" fill="white" stroke="#059669" stroke-width="2"/>
<circle cx="685.70" cy="205.16" r="3.8" fill="white" stroke="#059669" stroke-width="2"/>
<circle cx="820.09" cy="145.42" r="3.8" fill="white" stroke="#059669" stroke-width="2"/>
<circle cx="949.89" cy="111.37" r="3.8" fill="white" stroke="#059669" stroke-width="2"/>
<polygon points="148.11,347.78 282.50,310.61 416.90,271.50 551.30,236.80 685.70,203.31 820.09,142.56 949.89,113.68 949.89,116.10 820.09,154.48 685.70,205.14 551.30,238.47 416.90,272.63 282.50,311.33 148.11,349.96" fill="#9333ea" fill-opacity="0.09"/>
<path d="M148.11,347.78 V349.96 M145.11,347.78 H151.11 M145.11,349.96 H151.11" stroke="#9333ea" stroke-opacity="0.5" fill="none"/>
<path d="M282.50,310.61 V311.33 M279.50,310.61 H285.50 M279.50,311.33 H285.50" stroke="#9333ea" stroke-opacity="0.5" fill="none"/>
<path d="M416.90,271.50 V272.63 M413.90,271.50 H419.90 M413.90,272.63 H419.90" stroke="#9333ea" stroke-opacity="0.5" fill="none"/>
<path d="M551.30,236.80 V238.47 M548.30,236.80 H554.30 M548.30,238.47 H554.30" stroke="#9333ea" stroke-opacity="0.5" fill="none"/>
<path d="M685.70,203.31 V205.14 M682.70,203.31 H688.70 M682.70,205.14 H688.70" stroke="#9333ea" stroke-opacity="0.5" fill="none"/>
<path d="M820.09,142.56 V154.48 M817.09,142.56 H823.09 M817.09,154.48 H823.09" stroke="#9333ea" stroke-opacity="0.5" fill="none"/>
<path d="M949.89,113.68 V116.10 M946.89,113.68 H952.89 M946.89,116.10 H952.89" stroke="#9333ea" stroke-opacity="0.5" fill="none"/>
<polyline points="148.11,349.87 282.50,311.00 416.90,272.16 551.30,238.14 685.70,204.78 820.09,150.46 949.89,115.22" fill="none" stroke="#9333ea" stroke-width="2.5"/>
<circle cx="148.11" cy="349.87" r="3.8" fill="white" stroke="#9333ea" stroke-width="2"/>
<circle cx="282.50" cy="311.00" r="3.8" fill="white" stroke="#9333ea" stroke-width="2"/>
<circle cx="416.90" cy="272.16" r="3.8" fill="white" stroke="#9333ea" stroke-width="2"/>
<circle cx="551.30" cy="238.14" r="3.8" fill="white" stroke="#9333ea" stroke-width="2"/>
<circle cx="685.70" cy="204.78" r="3.8" fill="white" stroke="#9333ea" stroke-width="2"/>
<circle cx="820.09" cy="150.46" r="3.8" fill="white" stroke="#9333ea" stroke-width="2"/>
<circle cx="949.89" cy="115.22" r="3.8" fill="white" stroke="#9333ea" stroke-width="2"/>
<polygon points="148.11,328.00 282.50,298.48 416.90,268.83 551.30,239.89 685.70,208.36 820.09,178.41 949.89,149.76 949.89,150.49 820.09,179.31 685.70,210.69 551.30,240.15 416.90,269.94 282.50,300.01 148.11,331.04" fill="#d97706" fill-opacity="0.09"/>
<path d="M148.11,328.00 V331.04 M145.11,328.00 H151.11 M145.11,331.04 H151.11" stroke="#d97706" stroke-opacity="0.5" fill="none"/>
<path d="M282.50,298.48 V300.01 M279.50,298.48 H285.50 M279.50,300.01 H285.50" stroke="#d97706" stroke-opacity="0.5" fill="none"/>
<path d="M416.90,268.83 V269.94 M413.90,268.83 H419.90 M413.90,269.94 H419.90" stroke="#d97706" stroke-opacity="0.5" fill="none"/>
<path d="M551.30,239.89 V240.15 M548.30,239.89 H554.30 M548.30,240.15 H554.30" stroke="#d97706" stroke-opacity="0.5" fill="none"/>
<path d="M685.70,208.36 V210.69 M682.70,208.36 H688.70 M682.70,210.69 H688.70" stroke="#d97706" stroke-opacity="0.5" fill="none"/>
<path d="M820.09,178.41 V179.31 M817.09,178.41 H823.09 M817.09,179.31 H823.09" stroke="#d97706" stroke-opacity="0.5" fill="none"/>
<path d="M949.89,149.76 V150.49 M946.89,149.76 H952.89 M946.89,150.49 H952.89" stroke="#d97706" stroke-opacity="0.5" fill="none"/>
<polyline points="148.11,330.96 282.50,299.55 416.90,269.05 551.30,240.06 685.70,209.60 820.09,178.50 949.89,150.06" fill="none" stroke="#d97706" stroke-width="2.5"/>
<circle cx="148.11" cy="330.96" r="3.8" fill="white" stroke="#d97706" stroke-width="2"/>
<circle cx="282.50" cy="299.55" r="3.8" fill="white" stroke="#d97706" stroke-width="2"/>
<circle cx="416.90" cy="269.05" r="3.8" fill="white" stroke="#d97706" stroke-width="2"/>
<circle cx="551.30" cy="240.06" r="3.8" fill="white" stroke="#d97706" stroke-width="2"/>
<circle cx="685.70" cy="209.60" r="3.8" fill="white" stroke="#d97706" stroke-width="2"/>
<circle cx="820.09" cy="178.50" r="3.8" fill="white" stroke="#d97706" stroke-width="2"/>
<circle cx="949.89" cy="150.06" r="3.8" fill="white" stroke="#d97706" stroke-width="2"/>
<polygon points="148.11,355.86 282.50,306.99 416.90,258.91 551.30,228.34 685.70,208.05 820.09,175.73 949.89,150.82 949.89,151.75 820.09,179.71 685.70,214.87 551.30,244.36 416.90,271.59 282.50,322.27 148.11,359.54" fill="#0891b2" fill-opacity="0.09"/>
<path d="M148.11,355.86 V359.54 M145.11,355.86 H151.11 M145.11,359.54 H151.11" stroke="#0891b2" stroke-opacity="0.5" fill="none"/>
<path d="M282.50,306.99 V322.27 M279.50,306.99 H285.50 M279.50,322.27 H285.50" stroke="#0891b2" stroke-opacity="0.5" fill="none"/>
<path d="M416.90,258.91 V271.59 M413.90,258.91 H419.90 M413.90,271.59 H419.90" stroke="#0891b2" stroke-opacity="0.5" fill="none"/>
<path d="M551.30,228.34 V244.36 M548.30,228.34 H554.30 M548.30,244.36 H554.30" stroke="#0891b2" stroke-opacity="0.5" fill="none"/>
<path d="M685.70,208.05 V214.87 M682.70,208.05 H688.70 M682.70,214.87 H688.70" stroke="#0891b2" stroke-opacity="0.5" fill="none"/>
<path d="M820.09,175.73 V179.71 M817.09,175.73 H823.09 M817.09,179.71 H823.09" stroke="#0891b2" stroke-opacity="0.5" fill="none"/>
<path d="M949.89,150.82 V151.75 M946.89,150.82 H952.89 M946.89,151.75 H952.89" stroke="#0891b2" stroke-opacity="0.5" fill="none"/>
<polyline points="148.11,358.68 282.50,320.73 416.90,271.05 551.30,239.16 685.70,211.85 820.09,176.50 949.89,151.36" fill="none" stroke="#0891b2" stroke-width="2.5"/>
<circle cx="148.11" cy="358.68" r="3.8" fill="white" stroke="#0891b2" stroke-width="2"/>
<circle cx="282.50" cy="320.73" r="3.8" fill="white" stroke="#0891b2" stroke-width="2"/>
<circle cx="416.90" cy="271.05" r="3.8" fill="white" stroke="#0891b2" stroke-width="2"/>
<circle cx="551.30" cy="239.16" r="3.8" fill="white" stroke="#0891b2" stroke-width="2"/>
<circle cx="685.70" cy="211.85" r="3.8" fill="white" stroke="#0891b2" stroke-width="2"/>
<circle cx="820.09" cy="176.50" r="3.8" fill="white" stroke="#0891b2" stroke-width="2"/>
<circle cx="949.89" cy="151.36" r="3.8" fill="white" stroke="#0891b2" stroke-width="2"/>
<polygon points="148.11,365.64 282.50,333.02 416.90,297.74 551.30,263.25 685.70,230.83 820.09,196.86 949.89,158.51 949.89,162.71 820.09,197.37 685.70,231.10 551.30,263.52 416.90,299.30 282.50,335.85 148.11,369.04" fill="#db2777" fill-opacity="0.09"/>
<path d="M148.11,365.64 V369.04 M145.11,365.64 H151.11 M145.11,369.04 H151.11" stroke="#db2777" stroke-opacity="0.5" fill="none"/>
<path d="M282.50,333.02 V335.85 M279.50,333.02 H285.50 M279.50,335.85 H285.50" stroke="#db2777" stroke-opacity="0.5" fill="none"/>
<path d="M416.90,297.74 V299.30 M413.90,297.74 H419.90 M413.90,299.30 H419.90" stroke="#db2777" stroke-opacity="0.5" fill="none"/>
<path d="M551.30,263.25 V263.52 M548.30,263.25 H554.30 M548.30,263.52 H554.30" stroke="#db2777" stroke-opacity="0.5" fill="none"/>
<path d="M685.70,230.83 V231.10 M682.70,230.83 H688.70 M682.70,231.10 H688.70" stroke="#db2777" stroke-opacity="0.5" fill="none"/>
<path d="M820.09,196.86 V197.37 M817.09,196.86 H823.09 M817.09,197.37 H823.09" stroke="#db2777" stroke-opacity="0.5" fill="none"/>
<path d="M949.89,158.51 V162.71 M946.89,158.51 H952.89 M946.89,162.71 H952.89" stroke="#db2777" stroke-opacity="0.5" fill="none"/>
<polyline points="148.11,369.01 282.50,334.54 416.90,298.65 551.30,263.33 685.70,231.00 820.09,197.20 949.89,161.55" fill="none" stroke="#db2777" stroke-width="2.5"/>
<circle cx="148.11" cy="369.01" r="3.8" fill="white" stroke="#db2777" stroke-width="2"/>
<circle cx="282.50" cy="334.54" r="3.8" fill="white" stroke="#db2777" stroke-width="2"/>
<circle cx="416.90" cy="298.65" r="3.8" fill="white" stroke="#db2777" stroke-width="2"/>
<circle cx="551.30" cy="263.33" r="3.8" fill="white" stroke="#db2777" stroke-width="2"/>
<circle cx="685.70" cy="231.00" r="3.8" fill="white" stroke="#db2777" stroke-width="2"/>
<circle cx="820.09" cy="197.20" r="3.8" fill="white" stroke="#db2777" stroke-width="2"/>
<circle cx="949.89" cy="161.55" r="3.8" fill="white" stroke="#db2777" stroke-width="2"/>
<polygon points="148.11,290.07 282.50,261.23 416.90,231.81 551.30,203.22 685.70,171.70 820.09,142.25 949.89,113.60 949.89,113.96 820.09,143.63 685.70,173.13 551.30,203.85 416.90,232.35 282.50,261.91 148.11,291.65" fill="#475569" fill-opacity="0.09"/>
<path d="M148.11,290.07 V291.65 M145.11,290.07 H151.11 M145.11,291.65 H151.11" stroke="#475569" stroke-opacity="0.5" fill="none"/>
<path d="M282.50,261.23 V261.91 M279.50,261.23 H285.50 M279.50,261.91 H285.50" stroke="#475569" stroke-opacity="0.5" fill="none"/>
<path d="M416.90,231.81 V232.35 M413.90,231.81 H419.90 M413.90,232.35 H419.90" stroke="#475569" stroke-opacity="0.5" fill="none"/>
<path d="M551.30,203.22 V203.85 M548.30,203.22 H554.30 M548.30,203.85 H554.30" stroke="#475569" stroke-opacity="0.5" fill="none"/>
<path d="M685.70,171.70 V173.13 M682.70,171.70 H688.70 M682.70,173.13 H688.70" stroke="#475569" stroke-opacity="0.5" fill="none"/>
<path d="M820.09,142.25 V143.63 M817.09,142.25 H823.09 M817.09,143.63 H823.09" stroke="#475569" stroke-opacity="0.5" fill="none"/>
<path d="M949.89,113.60 V113.96 M946.89,113.60 H952.89 M946.89,113.96 H952.89" stroke="#475569" stroke-opacity="0.5" fill="none"/>
<polyline points="148.11,291.41 282.50,261.67 416.90,232.27 551.30,203.42 685.70,172.96 820.09,143.10 949.89,113.70" fill="none" stroke="#475569" stroke-width="2.5"/>
<circle cx="148.11" cy="291.41" r="3.8" fill="white" stroke="#475569" stroke-width="2"/>
<circle cx="282.50" cy="261.67" r="3.8" fill="white" stroke="#475569" stroke-width="2"/>
<circle cx="416.90" cy="232.27" r="3.8" fill="white" stroke="#475569" stroke-width="2"/>
<circle cx="551.30" cy="203.42" r="3.8" fill="white" stroke="#475569" stroke-width="2"/>
<circle cx="685.70" cy="172.96" r="3.8" fill="white" stroke="#475569" stroke-width="2"/>
<circle cx="820.09" cy="143.10" r="3.8" fill="white" stroke="#475569" stroke-width="2"/>
<circle cx="949.89" cy="113.70" r="3.8" fill="white" stroke="#475569" stroke-width="2"/>
<polygon points="148.11,388.08 282.50,357.57 416.90,325.94 551.30,291.65 685.70,253.66 820.09,219.07 949.89,178.10 949.89,183.36 820.09,226.03 685.70,256.90 551.30,295.55 416.90,327.53 282.50,358.60 148.11,389.29" fill="#475569" fill-opacity="0.09"/>
<path d="M148.11,388.08 V389.29 M145.11,388.08 H151.11 M145.11,389.29 H151.11" stroke="#475569" stroke-opacity="0.5" fill="none"/>
<path d="M282.50,357.57 V358.60 M279.50,357.57 H285.50 M279.50,358.60 H285.50" stroke="#475569" stroke-opacity="0.5" fill="none"/>
<path d="M416.90,325.94 V327.53 M413.90,325.94 H419.90 M413.90,327.53 H419.90" stroke="#475569" stroke-opacity="0.5" fill="none"/>
<path d="M551.30,291.65 V295.55 M548.30,291.65 H554.30 M548.30,295.55 H554.30" stroke="#475569" stroke-opacity="0.5" fill="none"/>
<path d="M685.70,253.66 V256.90 M682.70,253.66 H688.70 M682.70,256.90 H688.70" stroke="#475569" stroke-opacity="0.5" fill="none"/>
<path d="M820.09,219.07 V226.03 M817.09,219.07 H823.09 M817.09,226.03 H823.09" stroke="#475569" stroke-opacity="0.5" fill="none"/>
<path d="M949.89,178.10 V183.36 M946.89,178.10 H952.89 M946.89,183.36 H952.89" stroke="#475569" stroke-opacity="0.5" fill="none"/>
<polyline points="148.11,388.92 282.50,358.31 416.90,326.96 551.30,294.80 685.70,254.56 820.09,222.93 949.89,180.51" fill="none" stroke="#475569" stroke-width="2.5" stroke-dasharray="7 5"/>
<rect x="144.31" y="385.12" width="7.6" height="7.6" fill="white" stroke="#475569" stroke-width="2"/>
<rect x="278.70" y="354.51" width="7.6" height="7.6" fill="white" stroke="#475569" stroke-width="2"/>
<rect x="413.10" y="323.16" width="7.6" height="7.6" fill="white" stroke="#475569" stroke-width="2"/>
<rect x="547.50" y="291.00" width="7.6" height="7.6" fill="white" stroke="#475569" stroke-width="2"/>
<rect x="681.90" y="250.76" width="7.6" height="7.6" fill="white" stroke="#475569" stroke-width="2"/>
<rect x="816.29" y="219.13" width="7.6" height="7.6" fill="white" stroke="#475569" stroke-width="2"/>
<rect x="946.09" y="176.71" width="7.6" height="7.6" fill="white" stroke="#475569" stroke-width="2"/>
<line x1="42" y1="489" x2="73" y2="489" stroke="#2563eb" stroke-width="2.5"/>
<circle cx="57.00" cy="489.00" r="3.8" fill="white" stroke="#2563eb" stroke-width="2"/>
<text x="83" y="493" font-size="12">local/acl-cffi (CFFI + C++) / PyPy 3.11.13</text>
<line x1="552" y1="489" x2="583" y2="489" stroke="#dc2626" stroke-width="2.5"/>
<circle cx="567.00" cy="489.00" r="3.8" fill="white" stroke="#dc2626" stroke-width="2"/>
<text x="593" y="493" font-size="12">local/acl-cffi (batched edges) / PyPy 3.11.13</text>
<line x1="42" y1="523" x2="73" y2="523" stroke="#059669" stroke-width="2.5"/>
<circle cx="57.00" cy="523.00" r="3.8" fill="white" stroke="#059669" stroke-width="2"/>
<text x="83" y="527" font-size="12">lif4635/harurun-s-library (library_codex) / PyPy</text>
<text x="83" y="545" font-size="12">3.11.13</text>
<line x1="552" y1="523" x2="583" y2="523" stroke="#9333ea" stroke-width="2.5"/>
<circle cx="567.00" cy="523.00" r="3.8" fill="white" stroke="#9333ea" stroke-width="2"/>
<text x="593" y="527" font-size="12">lif4635/harurun-s-library (library) / PyPy 3.11.13</text>
<line x1="42" y1="575" x2="73" y2="575" stroke="#d97706" stroke-width="2.5"/>
<circle cx="57.00" cy="575.00" r="3.8" fill="white" stroke="#d97706" stroke-width="2"/>
<text x="83" y="579" font-size="12">local/acl-hpy (HPy Universal + C++) / PyPy 3.11.13</text>
<line x1="552" y1="575" x2="583" y2="575" stroke="#0891b2" stroke-width="2.5"/>
<circle cx="567.00" cy="575.00" r="3.8" fill="white" stroke="#0891b2" stroke-width="2"/>
<text x="593" y="579" font-size="12">not522/ac-library-python / PyPy 3.11.13</text>
<line x1="42" y1="609" x2="73" y2="609" stroke="#db2777" stroke-width="2.5"/>
<circle cx="57.00" cy="609.00" r="3.8" fill="white" stroke="#db2777" stroke-width="2"/>
<text x="83" y="613" font-size="12">shakayami/ACL-for-python / PyPy 3.11.13</text>
<line x1="552" y1="609" x2="583" y2="609" stroke="#475569" stroke-width="2.5"/>
<circle cx="567.00" cy="609.00" r="3.8" fill="white" stroke="#475569" stroke-width="2"/>
<text x="593" y="613" font-size="12">tatyam-prime/acl-cpp-python (C++) / PyPy 3.11.13</text>
<line x1="42" y1="643" x2="73" y2="643" stroke="#475569" stroke-width="2.5" stroke-dasharray="7 5"/>
<rect x="53.20" y="639.20" width="7.6" height="7.6" fill="white" stroke="#475569" stroke-width="2"/>
<text x="83" y="647" font-size="12">C++ ACL（参考用） / C++ 17</text>
</g></svg>
