<svg xmlns="http://www.w3.org/2000/svg" width="1040" height="688" viewBox="0 0 1040 688" role="img" aria-labelledby="title desc">
<title id="title">Strongly connected components / PyPy 3.11.13 benchmark</title>
<desc id="desc">Median elapsed time versus input size. Bands and whiskers show the observed minimum and maximum. X axis: log. Y axis: log. Lower is faster.</desc>
<rect width="100%" height="100%" rx="12" fill="white"/>
<g font-family="-apple-system, BlinkMacSystemFont, Segoe UI, sans-serif" fill="#0f172a">
<text x="40" y="36" font-size="23" font-weight="700">Strongly connected components / PyPy 3.11.13</text>
<text x="40" y="61" font-size="13" fill="#64748b">Lower is faster · median line · observed min–max range</text>
<text x="40" y="81" font-size="11" fill="#475569">参考用：C++単体の実行時間（Pythonとの値変換・プロセス起動・入出力を除外）。</text>
<line x1="124.17" y1="94" x2="124.17" y2="406" stroke="#e2e8f0"/>
<text x="124.17" y="431" font-size="12" text-anchor="middle" fill="#475569">100</text>
<line x1="191.37" y1="94" x2="191.37" y2="406" stroke="#e2e8f0"/>
<text x="191.37" y="431" font-size="12" text-anchor="middle" fill="#475569">200</text>
<line x1="280.21" y1="94" x2="280.21" y2="406" stroke="#e2e8f0"/>
<text x="280.21" y="431" font-size="12" text-anchor="middle" fill="#475569">500</text>
<line x1="347.40" y1="94" x2="347.40" y2="406" stroke="#e2e8f0"/>
<text x="347.40" y="431" font-size="12" text-anchor="middle" fill="#475569">1,000</text>
<line x1="414.60" y1="94" x2="414.60" y2="406" stroke="#e2e8f0"/>
<text x="414.60" y="431" font-size="12" text-anchor="middle" fill="#475569">2,000</text>
<line x1="503.43" y1="94" x2="503.43" y2="406" stroke="#e2e8f0"/>
<text x="503.43" y="431" font-size="12" text-anchor="middle" fill="#475569">5,000</text>
<line x1="570.63" y1="94" x2="570.63" y2="406" stroke="#e2e8f0"/>
<text x="570.63" y="431" font-size="12" text-anchor="middle" fill="#475569">10,000</text>
<line x1="637.83" y1="94" x2="637.83" y2="406" stroke="#e2e8f0"/>
<text x="637.83" y="431" font-size="12" text-anchor="middle" fill="#475569">20,000</text>
<line x1="726.66" y1="94" x2="726.66" y2="406" stroke="#e2e8f0"/>
<text x="726.66" y="431" font-size="12" text-anchor="middle" fill="#475569">50,000</text>
<line x1="793.86" y1="94" x2="793.86" y2="406" stroke="#e2e8f0"/>
<text x="793.86" y="431" font-size="12" text-anchor="middle" fill="#475569">100,000</text>
<line x1="861.06" y1="94" x2="861.06" y2="406" stroke="#e2e8f0"/>
<text x="861.06" y="431" font-size="12" text-anchor="middle" fill="#475569">200,000</text>
<line x1="949.89" y1="94" x2="949.89" y2="406" stroke="#e2e8f0"/>
<text x="949.89" y="431" font-size="12" text-anchor="middle" fill="#475569">500,000</text>
<line x1="100" y1="365.01" x2="998" y2="365.01" stroke="#e2e8f0"/>
<text x="87" y="369.01" font-size="12" text-anchor="end" fill="#475569">1e-05</text>
<line x1="100" y1="316.58" x2="998" y2="316.58" stroke="#e2e8f0"/>
<text x="87" y="320.58" font-size="12" text-anchor="end" fill="#475569">0.0001</text>
<line x1="100" y1="268.15" x2="998" y2="268.15" stroke="#e2e8f0"/>
<text x="87" y="272.15" font-size="12" text-anchor="end" fill="#475569">0.001</text>
<line x1="100" y1="219.72" x2="998" y2="219.72" stroke="#e2e8f0"/>
<text x="87" y="223.72" font-size="12" text-anchor="end" fill="#475569">0.01</text>
<line x1="100" y1="171.29" x2="998" y2="171.29" stroke="#e2e8f0"/>
<text x="87" y="175.29" font-size="12" text-anchor="end" fill="#475569">0.1</text>
<line x1="100" y1="122.87" x2="998" y2="122.87" stroke="#e2e8f0"/>
<text x="87" y="126.87" font-size="12" text-anchor="end" fill="#475569">1</text>
<path d="M100 94 V406 H998" fill="none" stroke="#94a3b8"/>
<text x="549" y="461" font-size="14" text-anchor="middle">Input size n (log scale)</text>
<text transform="translate(25 250) rotate(-90)" font-size="14" text-anchor="middle">Elapsed time [s] (log scale)</text>
<polygon points="148.11,348.81 282.50,326.88 416.90,296.82 551.30,263.21 685.70,229.51 820.09,197.59 949.89,166.32 949.89,167.88 820.09,198.46 685.70,230.83 551.30,263.48 416.90,297.20 282.50,329.38 148.11,360.57" fill="#2563eb" fill-opacity="0.09"/>
<path d="M148.11,348.81 V360.57 M145.11,348.81 H151.11 M145.11,360.57 H151.11" stroke="#2563eb" stroke-opacity="0.5" fill="none"/>
<path d="M282.50,326.88 V329.38 M279.50,326.88 H285.50 M279.50,329.38 H285.50" stroke="#2563eb" stroke-opacity="0.5" fill="none"/>
<path d="M416.90,296.82 V297.20 M413.90,296.82 H419.90 M413.90,297.20 H419.90" stroke="#2563eb" stroke-opacity="0.5" fill="none"/>
<path d="M551.30,263.21 V263.48 M548.30,263.21 H554.30 M548.30,263.48 H554.30" stroke="#2563eb" stroke-opacity="0.5" fill="none"/>
<path d="M685.70,229.51 V230.83 M682.70,229.51 H688.70 M682.70,230.83 H688.70" stroke="#2563eb" stroke-opacity="0.5" fill="none"/>
<path d="M820.09,197.59 V198.46 M817.09,197.59 H823.09 M817.09,198.46 H823.09" stroke="#2563eb" stroke-opacity="0.5" fill="none"/>
<path d="M949.89,166.32 V167.88 M946.89,166.32 H952.89 M946.89,167.88 H952.89" stroke="#2563eb" stroke-opacity="0.5" fill="none"/>
<polyline points="148.11,359.93 282.50,327.81 416.90,297.16 551.30,263.37 685.70,230.45 820.09,198.12 949.89,166.88" fill="none" stroke="#2563eb" stroke-width="2.5"/>
<circle cx="148.11" cy="359.93" r="3.8" fill="white" stroke="#2563eb" stroke-width="2"/>
<circle cx="282.50" cy="327.81" r="3.8" fill="white" stroke="#2563eb" stroke-width="2"/>
<circle cx="416.90" cy="297.16" r="3.8" fill="white" stroke="#2563eb" stroke-width="2"/>
<circle cx="551.30" cy="263.37" r="3.8" fill="white" stroke="#2563eb" stroke-width="2"/>
<circle cx="685.70" cy="230.45" r="3.8" fill="white" stroke="#2563eb" stroke-width="2"/>
<circle cx="820.09" cy="198.12" r="3.8" fill="white" stroke="#2563eb" stroke-width="2"/>
<circle cx="949.89" cy="166.88" r="3.8" fill="white" stroke="#2563eb" stroke-width="2"/>
<polygon points="148.11,345.79 282.50,311.61 416.90,284.36 551.30,252.60 685.70,220.95 820.09,190.27 949.89,159.30 949.89,160.40 820.09,190.82 685.70,221.23 551.30,252.82 416.90,284.61 282.50,314.46 148.11,346.97" fill="#dc2626" fill-opacity="0.09"/>
<path d="M148.11,345.79 V346.97 M145.11,345.79 H151.11 M145.11,346.97 H151.11" stroke="#dc2626" stroke-opacity="0.5" fill="none"/>
<path d="M282.50,311.61 V314.46 M279.50,311.61 H285.50 M279.50,314.46 H285.50" stroke="#dc2626" stroke-opacity="0.5" fill="none"/>
<path d="M416.90,284.36 V284.61 M413.90,284.36 H419.90 M413.90,284.61 H419.90" stroke="#dc2626" stroke-opacity="0.5" fill="none"/>
<path d="M551.30,252.60 V252.82 M548.30,252.60 H554.30 M548.30,252.82 H554.30" stroke="#dc2626" stroke-opacity="0.5" fill="none"/>
<path d="M685.70,220.95 V221.23 M682.70,220.95 H688.70 M682.70,221.23 H688.70" stroke="#dc2626" stroke-opacity="0.5" fill="none"/>
<path d="M820.09,190.27 V190.82 M817.09,190.27 H823.09 M817.09,190.82 H823.09" stroke="#dc2626" stroke-opacity="0.5" fill="none"/>
<path d="M949.89,159.30 V160.40 M946.89,159.30 H952.89 M946.89,160.40 H952.89" stroke="#dc2626" stroke-opacity="0.5" fill="none"/>
<polyline points="148.11,346.87 282.50,314.35 416.90,284.54 551.30,252.67 685.70,221.15 820.09,190.71 949.89,159.67" fill="none" stroke="#dc2626" stroke-width="2.5"/>
<circle cx="148.11" cy="346.87" r="3.8" fill="white" stroke="#dc2626" stroke-width="2"/>
<circle cx="282.50" cy="314.35" r="3.8" fill="white" stroke="#dc2626" stroke-width="2"/>
<circle cx="416.90" cy="284.54" r="3.8" fill="white" stroke="#dc2626" stroke-width="2"/>
<circle cx="551.30" cy="252.67" r="3.8" fill="white" stroke="#dc2626" stroke-width="2"/>
<circle cx="685.70" cy="221.15" r="3.8" fill="white" stroke="#dc2626" stroke-width="2"/>
<circle cx="820.09" cy="190.71" r="3.8" fill="white" stroke="#dc2626" stroke-width="2"/>
<circle cx="949.89" cy="159.67" r="3.8" fill="white" stroke="#dc2626" stroke-width="2"/>
<polygon points="148.11,350.69 282.50,315.97 416.90,266.29 551.30,235.44 685.70,202.03 820.09,151.42 949.89,114.86 949.89,116.31 820.09,152.93 685.70,204.27 551.30,236.15 416.90,272.61 282.50,317.53 148.11,354.22" fill="#059669" fill-opacity="0.09"/>
<path d="M148.11,350.69 V354.22 M145.11,350.69 H151.11 M145.11,354.22 H151.11" stroke="#059669" stroke-opacity="0.5" fill="none"/>
<path d="M282.50,315.97 V317.53 M279.50,315.97 H285.50 M279.50,317.53 H285.50" stroke="#059669" stroke-opacity="0.5" fill="none"/>
<path d="M416.90,266.29 V272.61 M413.90,266.29 H419.90 M413.90,272.61 H419.90" stroke="#059669" stroke-opacity="0.5" fill="none"/>
<path d="M551.30,235.44 V236.15 M548.30,235.44 H554.30 M548.30,236.15 H554.30" stroke="#059669" stroke-opacity="0.5" fill="none"/>
<path d="M685.70,202.03 V204.27 M682.70,202.03 H688.70 M682.70,204.27 H688.70" stroke="#059669" stroke-opacity="0.5" fill="none"/>
<path d="M820.09,151.42 V152.93 M817.09,151.42 H823.09 M817.09,152.93 H823.09" stroke="#059669" stroke-opacity="0.5" fill="none"/>
<path d="M949.89,114.86 V116.31 M946.89,114.86 H952.89 M946.89,116.31 H952.89" stroke="#059669" stroke-opacity="0.5" fill="none"/>
<polyline points="148.11,354.19 282.50,316.76 416.90,271.63 551.30,235.76 685.70,202.64 820.09,151.57 949.89,115.75" fill="none" stroke="#059669" stroke-width="2.5"/>
<circle cx="148.11" cy="354.19" r="3.8" fill="white" stroke="#059669" stroke-width="2"/>
<circle cx="282.50" cy="316.76" r="3.8" fill="white" stroke="#059669" stroke-width="2"/>
<circle cx="416.90" cy="271.63" r="3.8" fill="white" stroke="#059669" stroke-width="2"/>
<circle cx="551.30" cy="235.76" r="3.8" fill="white" stroke="#059669" stroke-width="2"/>
<circle cx="685.70" cy="202.64" r="3.8" fill="white" stroke="#059669" stroke-width="2"/>
<circle cx="820.09" cy="151.57" r="3.8" fill="white" stroke="#059669" stroke-width="2"/>
<circle cx="949.89" cy="115.75" r="3.8" fill="white" stroke="#059669" stroke-width="2"/>
<polygon points="148.11,348.07 282.50,313.58 416.90,267.34 551.30,232.75 685.70,201.97 820.09,148.96 949.89,110.71 949.89,113.20 820.09,150.67 685.70,203.29 551.30,234.45 416.90,271.17 282.50,314.86 148.11,350.16" fill="#9333ea" fill-opacity="0.09"/>
<path d="M148.11,348.07 V350.16 M145.11,348.07 H151.11 M145.11,350.16 H151.11" stroke="#9333ea" stroke-opacity="0.5" fill="none"/>
<path d="M282.50,313.58 V314.86 M279.50,313.58 H285.50 M279.50,314.86 H285.50" stroke="#9333ea" stroke-opacity="0.5" fill="none"/>
<path d="M416.90,267.34 V271.17 M413.90,267.34 H419.90 M413.90,271.17 H419.90" stroke="#9333ea" stroke-opacity="0.5" fill="none"/>
<path d="M551.30,232.75 V234.45 M548.30,232.75 H554.30 M548.30,234.45 H554.30" stroke="#9333ea" stroke-opacity="0.5" fill="none"/>
<path d="M685.70,201.97 V203.29 M682.70,201.97 H688.70 M682.70,203.29 H688.70" stroke="#9333ea" stroke-opacity="0.5" fill="none"/>
<path d="M820.09,148.96 V150.67 M817.09,148.96 H823.09 M817.09,150.67 H823.09" stroke="#9333ea" stroke-opacity="0.5" fill="none"/>
<path d="M949.89,110.71 V113.20 M946.89,110.71 H952.89 M946.89,113.20 H952.89" stroke="#9333ea" stroke-opacity="0.5" fill="none"/>
<polyline points="148.11,350.07 282.50,314.81 416.90,271.00 551.30,234.04 685.70,202.11 820.09,150.26 949.89,112.96" fill="none" stroke="#9333ea" stroke-width="2.5"/>
<circle cx="148.11" cy="350.07" r="3.8" fill="white" stroke="#9333ea" stroke-width="2"/>
<circle cx="282.50" cy="314.81" r="3.8" fill="white" stroke="#9333ea" stroke-width="2"/>
<circle cx="416.90" cy="271.00" r="3.8" fill="white" stroke="#9333ea" stroke-width="2"/>
<circle cx="551.30" cy="234.04" r="3.8" fill="white" stroke="#9333ea" stroke-width="2"/>
<circle cx="685.70" cy="202.11" r="3.8" fill="white" stroke="#9333ea" stroke-width="2"/>
<circle cx="820.09" cy="150.26" r="3.8" fill="white" stroke="#9333ea" stroke-width="2"/>
<circle cx="949.89" cy="112.96" r="3.8" fill="white" stroke="#9333ea" stroke-width="2"/>
<polygon points="148.11,327.60 282.50,298.43 416.90,266.33 551.30,238.81 685.70,207.76 820.09,179.55 949.89,149.65 949.89,149.99 820.09,180.29 685.70,210.46 551.30,240.17 416.90,270.61 282.50,299.89 148.11,330.55" fill="#d97706" fill-opacity="0.09"/>
<path d="M148.11,327.60 V330.55 M145.11,327.60 H151.11 M145.11,330.55 H151.11" stroke="#d97706" stroke-opacity="0.5" fill="none"/>
<path d="M282.50,298.43 V299.89 M279.50,298.43 H285.50 M279.50,299.89 H285.50" stroke="#d97706" stroke-opacity="0.5" fill="none"/>
<path d="M416.90,266.33 V270.61 M413.90,266.33 H419.90 M413.90,270.61 H419.90" stroke="#d97706" stroke-opacity="0.5" fill="none"/>
<path d="M551.30,238.81 V240.17 M548.30,238.81 H554.30 M548.30,240.17 H554.30" stroke="#d97706" stroke-opacity="0.5" fill="none"/>
<path d="M685.70,207.76 V210.46 M682.70,207.76 H688.70 M682.70,210.46 H688.70" stroke="#d97706" stroke-opacity="0.5" fill="none"/>
<path d="M820.09,179.55 V180.29 M817.09,179.55 H823.09 M817.09,180.29 H823.09" stroke="#d97706" stroke-opacity="0.5" fill="none"/>
<path d="M949.89,149.65 V149.99 M946.89,149.65 H952.89 M946.89,149.99 H952.89" stroke="#d97706" stroke-opacity="0.5" fill="none"/>
<polyline points="148.11,330.05 282.50,299.39 416.90,269.36 551.30,239.15 685.70,209.25 820.09,179.74 949.89,149.96" fill="none" stroke="#d97706" stroke-width="2.5"/>
<circle cx="148.11" cy="330.05" r="3.8" fill="white" stroke="#d97706" stroke-width="2"/>
<circle cx="282.50" cy="299.39" r="3.8" fill="white" stroke="#d97706" stroke-width="2"/>
<circle cx="416.90" cy="269.36" r="3.8" fill="white" stroke="#d97706" stroke-width="2"/>
<circle cx="551.30" cy="239.15" r="3.8" fill="white" stroke="#d97706" stroke-width="2"/>
<circle cx="685.70" cy="209.25" r="3.8" fill="white" stroke="#d97706" stroke-width="2"/>
<circle cx="820.09" cy="179.74" r="3.8" fill="white" stroke="#d97706" stroke-width="2"/>
<circle cx="949.89" cy="149.96" r="3.8" fill="white" stroke="#d97706" stroke-width="2"/>
<polygon points="148.11,356.41 282.50,318.50 416.90,264.80 551.30,233.18 685.70,202.53 820.09,171.60 949.89,145.99 949.89,147.45 820.09,175.76 685.70,211.58 551.30,242.10 416.90,272.79 282.50,320.96 148.11,358.26" fill="#0891b2" fill-opacity="0.09"/>
<path d="M148.11,356.41 V358.26 M145.11,356.41 H151.11 M145.11,358.26 H151.11" stroke="#0891b2" stroke-opacity="0.5" fill="none"/>
<path d="M282.50,318.50 V320.96 M279.50,318.50 H285.50 M279.50,320.96 H285.50" stroke="#0891b2" stroke-opacity="0.5" fill="none"/>
<path d="M416.90,264.80 V272.79 M413.90,264.80 H419.90 M413.90,272.79 H419.90" stroke="#0891b2" stroke-opacity="0.5" fill="none"/>
<path d="M551.30,233.18 V242.10 M548.30,233.18 H554.30 M548.30,242.10 H554.30" stroke="#0891b2" stroke-opacity="0.5" fill="none"/>
<path d="M685.70,202.53 V211.58 M682.70,202.53 H688.70 M682.70,211.58 H688.70" stroke="#0891b2" stroke-opacity="0.5" fill="none"/>
<path d="M820.09,171.60 V175.76 M817.09,171.60 H823.09 M817.09,175.76 H823.09" stroke="#0891b2" stroke-opacity="0.5" fill="none"/>
<path d="M949.89,145.99 V147.45 M946.89,145.99 H952.89 M946.89,147.45 H952.89" stroke="#0891b2" stroke-opacity="0.5" fill="none"/>
<polyline points="148.11,358.01 282.50,320.65 416.90,269.21 551.30,237.67 685.70,206.71 820.09,173.33 949.89,146.45" fill="none" stroke="#0891b2" stroke-width="2.5"/>
<circle cx="148.11" cy="358.01" r="3.8" fill="white" stroke="#0891b2" stroke-width="2"/>
<circle cx="282.50" cy="320.65" r="3.8" fill="white" stroke="#0891b2" stroke-width="2"/>
<circle cx="416.90" cy="269.21" r="3.8" fill="white" stroke="#0891b2" stroke-width="2"/>
<circle cx="551.30" cy="237.67" r="3.8" fill="white" stroke="#0891b2" stroke-width="2"/>
<circle cx="685.70" cy="206.71" r="3.8" fill="white" stroke="#0891b2" stroke-width="2"/>
<circle cx="820.09" cy="173.33" r="3.8" fill="white" stroke="#0891b2" stroke-width="2"/>
<circle cx="949.89" cy="146.45" r="3.8" fill="white" stroke="#0891b2" stroke-width="2"/>
<polygon points="148.11,364.18 282.50,333.50 416.90,298.89 551.30,262.41 685.70,230.56 820.09,194.45 949.89,158.27 949.89,160.77 820.09,195.78 685.70,230.99 551.30,263.24 416.90,300.89 282.50,335.98 148.11,368.76" fill="#db2777" fill-opacity="0.09"/>
<path d="M148.11,364.18 V368.76 M145.11,364.18 H151.11 M145.11,368.76 H151.11" stroke="#db2777" stroke-opacity="0.5" fill="none"/>
<path d="M282.50,333.50 V335.98 M279.50,333.50 H285.50 M279.50,335.98 H285.50" stroke="#db2777" stroke-opacity="0.5" fill="none"/>
<path d="M416.90,298.89 V300.89 M413.90,298.89 H419.90 M413.90,300.89 H419.90" stroke="#db2777" stroke-opacity="0.5" fill="none"/>
<path d="M551.30,262.41 V263.24 M548.30,262.41 H554.30 M548.30,263.24 H554.30" stroke="#db2777" stroke-opacity="0.5" fill="none"/>
<path d="M685.70,230.56 V230.99 M682.70,230.56 H688.70 M682.70,230.99 H688.70" stroke="#db2777" stroke-opacity="0.5" fill="none"/>
<path d="M820.09,194.45 V195.78 M817.09,194.45 H823.09 M817.09,195.78 H823.09" stroke="#db2777" stroke-opacity="0.5" fill="none"/>
<path d="M949.89,158.27 V160.77 M946.89,158.27 H952.89 M946.89,160.77 H952.89" stroke="#db2777" stroke-opacity="0.5" fill="none"/>
<polyline points="148.11,368.65 282.50,335.84 416.90,300.84 551.30,263.15 685.70,230.83 820.09,194.89 949.89,159.04" fill="none" stroke="#db2777" stroke-width="2.5"/>
<circle cx="148.11" cy="368.65" r="3.8" fill="white" stroke="#db2777" stroke-width="2"/>
<circle cx="282.50" cy="335.84" r="3.8" fill="white" stroke="#db2777" stroke-width="2"/>
<circle cx="416.90" cy="300.84" r="3.8" fill="white" stroke="#db2777" stroke-width="2"/>
<circle cx="551.30" cy="263.15" r="3.8" fill="white" stroke="#db2777" stroke-width="2"/>
<circle cx="685.70" cy="230.83" r="3.8" fill="white" stroke="#db2777" stroke-width="2"/>
<circle cx="820.09" cy="194.89" r="3.8" fill="white" stroke="#db2777" stroke-width="2"/>
<circle cx="949.89" cy="159.04" r="3.8" fill="white" stroke="#db2777" stroke-width="2"/>
<polygon points="148.11,289.29 282.50,258.28 416.90,231.95 551.30,203.71 685.70,170.59 820.09,142.00 949.89,113.46 949.89,114.39 820.09,143.26 685.70,172.96 551.30,204.38 416.90,232.21 282.50,263.36 148.11,289.81" fill="#475569" fill-opacity="0.09"/>
<path d="M148.11,289.29 V289.81 M145.11,289.29 H151.11 M145.11,289.81 H151.11" stroke="#475569" stroke-opacity="0.5" fill="none"/>
<path d="M282.50,258.28 V263.36 M279.50,258.28 H285.50 M279.50,263.36 H285.50" stroke="#475569" stroke-opacity="0.5" fill="none"/>
<path d="M416.90,231.95 V232.21 M413.90,231.95 H419.90 M413.90,232.21 H419.90" stroke="#475569" stroke-opacity="0.5" fill="none"/>
<path d="M551.30,203.71 V204.38 M548.30,203.71 H554.30 M548.30,204.38 H554.30" stroke="#475569" stroke-opacity="0.5" fill="none"/>
<path d="M685.70,170.59 V172.96 M682.70,170.59 H688.70 M682.70,172.96 H688.70" stroke="#475569" stroke-opacity="0.5" fill="none"/>
<path d="M820.09,142.00 V143.26 M817.09,142.00 H823.09 M817.09,143.26 H823.09" stroke="#475569" stroke-opacity="0.5" fill="none"/>
<path d="M949.89,113.46 V114.39 M946.89,113.46 H952.89 M946.89,114.39 H952.89" stroke="#475569" stroke-opacity="0.5" fill="none"/>
<polyline points="148.11,289.41 282.50,262.67 416.90,231.98 551.30,204.09 685.70,172.47 820.09,142.90 949.89,113.90" fill="none" stroke="#475569" stroke-width="2.5"/>
<circle cx="148.11" cy="289.41" r="3.8" fill="white" stroke="#475569" stroke-width="2"/>
<circle cx="282.50" cy="262.67" r="3.8" fill="white" stroke="#475569" stroke-width="2"/>
<circle cx="416.90" cy="231.98" r="3.8" fill="white" stroke="#475569" stroke-width="2"/>
<circle cx="551.30" cy="204.09" r="3.8" fill="white" stroke="#475569" stroke-width="2"/>
<circle cx="685.70" cy="172.47" r="3.8" fill="white" stroke="#475569" stroke-width="2"/>
<circle cx="820.09" cy="142.90" r="3.8" fill="white" stroke="#475569" stroke-width="2"/>
<circle cx="949.89" cy="113.90" r="3.8" fill="white" stroke="#475569" stroke-width="2"/>
<polygon points="148.11,388.98 282.50,359.43 416.90,329.99 551.30,291.29 685.70,256.95 820.09,223.04 949.89,188.89 949.89,190.98 820.09,225.27 685.70,257.60 551.30,291.69 416.90,330.98 282.50,360.73 148.11,389.29" fill="#475569" fill-opacity="0.09"/>
<path d="M148.11,388.98 V389.29 M145.11,388.98 H151.11 M145.11,389.29 H151.11" stroke="#475569" stroke-opacity="0.5" fill="none"/>
<path d="M282.50,359.43 V360.73 M279.50,359.43 H285.50 M279.50,360.73 H285.50" stroke="#475569" stroke-opacity="0.5" fill="none"/>
<path d="M416.90,329.99 V330.98 M413.90,329.99 H419.90 M413.90,330.98 H419.90" stroke="#475569" stroke-opacity="0.5" fill="none"/>
<path d="M551.30,291.29 V291.69 M548.30,291.29 H554.30 M548.30,291.69 H554.30" stroke="#475569" stroke-opacity="0.5" fill="none"/>
<path d="M685.70,256.95 V257.60 M682.70,256.95 H688.70 M682.70,257.60 H688.70" stroke="#475569" stroke-opacity="0.5" fill="none"/>
<path d="M820.09,223.04 V225.27 M817.09,223.04 H823.09 M817.09,225.27 H823.09" stroke="#475569" stroke-opacity="0.5" fill="none"/>
<path d="M949.89,188.89 V190.98 M946.89,188.89 H952.89 M946.89,190.98 H952.89" stroke="#475569" stroke-opacity="0.5" fill="none"/>
<polyline points="148.11,389.13 282.50,359.63 416.90,330.65 551.30,291.50 685.70,257.16 820.09,224.86 949.89,190.09" fill="none" stroke="#475569" stroke-width="2.5" stroke-dasharray="7 5"/>
<rect x="144.31" y="385.33" width="7.6" height="7.6" fill="white" stroke="#475569" stroke-width="2"/>
<rect x="278.70" y="355.83" width="7.6" height="7.6" fill="white" stroke="#475569" stroke-width="2"/>
<rect x="413.10" y="326.85" width="7.6" height="7.6" fill="white" stroke="#475569" stroke-width="2"/>
<rect x="547.50" y="287.70" width="7.6" height="7.6" fill="white" stroke="#475569" stroke-width="2"/>
<rect x="681.90" y="253.36" width="7.6" height="7.6" fill="white" stroke="#475569" stroke-width="2"/>
<rect x="816.29" y="221.06" width="7.6" height="7.6" fill="white" stroke="#475569" stroke-width="2"/>
<rect x="946.09" y="186.29" width="7.6" height="7.6" fill="white" stroke="#475569" stroke-width="2"/>
<line x1="42" y1="489" x2="73" y2="489" stroke="#2563eb" stroke-width="2.5"/>
<circle cx="57.00" cy="489.00" r="3.8" fill="white" stroke="#2563eb" stroke-width="2"/>
<text x="83" y="493" font-size="12">local/acl-cffi (CFFI + C++) / PyPy 3.11.13</text>
<line x1="552" y1="489" x2="583" y2="489" stroke="#dc2626" stroke-width="2.5"/>
<circle cx="567.00" cy="489.00" r="3.8" fill="white" stroke="#dc2626" stroke-width="2"/>
<text x="593" y="493" font-size="12">local/acl-cffi (batched edges) / PyPy 3.11.13</text>
<line x1="42" y1="523" x2="73" y2="523" stroke="#059669" stroke-width="2.5"/>
<circle cx="57.00" cy="523.00" r="3.8" fill="white" stroke="#059669" stroke-width="2"/>
<text x="83" y="527" font-size="12">lif4635/harurun-s-library (library_codex) / PyPy</text>
<text x="83" y="545" font-size="12">3.11.13</text>
<line x1="552" y1="523" x2="583" y2="523" stroke="#9333ea" stroke-width="2.5"/>
<circle cx="567.00" cy="523.00" r="3.8" fill="white" stroke="#9333ea" stroke-width="2"/>
<text x="593" y="527" font-size="12">lif4635/harurun-s-library (library) / PyPy 3.11.13</text>
<line x1="42" y1="575" x2="73" y2="575" stroke="#d97706" stroke-width="2.5"/>
<circle cx="57.00" cy="575.00" r="3.8" fill="white" stroke="#d97706" stroke-width="2"/>
<text x="83" y="579" font-size="12">local/acl-hpy (HPy Universal + C++) / PyPy 3.11.13</text>
<line x1="552" y1="575" x2="583" y2="575" stroke="#0891b2" stroke-width="2.5"/>
<circle cx="567.00" cy="575.00" r="3.8" fill="white" stroke="#0891b2" stroke-width="2"/>
<text x="593" y="579" font-size="12">not522/ac-library-python / PyPy 3.11.13</text>
<line x1="42" y1="609" x2="73" y2="609" stroke="#db2777" stroke-width="2.5"/>
<circle cx="57.00" cy="609.00" r="3.8" fill="white" stroke="#db2777" stroke-width="2"/>
<text x="83" y="613" font-size="12">shakayami/ACL-for-python / PyPy 3.11.13</text>
<line x1="552" y1="609" x2="583" y2="609" stroke="#475569" stroke-width="2.5"/>
<circle cx="567.00" cy="609.00" r="3.8" fill="white" stroke="#475569" stroke-width="2"/>
<text x="593" y="613" font-size="12">tatyam-prime/acl-cpp-python (C++) / PyPy 3.11.13</text>
<line x1="42" y1="643" x2="73" y2="643" stroke="#475569" stroke-width="2.5" stroke-dasharray="7 5"/>
<rect x="53.20" y="639.20" width="7.6" height="7.6" fill="white" stroke="#475569" stroke-width="2"/>
<text x="83" y="647" font-size="12">C++ ACL（参考用） / C++ 17</text>
</g></svg>
