<svg xmlns="http://www.w3.org/2000/svg" width="1040" height="602" viewBox="0 0 1040 602" role="img" aria-labelledby="title desc">
<title id="title">Convolution (mod 998244353) benchmark</title>
<desc id="desc">Median elapsed time versus input size. Bands and whiskers show the observed minimum and maximum. X axis: log. Y axis: log. Lower is faster.</desc>
<rect width="100%" height="100%" rx="12" fill="white"/>
<g font-family="-apple-system, BlinkMacSystemFont, Segoe UI, sans-serif" fill="#0f172a">
<text x="40" y="36" font-size="23" font-weight="700">Convolution (mod 998244353)</text>
<text x="40" y="61" font-size="13" fill="#64748b">Lower is faster · median line · observed min–max range</text>
<line x1="112.41" y1="94" x2="112.41" y2="406" stroke="#e2e8f0"/>
<text x="112.41" y="431" font-size="12" text-anchor="middle" fill="#475569">50</text>
<line x1="212.64" y1="94" x2="212.64" y2="406" stroke="#e2e8f0"/>
<text x="212.64" y="431" font-size="12" text-anchor="middle" fill="#475569">100</text>
<line x1="312.86" y1="94" x2="312.86" y2="406" stroke="#e2e8f0"/>
<text x="312.86" y="431" font-size="12" text-anchor="middle" fill="#475569">200</text>
<line x1="445.35" y1="94" x2="445.35" y2="406" stroke="#e2e8f0"/>
<text x="445.35" y="431" font-size="12" text-anchor="middle" fill="#475569">500</text>
<line x1="545.57" y1="94" x2="545.57" y2="406" stroke="#e2e8f0"/>
<text x="545.57" y="431" font-size="12" text-anchor="middle" fill="#475569">1,000</text>
<line x1="645.79" y1="94" x2="645.79" y2="406" stroke="#e2e8f0"/>
<text x="645.79" y="431" font-size="12" text-anchor="middle" fill="#475569">2,000</text>
<line x1="778.28" y1="94" x2="778.28" y2="406" stroke="#e2e8f0"/>
<text x="778.28" y="431" font-size="12" text-anchor="middle" fill="#475569">5,000</text>
<line x1="878.51" y1="94" x2="878.51" y2="406" stroke="#e2e8f0"/>
<text x="878.51" y="431" font-size="12" text-anchor="middle" fill="#475569">10,000</text>
<line x1="978.73" y1="94" x2="978.73" y2="406" stroke="#e2e8f0"/>
<text x="978.73" y="431" font-size="12" text-anchor="middle" fill="#475569">20,000</text>
<line x1="100" y1="369.30" x2="998" y2="369.30" stroke="#e2e8f0"/>
<text x="87" y="373.30" font-size="12" text-anchor="end" fill="#475569">0.01</text>
<line x1="100" y1="316.85" x2="998" y2="316.85" stroke="#e2e8f0"/>
<text x="87" y="320.85" font-size="12" text-anchor="end" fill="#475569">0.1</text>
<line x1="100" y1="264.41" x2="998" y2="264.41" stroke="#e2e8f0"/>
<text x="87" y="268.41" font-size="12" text-anchor="end" fill="#475569">1</text>
<line x1="100" y1="211.96" x2="998" y2="211.96" stroke="#e2e8f0"/>
<text x="87" y="215.96" font-size="12" text-anchor="end" fill="#475569">10</text>
<line x1="100" y1="159.51" x2="998" y2="159.51" stroke="#e2e8f0"/>
<text x="87" y="163.51" font-size="12" text-anchor="end" fill="#475569">100</text>
<line x1="100" y1="107.06" x2="998" y2="107.06" stroke="#e2e8f0"/>
<text x="87" y="111.06" font-size="12" text-anchor="end" fill="#475569">1,000</text>
<path d="M100 94 V406 H998" fill="none" stroke="#94a3b8"/>
<text x="549" y="461" font-size="14" text-anchor="middle">Input size n (log scale)</text>
<text transform="translate(25 250) rotate(-90)" font-size="14" text-anchor="middle">Elapsed time [ms] (log scale)</text>
<polygon points="148.11,254.23 348.55,217.77 549.00,181.73 749.45,144.96 949.89,110.71 949.89,111.06 749.45,145.87 549.00,181.98 348.55,217.89 148.11,254.57" fill="#2563eb" fill-opacity="0.09"/>
<path d="M148.11,254.23 V254.57 M145.11,254.23 H151.11 M145.11,254.57 H151.11" stroke="#2563eb" stroke-opacity="0.5" fill="none"/>
<path d="M348.55,217.77 V217.89 M345.55,217.77 H351.55 M345.55,217.89 H351.55" stroke="#2563eb" stroke-opacity="0.5" fill="none"/>
<path d="M549.00,181.73 V181.98 M546.00,181.73 H552.00 M546.00,181.98 H552.00" stroke="#2563eb" stroke-opacity="0.5" fill="none"/>
<path d="M749.45,144.96 V145.87 M746.45,144.96 H752.45 M746.45,145.87 H752.45" stroke="#2563eb" stroke-opacity="0.5" fill="none"/>
<path d="M949.89,110.71 V111.06 M946.89,110.71 H952.89 M946.89,111.06 H952.89" stroke="#2563eb" stroke-opacity="0.5" fill="none"/>
<polyline points="148.11,254.50 348.55,217.82 549.00,181.87 749.45,145.74 949.89,110.95" fill="none" stroke="#2563eb" stroke-width="2.5"/>
<circle cx="148.11" cy="254.50" r="3.8" fill="white" stroke="#2563eb" stroke-width="2"/>
<circle cx="348.55" cy="217.82" r="3.8" fill="white" stroke="#2563eb" stroke-width="2"/>
<circle cx="549.00" cy="181.87" r="3.8" fill="white" stroke="#2563eb" stroke-width="2"/>
<circle cx="749.45" cy="145.74" r="3.8" fill="white" stroke="#2563eb" stroke-width="2"/>
<circle cx="949.89" cy="110.95" r="3.8" fill="white" stroke="#2563eb" stroke-width="2"/>
<polygon points="148.11,294.84 348.55,257.09 549.00,221.01 749.45,184.33 949.89,151.06 949.89,151.95 749.45,186.03 549.00,221.42 348.55,257.77 148.11,295.05" fill="#dc2626" fill-opacity="0.09"/>
<path d="M148.11,294.84 V295.05 M145.11,294.84 H151.11 M145.11,295.05 H151.11" stroke="#dc2626" stroke-opacity="0.5" fill="none"/>
<path d="M348.55,257.09 V257.77 M345.55,257.09 H351.55 M345.55,257.77 H351.55" stroke="#dc2626" stroke-opacity="0.5" fill="none"/>
<path d="M549.00,221.01 V221.42 M546.00,221.01 H552.00 M546.00,221.42 H552.00" stroke="#dc2626" stroke-opacity="0.5" fill="none"/>
<path d="M749.45,184.33 V186.03 M746.45,184.33 H752.45 M746.45,186.03 H752.45" stroke="#dc2626" stroke-opacity="0.5" fill="none"/>
<path d="M949.89,151.06 V151.95 M946.89,151.06 H952.89 M946.89,151.95 H952.89" stroke="#dc2626" stroke-opacity="0.5" fill="none"/>
<polyline points="148.11,294.99 348.55,257.65 549.00,221.18 749.45,185.71 949.89,151.53" fill="none" stroke="#dc2626" stroke-width="2.5"/>
<circle cx="148.11" cy="294.99" r="3.8" fill="white" stroke="#dc2626" stroke-width="2"/>
<circle cx="348.55" cy="257.65" r="3.8" fill="white" stroke="#dc2626" stroke-width="2"/>
<circle cx="549.00" cy="221.18" r="3.8" fill="white" stroke="#dc2626" stroke-width="2"/>
<circle cx="749.45" cy="185.71" r="3.8" fill="white" stroke="#dc2626" stroke-width="2"/>
<circle cx="949.89" cy="151.53" r="3.8" fill="white" stroke="#dc2626" stroke-width="2"/>
<polygon points="148.11,389.11 348.55,355.89 549.00,323.17 749.45,289.81 949.89,256.03 949.89,256.37 749.45,290.00 549.00,323.30 348.55,356.47 148.11,389.29" fill="#059669" fill-opacity="0.09"/>
<path d="M148.11,389.11 V389.29 M145.11,389.11 H151.11 M145.11,389.29 H151.11" stroke="#059669" stroke-opacity="0.5" fill="none"/>
<path d="M348.55,355.89 V356.47 M345.55,355.89 H351.55 M345.55,356.47 H351.55" stroke="#059669" stroke-opacity="0.5" fill="none"/>
<path d="M549.00,323.17 V323.30 M546.00,323.17 H552.00 M546.00,323.30 H552.00" stroke="#059669" stroke-opacity="0.5" fill="none"/>
<path d="M749.45,289.81 V290.00 M746.45,289.81 H752.45 M746.45,290.00 H752.45" stroke="#059669" stroke-opacity="0.5" fill="none"/>
<path d="M949.89,256.03 V256.37 M946.89,256.03 H952.89 M946.89,256.37 H952.89" stroke="#059669" stroke-opacity="0.5" fill="none"/>
<polyline points="148.11,389.23 348.55,356.40 549.00,323.27 749.45,289.99 949.89,256.34" fill="none" stroke="#059669" stroke-width="2.5"/>
<circle cx="148.11" cy="389.23" r="3.8" fill="white" stroke="#059669" stroke-width="2"/>
<circle cx="348.55" cy="356.40" r="3.8" fill="white" stroke="#059669" stroke-width="2"/>
<circle cx="549.00" cy="323.27" r="3.8" fill="white" stroke="#059669" stroke-width="2"/>
<circle cx="749.45" cy="289.99" r="3.8" fill="white" stroke="#059669" stroke-width="2"/>
<circle cx="949.89" cy="256.34" r="3.8" fill="white" stroke="#059669" stroke-width="2"/>
<polygon points="148.11,323.46 348.55,290.50 549.00,249.03 749.45,219.74 949.89,182.47 949.89,185.34 749.45,222.30 549.00,257.45 348.55,293.85 148.11,327.97" fill="#2563eb" fill-opacity="0.09"/>
<path d="M148.11,323.46 V327.97 M145.11,323.46 H151.11 M145.11,327.97 H151.11" stroke="#2563eb" stroke-opacity="0.5" fill="none"/>
<path d="M348.55,290.50 V293.85 M345.55,290.50 H351.55 M345.55,293.85 H351.55" stroke="#2563eb" stroke-opacity="0.5" fill="none"/>
<path d="M549.00,249.03 V257.45 M546.00,249.03 H552.00 M546.00,257.45 H552.00" stroke="#2563eb" stroke-opacity="0.5" fill="none"/>
<path d="M749.45,219.74 V222.30 M746.45,219.74 H752.45 M746.45,222.30 H752.45" stroke="#2563eb" stroke-opacity="0.5" fill="none"/>
<path d="M949.89,182.47 V185.34 M946.89,182.47 H952.89 M946.89,185.34 H952.89" stroke="#2563eb" stroke-opacity="0.5" fill="none"/>
<polyline points="148.11,326.53 348.55,291.23 549.00,257.02 749.45,221.91 949.89,183.56" fill="none" stroke="#2563eb" stroke-width="2.5" stroke-dasharray="7 4"/>
<rect x="144.31" y="322.73" width="7.6" height="7.6" fill="white" stroke="#2563eb" stroke-width="2"/>
<rect x="344.75" y="287.43" width="7.6" height="7.6" fill="white" stroke="#2563eb" stroke-width="2"/>
<rect x="545.20" y="253.22" width="7.6" height="7.6" fill="white" stroke="#2563eb" stroke-width="2"/>
<rect x="745.65" y="218.11" width="7.6" height="7.6" fill="white" stroke="#2563eb" stroke-width="2"/>
<rect x="946.09" y="179.76" width="7.6" height="7.6" fill="white" stroke="#2563eb" stroke-width="2"/>
<polygon points="148.11,359.72 348.55,323.27 549.00,296.73 749.45,262.80 949.89,230.01 949.89,231.02 749.45,265.05 549.00,299.18 348.55,333.06 148.11,363.24" fill="#dc2626" fill-opacity="0.09"/>
<path d="M148.11,359.72 V363.24 M145.11,359.72 H151.11 M145.11,363.24 H151.11" stroke="#dc2626" stroke-opacity="0.5" fill="none"/>
<path d="M348.55,323.27 V333.06 M345.55,323.27 H351.55 M345.55,333.06 H351.55" stroke="#dc2626" stroke-opacity="0.5" fill="none"/>
<path d="M549.00,296.73 V299.18 M546.00,296.73 H552.00 M546.00,299.18 H552.00" stroke="#dc2626" stroke-opacity="0.5" fill="none"/>
<path d="M749.45,262.80 V265.05 M746.45,262.80 H752.45 M746.45,265.05 H752.45" stroke="#dc2626" stroke-opacity="0.5" fill="none"/>
<path d="M949.89,230.01 V231.02 M946.89,230.01 H952.89 M946.89,231.02 H952.89" stroke="#dc2626" stroke-opacity="0.5" fill="none"/>
<polyline points="148.11,361.97 348.55,331.25 549.00,298.44 749.45,264.77 949.89,230.35" fill="none" stroke="#dc2626" stroke-width="2.5" stroke-dasharray="7 4"/>
<rect x="144.31" y="358.17" width="7.6" height="7.6" fill="white" stroke="#dc2626" stroke-width="2"/>
<rect x="344.75" y="327.45" width="7.6" height="7.6" fill="white" stroke="#dc2626" stroke-width="2"/>
<rect x="545.20" y="294.64" width="7.6" height="7.6" fill="white" stroke="#dc2626" stroke-width="2"/>
<rect x="745.65" y="260.97" width="7.6" height="7.6" fill="white" stroke="#dc2626" stroke-width="2"/>
<rect x="946.09" y="226.55" width="7.6" height="7.6" fill="white" stroke="#dc2626" stroke-width="2"/>
<polygon points="148.11,350.92 348.55,319.62 549.00,288.43 749.45,258.70 949.89,230.00 949.89,231.59 749.45,261.11 549.00,291.59 348.55,322.77 148.11,352.97" fill="#059669" fill-opacity="0.09"/>
<path d="M148.11,350.92 V352.97 M145.11,350.92 H151.11 M145.11,352.97 H151.11" stroke="#059669" stroke-opacity="0.5" fill="none"/>
<path d="M348.55,319.62 V322.77 M345.55,319.62 H351.55 M345.55,322.77 H351.55" stroke="#059669" stroke-opacity="0.5" fill="none"/>
<path d="M549.00,288.43 V291.59 M546.00,288.43 H552.00 M546.00,291.59 H552.00" stroke="#059669" stroke-opacity="0.5" fill="none"/>
<path d="M749.45,258.70 V261.11 M746.45,258.70 H752.45 M746.45,261.11 H752.45" stroke="#059669" stroke-opacity="0.5" fill="none"/>
<path d="M949.89,230.00 V231.59 M946.89,230.00 H952.89 M946.89,231.59 H952.89" stroke="#059669" stroke-opacity="0.5" fill="none"/>
<polyline points="148.11,352.61 348.55,321.56 549.00,291.42 749.45,260.30 949.89,231.34" fill="none" stroke="#059669" stroke-width="2.5" stroke-dasharray="7 4"/>
<rect x="144.31" y="348.81" width="7.6" height="7.6" fill="white" stroke="#059669" stroke-width="2"/>
<rect x="344.75" y="317.76" width="7.6" height="7.6" fill="white" stroke="#059669" stroke-width="2"/>
<rect x="545.20" y="287.62" width="7.6" height="7.6" fill="white" stroke="#059669" stroke-width="2"/>
<rect x="745.65" y="256.50" width="7.6" height="7.6" fill="white" stroke="#059669" stroke-width="2"/>
<rect x="946.09" y="227.54" width="7.6" height="7.6" fill="white" stroke="#059669" stroke-width="2"/>
<line x1="42" y1="489" x2="73" y2="489" stroke="#2563eb" stroke-width="2.5"/>
<circle cx="57.00" cy="489.00" r="3.8" fill="white" stroke="#2563eb" stroke-width="2"/>
<text x="83" y="493" font-size="12">not522/ac-library-python / CPython 3.11.16</text>
<line x1="552" y1="489" x2="583" y2="489" stroke="#dc2626" stroke-width="2.5"/>
<circle cx="567.00" cy="489.00" r="3.8" fill="white" stroke="#dc2626" stroke-width="2"/>
<text x="593" y="493" font-size="12">shakayami/ACL-for-python / CPython 3.11.16</text>
<line x1="42" y1="523" x2="73" y2="523" stroke="#059669" stroke-width="2.5"/>
<circle cx="57.00" cy="523.00" r="3.8" fill="white" stroke="#059669" stroke-width="2"/>
<text x="83" y="527" font-size="12">tatyam-prime/acl-cpp-python (C++) / CPython 3.11.16</text>
<line x1="552" y1="523" x2="583" y2="523" stroke="#2563eb" stroke-width="2.5" stroke-dasharray="7 4"/>
<rect x="563.20" y="519.20" width="7.6" height="7.6" fill="white" stroke="#2563eb" stroke-width="2"/>
<text x="593" y="527" font-size="12">not522/ac-library-python / PyPy 3.11.13</text>
<line x1="42" y1="557" x2="73" y2="557" stroke="#dc2626" stroke-width="2.5" stroke-dasharray="7 4"/>
<rect x="53.20" y="553.20" width="7.6" height="7.6" fill="white" stroke="#dc2626" stroke-width="2"/>
<text x="83" y="561" font-size="12">shakayami/ACL-for-python / PyPy 3.11.13</text>
<line x1="552" y1="557" x2="583" y2="557" stroke="#059669" stroke-width="2.5" stroke-dasharray="7 4"/>
<rect x="563.20" y="553.20" width="7.6" height="7.6" fill="white" stroke="#059669" stroke-width="2"/>
<text x="593" y="561" font-size="12">tatyam-prime/acl-cpp-python (C++) / PyPy 3.11.13</text>
</g></svg>
