<svg xmlns="http://www.w3.org/2000/svg" width="1040" height="602" viewBox="0 0 1040 602" role="img" aria-labelledby="title desc">
<title id="title">DSU / Union-Find benchmark</title>
<desc id="desc">Median elapsed time versus input size. Bands and whiskers show the observed minimum and maximum. X axis: log. Y axis: log. Lower is faster.</desc>
<rect width="100%" height="100%" rx="12" fill="white"/>
<g font-family="-apple-system, BlinkMacSystemFont, Segoe UI, sans-serif" fill="#0f172a">
<text x="40" y="36" font-size="23" font-weight="700">DSU / Union-Find</text>
<text x="40" y="61" font-size="13" fill="#64748b">Lower is faster · median line · observed min–max range</text>
<line x1="112.41" y1="94" x2="112.41" y2="406" stroke="#e2e8f0"/>
<text x="112.41" y="431" font-size="12" text-anchor="middle" fill="#475569">100</text>
<line x1="212.64" y1="94" x2="212.64" y2="406" stroke="#e2e8f0"/>
<text x="212.64" y="431" font-size="12" text-anchor="middle" fill="#475569">200</text>
<line x1="345.12" y1="94" x2="345.12" y2="406" stroke="#e2e8f0"/>
<text x="345.12" y="431" font-size="12" text-anchor="middle" fill="#475569">500</text>
<line x1="445.35" y1="94" x2="445.35" y2="406" stroke="#e2e8f0"/>
<text x="445.35" y="431" font-size="12" text-anchor="middle" fill="#475569">1,000</text>
<line x1="545.57" y1="94" x2="545.57" y2="406" stroke="#e2e8f0"/>
<text x="545.57" y="431" font-size="12" text-anchor="middle" fill="#475569">2,000</text>
<line x1="678.06" y1="94" x2="678.06" y2="406" stroke="#e2e8f0"/>
<text x="678.06" y="431" font-size="12" text-anchor="middle" fill="#475569">5,000</text>
<line x1="778.28" y1="94" x2="778.28" y2="406" stroke="#e2e8f0"/>
<text x="778.28" y="431" font-size="12" text-anchor="middle" fill="#475569">10,000</text>
<line x1="878.51" y1="94" x2="878.51" y2="406" stroke="#e2e8f0"/>
<text x="878.51" y="431" font-size="12" text-anchor="middle" fill="#475569">20,000</text>
<line x1="100" y1="378.14" x2="998" y2="378.14" stroke="#e2e8f0"/>
<text x="87" y="382.14" font-size="12" text-anchor="end" fill="#475569">0.01</text>
<line x1="100" y1="314.47" x2="998" y2="314.47" stroke="#e2e8f0"/>
<text x="87" y="318.47" font-size="12" text-anchor="end" fill="#475569">0.1</text>
<line x1="100" y1="250.79" x2="998" y2="250.79" stroke="#e2e8f0"/>
<text x="87" y="254.79" font-size="12" text-anchor="end" fill="#475569">1</text>
<line x1="100" y1="187.12" x2="998" y2="187.12" stroke="#e2e8f0"/>
<text x="87" y="191.12" font-size="12" text-anchor="end" fill="#475569">10</text>
<line x1="100" y1="123.45" x2="998" y2="123.45" stroke="#e2e8f0"/>
<text x="87" y="127.45" font-size="12" text-anchor="end" fill="#475569">100</text>
<path d="M100 94 V406 H998" fill="none" stroke="#94a3b8"/>
<text x="549" y="461" font-size="14" text-anchor="middle">Input size n (log scale)</text>
<text transform="translate(25 250) rotate(-90)" font-size="14" text-anchor="middle">Elapsed time [ms] (log scale)</text>
<polygon points="148.11,310.04 348.55,262.49 549.00,231.71 749.45,193.40 949.89,154.90 949.89,155.10 749.45,194.53 549.00,233.21 348.55,271.95 148.11,310.46" fill="#2563eb" fill-opacity="0.09"/>
<path d="M148.11,310.04 V310.46 M145.11,310.04 H151.11 M145.11,310.46 H151.11" stroke="#2563eb" stroke-opacity="0.5" fill="none"/>
<path d="M348.55,262.49 V271.95 M345.55,262.49 H351.55 M345.55,271.95 H351.55" stroke="#2563eb" stroke-opacity="0.5" fill="none"/>
<path d="M549.00,231.71 V233.21 M546.00,231.71 H552.00 M546.00,233.21 H552.00" stroke="#2563eb" stroke-opacity="0.5" fill="none"/>
<path d="M749.45,193.40 V194.53 M746.45,193.40 H752.45 M746.45,194.53 H752.45" stroke="#2563eb" stroke-opacity="0.5" fill="none"/>
<path d="M949.89,154.90 V155.10 M946.89,154.90 H952.89 M946.89,155.10 H952.89" stroke="#2563eb" stroke-opacity="0.5" fill="none"/>
<polyline points="148.11,310.37 348.55,271.85 549.00,232.32 749.45,194.04 949.89,154.98" fill="none" stroke="#2563eb" stroke-width="2.5"/>
<circle cx="148.11" cy="310.37" r="3.8" fill="white" stroke="#2563eb" stroke-width="2"/>
<circle cx="348.55" cy="271.85" r="3.8" fill="white" stroke="#2563eb" stroke-width="2"/>
<circle cx="549.00" cy="232.32" r="3.8" fill="white" stroke="#2563eb" stroke-width="2"/>
<circle cx="749.45" cy="194.04" r="3.8" fill="white" stroke="#2563eb" stroke-width="2"/>
<circle cx="949.89" cy="154.98" r="3.8" fill="white" stroke="#2563eb" stroke-width="2"/>
<polygon points="148.11,301.62 348.55,263.69 549.00,225.15 749.45,186.53 949.89,147.37 949.89,147.70 749.45,186.83 549.00,225.42 348.55,263.99 148.11,302.22" fill="#dc2626" fill-opacity="0.09"/>
<path d="M148.11,301.62 V302.22 M145.11,301.62 H151.11 M145.11,302.22 H151.11" stroke="#dc2626" stroke-opacity="0.5" fill="none"/>
<path d="M348.55,263.69 V263.99 M345.55,263.69 H351.55 M345.55,263.99 H351.55" stroke="#dc2626" stroke-opacity="0.5" fill="none"/>
<path d="M549.00,225.15 V225.42 M546.00,225.15 H552.00 M546.00,225.42 H552.00" stroke="#dc2626" stroke-opacity="0.5" fill="none"/>
<path d="M749.45,186.53 V186.83 M746.45,186.53 H752.45 M746.45,186.83 H752.45" stroke="#dc2626" stroke-opacity="0.5" fill="none"/>
<path d="M949.89,147.37 V147.70 M946.89,147.37 H952.89 M946.89,147.70 H952.89" stroke="#dc2626" stroke-opacity="0.5" fill="none"/>
<polyline points="148.11,302.13 348.55,263.83 549.00,225.22 749.45,186.67 949.89,147.59" fill="none" stroke="#dc2626" stroke-width="2.5"/>
<circle cx="148.11" cy="302.13" r="3.8" fill="white" stroke="#dc2626" stroke-width="2"/>
<circle cx="348.55" cy="263.83" r="3.8" fill="white" stroke="#dc2626" stroke-width="2"/>
<circle cx="549.00" cy="225.22" r="3.8" fill="white" stroke="#dc2626" stroke-width="2"/>
<circle cx="749.45" cy="186.67" r="3.8" fill="white" stroke="#dc2626" stroke-width="2"/>
<circle cx="949.89" cy="147.59" r="3.8" fill="white" stroke="#dc2626" stroke-width="2"/>
<polygon points="148.11,350.87 348.55,310.31 549.00,270.34 749.45,231.79 949.89,193.21 949.89,193.37 749.45,232.25 549.00,271.40 348.55,310.39 148.11,351.26" fill="#059669" fill-opacity="0.09"/>
<path d="M148.11,350.87 V351.26 M145.11,350.87 H151.11 M145.11,351.26 H151.11" stroke="#059669" stroke-opacity="0.5" fill="none"/>
<path d="M348.55,310.31 V310.39 M345.55,310.31 H351.55 M345.55,310.39 H351.55" stroke="#059669" stroke-opacity="0.5" fill="none"/>
<path d="M549.00,270.34 V271.40 M546.00,270.34 H552.00 M546.00,271.40 H552.00" stroke="#059669" stroke-opacity="0.5" fill="none"/>
<path d="M749.45,231.79 V232.25 M746.45,231.79 H752.45 M746.45,232.25 H752.45" stroke="#059669" stroke-opacity="0.5" fill="none"/>
<path d="M949.89,193.21 V193.37 M946.89,193.21 H952.89 M946.89,193.37 H952.89" stroke="#059669" stroke-opacity="0.5" fill="none"/>
<polyline points="148.11,351.13 348.55,310.34 549.00,271.25 749.45,232.10 949.89,193.25" fill="none" stroke="#059669" stroke-width="2.5"/>
<circle cx="148.11" cy="351.13" r="3.8" fill="white" stroke="#059669" stroke-width="2"/>
<circle cx="348.55" cy="310.34" r="3.8" fill="white" stroke="#059669" stroke-width="2"/>
<circle cx="549.00" cy="271.25" r="3.8" fill="white" stroke="#059669" stroke-width="2"/>
<circle cx="749.45" cy="232.10" r="3.8" fill="white" stroke="#059669" stroke-width="2"/>
<circle cx="949.89" cy="193.25" r="3.8" fill="white" stroke="#059669" stroke-width="2"/>
<polygon points="148.11,374.10 348.55,335.25 549.00,297.10 749.45,245.45 949.89,205.40 949.89,207.32 749.45,249.85 549.00,299.19 348.55,341.92 148.11,378.66" fill="#2563eb" fill-opacity="0.09"/>
<path d="M148.11,374.10 V378.66 M145.11,374.10 H151.11 M145.11,378.66 H151.11" stroke="#2563eb" stroke-opacity="0.5" fill="none"/>
<path d="M348.55,335.25 V341.92 M345.55,335.25 H351.55 M345.55,341.92 H351.55" stroke="#2563eb" stroke-opacity="0.5" fill="none"/>
<path d="M549.00,297.10 V299.19 M546.00,297.10 H552.00 M546.00,299.19 H552.00" stroke="#2563eb" stroke-opacity="0.5" fill="none"/>
<path d="M749.45,245.45 V249.85 M746.45,245.45 H752.45 M746.45,249.85 H752.45" stroke="#2563eb" stroke-opacity="0.5" fill="none"/>
<path d="M949.89,205.40 V207.32 M946.89,205.40 H952.89 M946.89,207.32 H952.89" stroke="#2563eb" stroke-opacity="0.5" fill="none"/>
<polyline points="148.11,377.91 348.55,340.52 549.00,298.86 749.45,249.64 949.89,207.04" fill="none" stroke="#2563eb" stroke-width="2.5" stroke-dasharray="7 4"/>
<rect x="144.31" y="374.11" width="7.6" height="7.6" fill="white" stroke="#2563eb" stroke-width="2"/>
<rect x="344.75" y="336.72" width="7.6" height="7.6" fill="white" stroke="#2563eb" stroke-width="2"/>
<rect x="545.20" y="295.06" width="7.6" height="7.6" fill="white" stroke="#2563eb" stroke-width="2"/>
<rect x="745.65" y="245.84" width="7.6" height="7.6" fill="white" stroke="#2563eb" stroke-width="2"/>
<rect x="946.09" y="203.24" width="7.6" height="7.6" fill="white" stroke="#2563eb" stroke-width="2"/>
<polygon points="148.11,382.15 348.55,341.72 549.00,270.84 749.45,244.28 949.89,204.32 949.89,211.51 749.45,253.15 549.00,303.59 348.55,352.70 148.11,389.29" fill="#dc2626" fill-opacity="0.09"/>
<path d="M148.11,382.15 V389.29 M145.11,382.15 H151.11 M145.11,389.29 H151.11" stroke="#dc2626" stroke-opacity="0.5" fill="none"/>
<path d="M348.55,341.72 V352.70 M345.55,341.72 H351.55 M345.55,352.70 H351.55" stroke="#dc2626" stroke-opacity="0.5" fill="none"/>
<path d="M549.00,270.84 V303.59 M546.00,270.84 H552.00 M546.00,303.59 H552.00" stroke="#dc2626" stroke-opacity="0.5" fill="none"/>
<path d="M749.45,244.28 V253.15 M746.45,244.28 H752.45 M746.45,253.15 H752.45" stroke="#dc2626" stroke-opacity="0.5" fill="none"/>
<path d="M949.89,204.32 V211.51 M946.89,204.32 H952.89 M946.89,211.51 H952.89" stroke="#dc2626" stroke-opacity="0.5" fill="none"/>
<polyline points="148.11,388.85 348.55,351.92 549.00,303.36 749.45,250.82 949.89,208.04" fill="none" stroke="#dc2626" stroke-width="2.5" stroke-dasharray="7 4"/>
<rect x="144.31" y="385.05" width="7.6" height="7.6" fill="white" stroke="#dc2626" stroke-width="2"/>
<rect x="344.75" y="348.12" width="7.6" height="7.6" fill="white" stroke="#dc2626" stroke-width="2"/>
<rect x="545.20" y="299.56" width="7.6" height="7.6" fill="white" stroke="#dc2626" stroke-width="2"/>
<rect x="745.65" y="247.02" width="7.6" height="7.6" fill="white" stroke="#dc2626" stroke-width="2"/>
<rect x="946.09" y="204.24" width="7.6" height="7.6" fill="white" stroke="#dc2626" stroke-width="2"/>
<polygon points="148.11,269.38 348.55,231.42 549.00,194.14 749.45,155.18 949.89,110.71 949.89,113.53 749.45,157.62 549.00,195.98 348.55,234.26 148.11,271.95" fill="#059669" fill-opacity="0.09"/>
<path d="M148.11,269.38 V271.95 M145.11,269.38 H151.11 M145.11,271.95 H151.11" stroke="#059669" stroke-opacity="0.5" fill="none"/>
<path d="M348.55,231.42 V234.26 M345.55,231.42 H351.55 M345.55,234.26 H351.55" stroke="#059669" stroke-opacity="0.5" fill="none"/>
<path d="M549.00,194.14 V195.98 M546.00,194.14 H552.00 M546.00,195.98 H552.00" stroke="#059669" stroke-opacity="0.5" fill="none"/>
<path d="M749.45,155.18 V157.62 M746.45,155.18 H752.45 M746.45,157.62 H752.45" stroke="#059669" stroke-opacity="0.5" fill="none"/>
<path d="M949.89,110.71 V113.53 M946.89,110.71 H952.89 M946.89,113.53 H952.89" stroke="#059669" stroke-opacity="0.5" fill="none"/>
<polyline points="148.11,271.80 348.55,234.10 549.00,195.61 749.45,157.23 949.89,112.78" fill="none" stroke="#059669" stroke-width="2.5" stroke-dasharray="7 4"/>
<rect x="144.31" y="268.00" width="7.6" height="7.6" fill="white" stroke="#059669" stroke-width="2"/>
<rect x="344.75" y="230.30" width="7.6" height="7.6" fill="white" stroke="#059669" stroke-width="2"/>
<rect x="545.20" y="191.81" width="7.6" height="7.6" fill="white" stroke="#059669" stroke-width="2"/>
<rect x="745.65" y="153.43" width="7.6" height="7.6" fill="white" stroke="#059669" stroke-width="2"/>
<rect x="946.09" y="108.98" width="7.6" height="7.6" fill="white" stroke="#059669" stroke-width="2"/>
<line x1="42" y1="489" x2="73" y2="489" stroke="#2563eb" stroke-width="2.5"/>
<circle cx="57.00" cy="489.00" r="3.8" fill="white" stroke="#2563eb" stroke-width="2"/>
<text x="83" y="493" font-size="12">not522/ac-library-python / CPython 3.11.16</text>
<line x1="552" y1="489" x2="583" y2="489" stroke="#dc2626" stroke-width="2.5"/>
<circle cx="567.00" cy="489.00" r="3.8" fill="white" stroke="#dc2626" stroke-width="2"/>
<text x="593" y="493" font-size="12">shakayami/ACL-for-python / CPython 3.11.16</text>
<line x1="42" y1="523" x2="73" y2="523" stroke="#059669" stroke-width="2.5"/>
<circle cx="57.00" cy="523.00" r="3.8" fill="white" stroke="#059669" stroke-width="2"/>
<text x="83" y="527" font-size="12">tatyam-prime/acl-cpp-python (C++) / CPython 3.11.16</text>
<line x1="552" y1="523" x2="583" y2="523" stroke="#2563eb" stroke-width="2.5" stroke-dasharray="7 4"/>
<rect x="563.20" y="519.20" width="7.6" height="7.6" fill="white" stroke="#2563eb" stroke-width="2"/>
<text x="593" y="527" font-size="12">not522/ac-library-python / PyPy 3.11.13</text>
<line x1="42" y1="557" x2="73" y2="557" stroke="#dc2626" stroke-width="2.5" stroke-dasharray="7 4"/>
<rect x="53.20" y="553.20" width="7.6" height="7.6" fill="white" stroke="#dc2626" stroke-width="2"/>
<text x="83" y="561" font-size="12">shakayami/ACL-for-python / PyPy 3.11.13</text>
<line x1="552" y1="557" x2="583" y2="557" stroke="#059669" stroke-width="2.5" stroke-dasharray="7 4"/>
<rect x="563.20" y="553.20" width="7.6" height="7.6" fill="white" stroke="#059669" stroke-width="2"/>
<text x="593" y="561" font-size="12">tatyam-prime/acl-cpp-python (C++) / PyPy 3.11.13</text>
</g></svg>
