<svg xmlns="http://www.w3.org/2000/svg" width="1040" height="568" viewBox="0 0 1040 568" role="img" aria-labelledby="title desc">
<title id="title">Z algorithm / CPython 3.11.16 benchmark</title>
<desc id="desc">Median elapsed time versus input size. Bands and whiskers show the observed minimum and maximum. X axis: log. Y axis: log. Lower is faster.</desc>
<rect width="100%" height="100%" rx="12" fill="white"/>
<g font-family="-apple-system, BlinkMacSystemFont, Segoe UI, sans-serif" fill="#0f172a">
<text x="40" y="36" font-size="23" font-weight="700">Z algorithm / CPython 3.11.16</text>
<text x="40" y="61" font-size="13" fill="#64748b">Lower is faster · median line · observed min–max range</text>
<line x1="112.41" y1="94" x2="112.41" y2="406" stroke="#e2e8f0"/>
<text x="112.41" y="431" font-size="12" text-anchor="middle" fill="#475569">100</text>
<line x1="212.64" y1="94" x2="212.64" y2="406" stroke="#e2e8f0"/>
<text x="212.64" y="431" font-size="12" text-anchor="middle" fill="#475569">200</text>
<line x1="345.12" y1="94" x2="345.12" y2="406" stroke="#e2e8f0"/>
<text x="345.12" y="431" font-size="12" text-anchor="middle" fill="#475569">500</text>
<line x1="445.35" y1="94" x2="445.35" y2="406" stroke="#e2e8f0"/>
<text x="445.35" y="431" font-size="12" text-anchor="middle" fill="#475569">1,000</text>
<line x1="545.57" y1="94" x2="545.57" y2="406" stroke="#e2e8f0"/>
<text x="545.57" y="431" font-size="12" text-anchor="middle" fill="#475569">2,000</text>
<line x1="678.06" y1="94" x2="678.06" y2="406" stroke="#e2e8f0"/>
<text x="678.06" y="431" font-size="12" text-anchor="middle" fill="#475569">5,000</text>
<line x1="778.28" y1="94" x2="778.28" y2="406" stroke="#e2e8f0"/>
<text x="778.28" y="431" font-size="12" text-anchor="middle" fill="#475569">10,000</text>
<line x1="878.51" y1="94" x2="878.51" y2="406" stroke="#e2e8f0"/>
<text x="878.51" y="431" font-size="12" text-anchor="middle" fill="#475569">20,000</text>
<line x1="100" y1="395.15" x2="998" y2="395.15" stroke="#e2e8f0"/>
<text x="87" y="399.15" font-size="12" text-anchor="end" fill="#475569">0.001</text>
<line x1="100" y1="322.54" x2="998" y2="322.54" stroke="#e2e8f0"/>
<text x="87" y="326.54" font-size="12" text-anchor="end" fill="#475569">0.01</text>
<line x1="100" y1="249.92" x2="998" y2="249.92" stroke="#e2e8f0"/>
<text x="87" y="253.92" font-size="12" text-anchor="end" fill="#475569">0.1</text>
<line x1="100" y1="177.31" x2="998" y2="177.31" stroke="#e2e8f0"/>
<text x="87" y="181.31" font-size="12" text-anchor="end" fill="#475569">1</text>
<line x1="100" y1="104.69" x2="998" y2="104.69" stroke="#e2e8f0"/>
<text x="87" y="108.69" font-size="12" text-anchor="end" fill="#475569">10</text>
<path d="M100 94 V406 H998" fill="none" stroke="#94a3b8"/>
<text x="549" y="461" font-size="14" text-anchor="middle">Input size n (log scale)</text>
<text transform="translate(25 250) rotate(-90)" font-size="14" text-anchor="middle">Elapsed time [ms] (log scale)</text>
<polygon points="148.11,289.11 348.55,243.60 549.00,199.97 749.45,156.22 949.89,111.98 949.89,112.84 749.45,156.49 549.00,200.61 348.55,244.18 148.11,290.05" fill="#2563eb" fill-opacity="0.09"/>
<path d="M148.11,289.11 V290.05 M145.11,289.11 H151.11 M145.11,290.05 H151.11" stroke="#2563eb" stroke-opacity="0.5" fill="none"/>
<path d="M348.55,243.60 V244.18 M345.55,243.60 H351.55 M345.55,244.18 H351.55" stroke="#2563eb" stroke-opacity="0.5" fill="none"/>
<path d="M549.00,199.97 V200.61 M546.00,199.97 H552.00 M546.00,200.61 H552.00" stroke="#2563eb" stroke-opacity="0.5" fill="none"/>
<path d="M749.45,156.22 V156.49 M746.45,156.22 H752.45 M746.45,156.49 H752.45" stroke="#2563eb" stroke-opacity="0.5" fill="none"/>
<path d="M949.89,111.98 V112.84 M946.89,111.98 H952.89 M946.89,112.84 H952.89" stroke="#2563eb" stroke-opacity="0.5" fill="none"/>
<polyline points="148.11,289.98 348.55,244.03 549.00,200.38 749.45,156.35 949.89,112.34" fill="none" stroke="#2563eb" stroke-width="2.5"/>
<circle cx="148.11" cy="289.98" r="3.8" fill="white" stroke="#2563eb" stroke-width="2"/>
<circle cx="348.55" cy="244.03" r="3.8" fill="white" stroke="#2563eb" stroke-width="2"/>
<circle cx="549.00" cy="200.38" r="3.8" fill="white" stroke="#2563eb" stroke-width="2"/>
<circle cx="749.45" cy="156.35" r="3.8" fill="white" stroke="#2563eb" stroke-width="2"/>
<circle cx="949.89" cy="112.34" r="3.8" fill="white" stroke="#2563eb" stroke-width="2"/>
<polygon points="148.11,289.80 348.55,243.65 549.00,198.94 749.45,154.95 949.89,110.71 949.89,111.86 749.45,155.20 549.00,199.51 348.55,243.88 148.11,289.99" fill="#dc2626" fill-opacity="0.09"/>
<path d="M148.11,289.80 V289.99 M145.11,289.80 H151.11 M145.11,289.99 H151.11" stroke="#dc2626" stroke-opacity="0.5" fill="none"/>
<path d="M348.55,243.65 V243.88 M345.55,243.65 H351.55 M345.55,243.88 H351.55" stroke="#dc2626" stroke-opacity="0.5" fill="none"/>
<path d="M549.00,198.94 V199.51 M546.00,198.94 H552.00 M546.00,199.51 H552.00" stroke="#dc2626" stroke-opacity="0.5" fill="none"/>
<path d="M749.45,154.95 V155.20 M746.45,154.95 H752.45 M746.45,155.20 H752.45" stroke="#dc2626" stroke-opacity="0.5" fill="none"/>
<path d="M949.89,110.71 V111.86 M946.89,110.71 H952.89 M946.89,111.86 H952.89" stroke="#dc2626" stroke-opacity="0.5" fill="none"/>
<polyline points="148.11,289.97 348.55,243.79 549.00,199.41 749.45,155.15 949.89,111.31" fill="none" stroke="#dc2626" stroke-width="2.5"/>
<circle cx="148.11" cy="289.97" r="3.8" fill="white" stroke="#dc2626" stroke-width="2"/>
<circle cx="348.55" cy="243.79" r="3.8" fill="white" stroke="#dc2626" stroke-width="2"/>
<circle cx="549.00" cy="199.41" r="3.8" fill="white" stroke="#dc2626" stroke-width="2"/>
<circle cx="749.45" cy="155.15" r="3.8" fill="white" stroke="#dc2626" stroke-width="2"/>
<circle cx="949.89" cy="111.31" r="3.8" fill="white" stroke="#dc2626" stroke-width="2"/>
<polygon points="148.11,388.96 348.55,349.23 549.00,303.74 749.45,262.04 949.89,215.37 949.89,215.48 749.45,263.59 549.00,306.83 348.55,349.46 148.11,389.29" fill="#059669" fill-opacity="0.09"/>
<path d="M148.11,388.96 V389.29 M145.11,388.96 H151.11 M145.11,389.29 H151.11" stroke="#059669" stroke-opacity="0.5" fill="none"/>
<path d="M348.55,349.23 V349.46 M345.55,349.23 H351.55 M345.55,349.46 H351.55" stroke="#059669" stroke-opacity="0.5" fill="none"/>
<path d="M549.00,303.74 V306.83 M546.00,303.74 H552.00 M546.00,306.83 H552.00" stroke="#059669" stroke-opacity="0.5" fill="none"/>
<path d="M749.45,262.04 V263.59 M746.45,262.04 H752.45 M746.45,263.59 H752.45" stroke="#059669" stroke-opacity="0.5" fill="none"/>
<path d="M949.89,215.37 V215.48 M946.89,215.37 H952.89 M946.89,215.48 H952.89" stroke="#059669" stroke-opacity="0.5" fill="none"/>
<polyline points="148.11,389.28 348.55,349.38 549.00,306.76 749.45,262.56 949.89,215.45" fill="none" stroke="#059669" stroke-width="2.5"/>
<circle cx="148.11" cy="389.28" r="3.8" fill="white" stroke="#059669" stroke-width="2"/>
<circle cx="348.55" cy="349.38" r="3.8" fill="white" stroke="#059669" stroke-width="2"/>
<circle cx="549.00" cy="306.76" r="3.8" fill="white" stroke="#059669" stroke-width="2"/>
<circle cx="749.45" cy="262.56" r="3.8" fill="white" stroke="#059669" stroke-width="2"/>
<circle cx="949.89" cy="215.45" r="3.8" fill="white" stroke="#059669" stroke-width="2"/>
<line x1="42" y1="489" x2="73" y2="489" stroke="#2563eb" stroke-width="2.5"/>
<circle cx="57.00" cy="489.00" r="3.8" fill="white" stroke="#2563eb" stroke-width="2"/>
<text x="83" y="493" font-size="12">not522/ac-library-python / CPython 3.11.16</text>
<line x1="552" y1="489" x2="583" y2="489" stroke="#dc2626" stroke-width="2.5"/>
<circle cx="567.00" cy="489.00" r="3.8" fill="white" stroke="#dc2626" stroke-width="2"/>
<text x="593" y="493" font-size="12">shakayami/ACL-for-python / CPython 3.11.16</text>
<line x1="42" y1="523" x2="73" y2="523" stroke="#059669" stroke-width="2.5"/>
<circle cx="57.00" cy="523.00" r="3.8" fill="white" stroke="#059669" stroke-width="2"/>
<text x="83" y="527" font-size="12">tatyam-prime/acl-cpp-python (C++) / CPython 3.11.16</text>
</g></svg>
