<svg xmlns="http://www.w3.org/2000/svg" width="1040" height="654" viewBox="0 0 1040 654" role="img" aria-labelledby="title desc">
<title id="title">Z algorithm / PyPy 3.11.13 benchmark</title>
<desc id="desc">Median elapsed time versus input size. Bands and whiskers show the observed minimum and maximum. X axis: log. Y axis: log. Lower is faster.</desc>
<rect width="100%" height="100%" rx="12" fill="white"/>
<g font-family="-apple-system, BlinkMacSystemFont, Segoe UI, sans-serif" fill="#0f172a">
<text x="40" y="36" font-size="23" font-weight="700">Z algorithm / PyPy 3.11.13</text>
<text x="40" y="61" font-size="13" fill="#64748b">Lower is faster · median line · observed min–max range</text>
<text x="40" y="81" font-size="11" fill="#475569">参考用：C++単体の実行時間（Pythonとの値変換・プロセス起動・入出力を除外）。</text>
<line x1="124.17" y1="94" x2="124.17" y2="406" stroke="#e2e8f0"/>
<text x="124.17" y="431" font-size="12" text-anchor="middle" fill="#475569">100</text>
<line x1="191.37" y1="94" x2="191.37" y2="406" stroke="#e2e8f0"/>
<text x="191.37" y="431" font-size="12" text-anchor="middle" fill="#475569">200</text>
<line x1="280.21" y1="94" x2="280.21" y2="406" stroke="#e2e8f0"/>
<text x="280.21" y="431" font-size="12" text-anchor="middle" fill="#475569">500</text>
<line x1="347.40" y1="94" x2="347.40" y2="406" stroke="#e2e8f0"/>
<text x="347.40" y="431" font-size="12" text-anchor="middle" fill="#475569">1,000</text>
<line x1="414.60" y1="94" x2="414.60" y2="406" stroke="#e2e8f0"/>
<text x="414.60" y="431" font-size="12" text-anchor="middle" fill="#475569">2,000</text>
<line x1="503.43" y1="94" x2="503.43" y2="406" stroke="#e2e8f0"/>
<text x="503.43" y="431" font-size="12" text-anchor="middle" fill="#475569">5,000</text>
<line x1="570.63" y1="94" x2="570.63" y2="406" stroke="#e2e8f0"/>
<text x="570.63" y="431" font-size="12" text-anchor="middle" fill="#475569">10,000</text>
<line x1="637.83" y1="94" x2="637.83" y2="406" stroke="#e2e8f0"/>
<text x="637.83" y="431" font-size="12" text-anchor="middle" fill="#475569">20,000</text>
<line x1="726.66" y1="94" x2="726.66" y2="406" stroke="#e2e8f0"/>
<text x="726.66" y="431" font-size="12" text-anchor="middle" fill="#475569">50,000</text>
<line x1="793.86" y1="94" x2="793.86" y2="406" stroke="#e2e8f0"/>
<text x="793.86" y="431" font-size="12" text-anchor="middle" fill="#475569">100,000</text>
<line x1="861.06" y1="94" x2="861.06" y2="406" stroke="#e2e8f0"/>
<text x="861.06" y="431" font-size="12" text-anchor="middle" fill="#475569">200,000</text>
<line x1="949.89" y1="94" x2="949.89" y2="406" stroke="#e2e8f0"/>
<text x="949.89" y="431" font-size="12" text-anchor="middle" fill="#475569">500,000</text>
<line x1="100" y1="368.97" x2="998" y2="368.97" stroke="#e2e8f0"/>
<text x="87" y="372.97" font-size="12" text-anchor="end" fill="#475569">0.001</text>
<line x1="100" y1="316.61" x2="998" y2="316.61" stroke="#e2e8f0"/>
<text x="87" y="320.61" font-size="12" text-anchor="end" fill="#475569">0.01</text>
<line x1="100" y1="264.26" x2="998" y2="264.26" stroke="#e2e8f0"/>
<text x="87" y="268.26" font-size="12" text-anchor="end" fill="#475569">0.1</text>
<line x1="100" y1="211.90" x2="998" y2="211.90" stroke="#e2e8f0"/>
<text x="87" y="215.90" font-size="12" text-anchor="end" fill="#475569">1</text>
<line x1="100" y1="159.55" x2="998" y2="159.55" stroke="#e2e8f0"/>
<text x="87" y="163.55" font-size="12" text-anchor="end" fill="#475569">10</text>
<line x1="100" y1="107.19" x2="998" y2="107.19" stroke="#e2e8f0"/>
<text x="87" y="111.19" font-size="12" text-anchor="end" fill="#475569">100</text>
<path d="M100 94 V406 H998" fill="none" stroke="#94a3b8"/>
<text x="549" y="461" font-size="14" text-anchor="middle">Input size n (log scale)</text>
<text transform="translate(25 250) rotate(-90)" font-size="14" text-anchor="middle">Elapsed time [ms] (log scale)</text>
<polygon points="148.11,362.41 282.50,343.47 416.90,313.68 551.30,285.58 685.70,249.29 820.09,216.16 949.89,182.70 949.89,183.22 820.09,216.90 685.70,250.12 551.30,290.13 416.90,321.38 282.50,351.13 148.11,379.94" fill="#2563eb" fill-opacity="0.09"/>
<path d="M148.11,362.41 V379.94 M145.11,362.41 H151.11 M145.11,379.94 H151.11" stroke="#2563eb" stroke-opacity="0.5" fill="none"/>
<path d="M282.50,343.47 V351.13 M279.50,343.47 H285.50 M279.50,351.13 H285.50" stroke="#2563eb" stroke-opacity="0.5" fill="none"/>
<path d="M416.90,313.68 V321.38 M413.90,313.68 H419.90 M413.90,321.38 H419.90" stroke="#2563eb" stroke-opacity="0.5" fill="none"/>
<path d="M551.30,285.58 V290.13 M548.30,285.58 H554.30 M548.30,290.13 H554.30" stroke="#2563eb" stroke-opacity="0.5" fill="none"/>
<path d="M685.70,249.29 V250.12 M682.70,249.29 H688.70 M682.70,250.12 H688.70" stroke="#2563eb" stroke-opacity="0.5" fill="none"/>
<path d="M820.09,216.16 V216.90 M817.09,216.16 H823.09 M817.09,216.90 H823.09" stroke="#2563eb" stroke-opacity="0.5" fill="none"/>
<path d="M949.89,182.70 V183.22 M946.89,182.70 H952.89 M946.89,183.22 H952.89" stroke="#2563eb" stroke-opacity="0.5" fill="none"/>
<polyline points="148.11,379.11 282.50,350.52 416.90,321.32 551.30,290.03 685.70,249.62 820.09,216.47 949.89,183.06" fill="none" stroke="#2563eb" stroke-width="2.5"/>
<circle cx="148.11" cy="379.11" r="3.8" fill="white" stroke="#2563eb" stroke-width="2"/>
<circle cx="282.50" cy="350.52" r="3.8" fill="white" stroke="#2563eb" stroke-width="2"/>
<circle cx="416.90" cy="321.32" r="3.8" fill="white" stroke="#2563eb" stroke-width="2"/>
<circle cx="551.30" cy="290.03" r="3.8" fill="white" stroke="#2563eb" stroke-width="2"/>
<circle cx="685.70" cy="249.62" r="3.8" fill="white" stroke="#2563eb" stroke-width="2"/>
<circle cx="820.09" cy="216.47" r="3.8" fill="white" stroke="#2563eb" stroke-width="2"/>
<circle cx="949.89" cy="183.06" r="3.8" fill="white" stroke="#2563eb" stroke-width="2"/>
<polygon points="148.11,349.68 282.50,340.73 416.90,298.47 551.30,265.37 685.70,233.28 820.09,201.32 949.89,182.55 949.89,182.84 820.09,201.49 685.70,233.70 551.30,267.52 416.90,302.64 282.50,346.37 148.11,382.77" fill="#dc2626" fill-opacity="0.09"/>
<path d="M148.11,349.68 V382.77 M145.11,349.68 H151.11 M145.11,382.77 H151.11" stroke="#dc2626" stroke-opacity="0.5" fill="none"/>
<path d="M282.50,340.73 V346.37 M279.50,340.73 H285.50 M279.50,346.37 H285.50" stroke="#dc2626" stroke-opacity="0.5" fill="none"/>
<path d="M416.90,298.47 V302.64 M413.90,298.47 H419.90 M413.90,302.64 H419.90" stroke="#dc2626" stroke-opacity="0.5" fill="none"/>
<path d="M551.30,265.37 V267.52 M548.30,265.37 H554.30 M548.30,267.52 H554.30" stroke="#dc2626" stroke-opacity="0.5" fill="none"/>
<path d="M685.70,233.28 V233.70 M682.70,233.28 H688.70 M682.70,233.70 H688.70" stroke="#dc2626" stroke-opacity="0.5" fill="none"/>
<path d="M820.09,201.32 V201.49 M817.09,201.32 H823.09 M817.09,201.49 H823.09" stroke="#dc2626" stroke-opacity="0.5" fill="none"/>
<path d="M949.89,182.55 V182.84 M946.89,182.55 H952.89 M946.89,182.84 H952.89" stroke="#dc2626" stroke-opacity="0.5" fill="none"/>
<polyline points="148.11,381.85 282.50,346.24 416.90,302.31 551.30,266.74 685.70,233.57 820.09,201.37 949.89,182.76" fill="none" stroke="#dc2626" stroke-width="2.5"/>
<circle cx="148.11" cy="381.85" r="3.8" fill="white" stroke="#dc2626" stroke-width="2"/>
<circle cx="282.50" cy="346.24" r="3.8" fill="white" stroke="#dc2626" stroke-width="2"/>
<circle cx="416.90" cy="302.31" r="3.8" fill="white" stroke="#dc2626" stroke-width="2"/>
<circle cx="551.30" cy="266.74" r="3.8" fill="white" stroke="#dc2626" stroke-width="2"/>
<circle cx="685.70" cy="233.57" r="3.8" fill="white" stroke="#dc2626" stroke-width="2"/>
<circle cx="820.09" cy="201.37" r="3.8" fill="white" stroke="#dc2626" stroke-width="2"/>
<circle cx="949.89" cy="182.76" r="3.8" fill="white" stroke="#dc2626" stroke-width="2"/>
<polygon points="148.11,299.12 282.50,268.12 416.90,238.29 551.30,206.69 685.70,175.45 820.09,142.61 949.89,114.73 949.89,115.01 820.09,145.82 685.70,176.71 551.30,208.53 416.90,239.13 282.50,270.62 148.11,301.72" fill="#059669" fill-opacity="0.09"/>
<path d="M148.11,299.12 V301.72 M145.11,299.12 H151.11 M145.11,301.72 H151.11" stroke="#059669" stroke-opacity="0.5" fill="none"/>
<path d="M282.50,268.12 V270.62 M279.50,268.12 H285.50 M279.50,270.62 H285.50" stroke="#059669" stroke-opacity="0.5" fill="none"/>
<path d="M416.90,238.29 V239.13 M413.90,238.29 H419.90 M413.90,239.13 H419.90" stroke="#059669" stroke-opacity="0.5" fill="none"/>
<path d="M551.30,206.69 V208.53 M548.30,206.69 H554.30 M548.30,208.53 H554.30" stroke="#059669" stroke-opacity="0.5" fill="none"/>
<path d="M685.70,175.45 V176.71 M682.70,175.45 H688.70 M682.70,176.71 H688.70" stroke="#059669" stroke-opacity="0.5" fill="none"/>
<path d="M820.09,142.61 V145.82 M817.09,142.61 H823.09 M817.09,145.82 H823.09" stroke="#059669" stroke-opacity="0.5" fill="none"/>
<path d="M949.89,114.73 V115.01 M946.89,114.73 H952.89 M946.89,115.01 H952.89" stroke="#059669" stroke-opacity="0.5" fill="none"/>
<polyline points="148.11,301.63 282.50,269.75 416.90,238.51 551.30,206.70 685.70,175.57 820.09,143.47 949.89,114.99" fill="none" stroke="#059669" stroke-width="2.5"/>
<circle cx="148.11" cy="301.63" r="3.8" fill="white" stroke="#059669" stroke-width="2"/>
<circle cx="282.50" cy="269.75" r="3.8" fill="white" stroke="#059669" stroke-width="2"/>
<circle cx="416.90" cy="238.51" r="3.8" fill="white" stroke="#059669" stroke-width="2"/>
<circle cx="551.30" cy="206.70" r="3.8" fill="white" stroke="#059669" stroke-width="2"/>
<circle cx="685.70" cy="175.57" r="3.8" fill="white" stroke="#059669" stroke-width="2"/>
<circle cx="820.09" cy="143.47" r="3.8" fill="white" stroke="#059669" stroke-width="2"/>
<circle cx="949.89" cy="114.99" r="3.8" fill="white" stroke="#059669" stroke-width="2"/>
<polygon points="148.11,352.30 282.50,323.20 416.90,297.51 551.30,264.48 685.70,232.74 820.09,190.82 949.89,164.67 949.89,165.39 820.09,191.31 685.70,233.50 551.30,268.37 416.90,302.65 282.50,328.23 148.11,365.00" fill="#9333ea" fill-opacity="0.09"/>
<path d="M148.11,352.30 V365.00 M145.11,352.30 H151.11 M145.11,365.00 H151.11" stroke="#9333ea" stroke-opacity="0.5" fill="none"/>
<path d="M282.50,323.20 V328.23 M279.50,323.20 H285.50 M279.50,328.23 H285.50" stroke="#9333ea" stroke-opacity="0.5" fill="none"/>
<path d="M416.90,297.51 V302.65 M413.90,297.51 H419.90 M413.90,302.65 H419.90" stroke="#9333ea" stroke-opacity="0.5" fill="none"/>
<path d="M551.30,264.48 V268.37 M548.30,264.48 H554.30 M548.30,268.37 H554.30" stroke="#9333ea" stroke-opacity="0.5" fill="none"/>
<path d="M685.70,232.74 V233.50 M682.70,232.74 H688.70 M682.70,233.50 H688.70" stroke="#9333ea" stroke-opacity="0.5" fill="none"/>
<path d="M820.09,190.82 V191.31 M817.09,190.82 H823.09 M817.09,191.31 H823.09" stroke="#9333ea" stroke-opacity="0.5" fill="none"/>
<path d="M949.89,164.67 V165.39 M946.89,164.67 H952.89 M946.89,165.39 H952.89" stroke="#9333ea" stroke-opacity="0.5" fill="none"/>
<polyline points="148.11,364.76 282.50,328.18 416.90,302.57 551.30,267.73 685.70,233.16 820.09,191.21 949.89,165.22" fill="none" stroke="#9333ea" stroke-width="2.5"/>
<circle cx="148.11" cy="364.76" r="3.8" fill="white" stroke="#9333ea" stroke-width="2"/>
<circle cx="282.50" cy="328.18" r="3.8" fill="white" stroke="#9333ea" stroke-width="2"/>
<circle cx="416.90" cy="302.57" r="3.8" fill="white" stroke="#9333ea" stroke-width="2"/>
<circle cx="551.30" cy="267.73" r="3.8" fill="white" stroke="#9333ea" stroke-width="2"/>
<circle cx="685.70" cy="233.16" r="3.8" fill="white" stroke="#9333ea" stroke-width="2"/>
<circle cx="820.09" cy="191.21" r="3.8" fill="white" stroke="#9333ea" stroke-width="2"/>
<circle cx="949.89" cy="165.22" r="3.8" fill="white" stroke="#9333ea" stroke-width="2"/>
<polygon points="148.11,355.04 282.50,328.87 416.90,292.43 551.30,265.52 685.70,234.02 820.09,201.84 949.89,171.37 949.89,171.77 820.09,202.28 685.70,234.50 551.30,268.11 416.90,301.06 282.50,334.24 148.11,367.25" fill="#d97706" fill-opacity="0.09"/>
<path d="M148.11,355.04 V367.25 M145.11,355.04 H151.11 M145.11,367.25 H151.11" stroke="#d97706" stroke-opacity="0.5" fill="none"/>
<path d="M282.50,328.87 V334.24 M279.50,328.87 H285.50 M279.50,334.24 H285.50" stroke="#d97706" stroke-opacity="0.5" fill="none"/>
<path d="M416.90,292.43 V301.06 M413.90,292.43 H419.90 M413.90,301.06 H419.90" stroke="#d97706" stroke-opacity="0.5" fill="none"/>
<path d="M551.30,265.52 V268.11 M548.30,265.52 H554.30 M548.30,268.11 H554.30" stroke="#d97706" stroke-opacity="0.5" fill="none"/>
<path d="M685.70,234.02 V234.50 M682.70,234.02 H688.70 M682.70,234.50 H688.70" stroke="#d97706" stroke-opacity="0.5" fill="none"/>
<path d="M820.09,201.84 V202.28 M817.09,201.84 H823.09 M817.09,202.28 H823.09" stroke="#d97706" stroke-opacity="0.5" fill="none"/>
<path d="M949.89,171.37 V171.77 M946.89,171.37 H952.89 M946.89,171.77 H952.89" stroke="#d97706" stroke-opacity="0.5" fill="none"/>
<polyline points="148.11,366.91 282.50,333.97 416.90,300.59 551.30,267.15 685.70,234.26 820.09,202.23 949.89,171.73" fill="none" stroke="#d97706" stroke-width="2.5"/>
<circle cx="148.11" cy="366.91" r="3.8" fill="white" stroke="#d97706" stroke-width="2"/>
<circle cx="282.50" cy="333.97" r="3.8" fill="white" stroke="#d97706" stroke-width="2"/>
<circle cx="416.90" cy="300.59" r="3.8" fill="white" stroke="#d97706" stroke-width="2"/>
<circle cx="551.30" cy="267.15" r="3.8" fill="white" stroke="#d97706" stroke-width="2"/>
<circle cx="685.70" cy="234.26" r="3.8" fill="white" stroke="#d97706" stroke-width="2"/>
<circle cx="820.09" cy="202.23" r="3.8" fill="white" stroke="#d97706" stroke-width="2"/>
<circle cx="949.89" cy="171.73" r="3.8" fill="white" stroke="#d97706" stroke-width="2"/>
<polygon points="148.11,296.84 282.50,264.54 416.90,238.45 551.30,205.51 685.70,173.70 820.09,151.49 949.89,110.71 949.89,111.98 820.09,151.98 685.70,174.50 551.30,209.18 416.90,240.70 282.50,274.48 148.11,299.84" fill="#0891b2" fill-opacity="0.09"/>
<path d="M148.11,296.84 V299.84 M145.11,296.84 H151.11 M145.11,299.84 H151.11" stroke="#0891b2" stroke-opacity="0.5" fill="none"/>
<path d="M282.50,264.54 V274.48 M279.50,264.54 H285.50 M279.50,274.48 H285.50" stroke="#0891b2" stroke-opacity="0.5" fill="none"/>
<path d="M416.90,238.45 V240.70 M413.90,238.45 H419.90 M413.90,240.70 H419.90" stroke="#0891b2" stroke-opacity="0.5" fill="none"/>
<path d="M551.30,205.51 V209.18 M548.30,205.51 H554.30 M548.30,209.18 H554.30" stroke="#0891b2" stroke-opacity="0.5" fill="none"/>
<path d="M685.70,173.70 V174.50 M682.70,173.70 H688.70 M682.70,174.50 H688.70" stroke="#0891b2" stroke-opacity="0.5" fill="none"/>
<path d="M820.09,151.49 V151.98 M817.09,151.49 H823.09 M817.09,151.98 H823.09" stroke="#0891b2" stroke-opacity="0.5" fill="none"/>
<path d="M949.89,110.71 V111.98 M946.89,110.71 H952.89 M946.89,111.98 H952.89" stroke="#0891b2" stroke-opacity="0.5" fill="none"/>
<polyline points="148.11,298.32 282.50,272.91 416.90,239.38 551.30,208.41 685.70,174.08 820.09,151.80 949.89,111.72" fill="none" stroke="#0891b2" stroke-width="2.5"/>
<circle cx="148.11" cy="298.32" r="3.8" fill="white" stroke="#0891b2" stroke-width="2"/>
<circle cx="282.50" cy="272.91" r="3.8" fill="white" stroke="#0891b2" stroke-width="2"/>
<circle cx="416.90" cy="239.38" r="3.8" fill="white" stroke="#0891b2" stroke-width="2"/>
<circle cx="551.30" cy="208.41" r="3.8" fill="white" stroke="#0891b2" stroke-width="2"/>
<circle cx="685.70" cy="174.08" r="3.8" fill="white" stroke="#0891b2" stroke-width="2"/>
<circle cx="820.09" cy="151.80" r="3.8" fill="white" stroke="#0891b2" stroke-width="2"/>
<circle cx="949.89" cy="111.72" r="3.8" fill="white" stroke="#0891b2" stroke-width="2"/>
<polygon points="148.11,389.05 282.50,357.89 416.90,326.59 551.30,294.64 685.70,258.99 820.09,224.09 949.89,193.13 949.89,193.92 820.09,224.39 685.70,259.13 551.30,295.23 416.90,326.61 282.50,358.08 148.11,389.29" fill="#475569" fill-opacity="0.09"/>
<path d="M148.11,389.05 V389.29 M145.11,389.05 H151.11 M145.11,389.29 H151.11" stroke="#475569" stroke-opacity="0.5" fill="none"/>
<path d="M282.50,357.89 V358.08 M279.50,357.89 H285.50 M279.50,358.08 H285.50" stroke="#475569" stroke-opacity="0.5" fill="none"/>
<path d="M416.90,326.59 V326.61 M413.90,326.59 H419.90 M413.90,326.61 H419.90" stroke="#475569" stroke-opacity="0.5" fill="none"/>
<path d="M551.30,294.64 V295.23 M548.30,294.64 H554.30 M548.30,295.23 H554.30" stroke="#475569" stroke-opacity="0.5" fill="none"/>
<path d="M685.70,258.99 V259.13 M682.70,258.99 H688.70 M682.70,259.13 H688.70" stroke="#475569" stroke-opacity="0.5" fill="none"/>
<path d="M820.09,224.09 V224.39 M817.09,224.09 H823.09 M817.09,224.39 H823.09" stroke="#475569" stroke-opacity="0.5" fill="none"/>
<path d="M949.89,193.13 V193.92 M946.89,193.13 H952.89 M946.89,193.92 H952.89" stroke="#475569" stroke-opacity="0.5" fill="none"/>
<polyline points="148.11,389.16 282.50,358.03 416.90,326.60 551.30,295.21 685.70,259.06 820.09,224.25 949.89,193.73" fill="none" stroke="#475569" stroke-width="2.5" stroke-dasharray="7 5"/>
<rect x="144.31" y="385.36" width="7.6" height="7.6" fill="white" stroke="#475569" stroke-width="2"/>
<rect x="278.70" y="354.23" width="7.6" height="7.6" fill="white" stroke="#475569" stroke-width="2"/>
<rect x="413.10" y="322.80" width="7.6" height="7.6" fill="white" stroke="#475569" stroke-width="2"/>
<rect x="547.50" y="291.41" width="7.6" height="7.6" fill="white" stroke="#475569" stroke-width="2"/>
<rect x="681.90" y="255.26" width="7.6" height="7.6" fill="white" stroke="#475569" stroke-width="2"/>
<rect x="816.29" y="220.45" width="7.6" height="7.6" fill="white" stroke="#475569" stroke-width="2"/>
<rect x="946.09" y="189.93" width="7.6" height="7.6" fill="white" stroke="#475569" stroke-width="2"/>
<line x1="42" y1="489" x2="73" y2="489" stroke="#2563eb" stroke-width="2.5"/>
<circle cx="57.00" cy="489.00" r="3.8" fill="white" stroke="#2563eb" stroke-width="2"/>
<text x="83" y="493" font-size="12">local/acl-cffi (CFFI + C++) / PyPy 3.11.13</text>
<line x1="552" y1="489" x2="583" y2="489" stroke="#dc2626" stroke-width="2.5"/>
<circle cx="567.00" cy="489.00" r="3.8" fill="white" stroke="#dc2626" stroke-width="2"/>
<text x="593" y="493" font-size="12">lif4635/harurun-s-library (library_codex) / PyPy</text>
<text x="593" y="511" font-size="12">3.11.13</text>
<line x1="42" y1="541" x2="73" y2="541" stroke="#059669" stroke-width="2.5"/>
<circle cx="57.00" cy="541.00" r="3.8" fill="white" stroke="#059669" stroke-width="2"/>
<text x="83" y="545" font-size="12">local/acl-hpy (HPy Universal + C++) / PyPy 3.11.13</text>
<line x1="552" y1="541" x2="583" y2="541" stroke="#9333ea" stroke-width="2.5"/>
<circle cx="567.00" cy="541.00" r="3.8" fill="white" stroke="#9333ea" stroke-width="2"/>
<text x="593" y="545" font-size="12">not522/ac-library-python / PyPy 3.11.13</text>
<line x1="42" y1="575" x2="73" y2="575" stroke="#d97706" stroke-width="2.5"/>
<circle cx="57.00" cy="575.00" r="3.8" fill="white" stroke="#d97706" stroke-width="2"/>
<text x="83" y="579" font-size="12">shakayami/ACL-for-python / PyPy 3.11.13</text>
<line x1="552" y1="575" x2="583" y2="575" stroke="#0891b2" stroke-width="2.5"/>
<circle cx="567.00" cy="575.00" r="3.8" fill="white" stroke="#0891b2" stroke-width="2"/>
<text x="593" y="579" font-size="12">tatyam-prime/acl-cpp-python (C++) / PyPy 3.11.13</text>
<line x1="42" y1="609" x2="73" y2="609" stroke="#475569" stroke-width="2.5" stroke-dasharray="7 5"/>
<rect x="53.20" y="605.20" width="7.6" height="7.6" fill="white" stroke="#475569" stroke-width="2"/>
<text x="83" y="613" font-size="12">C++ ACL（参考用） / C++ 17</text>
</g></svg>
