<svg xmlns="http://www.w3.org/2000/svg" width="1040" height="568" viewBox="0 0 1040 568" role="img" aria-labelledby="title desc">
<title id="title">Minimum-cost flow / PyPy 3.11.13 benchmark</title>
<desc id="desc">Median elapsed time versus input size. Bands and whiskers show the observed minimum and maximum. X axis: log. Y axis: log. Lower is faster.</desc>
<rect width="100%" height="100%" rx="12" fill="white"/>
<g font-family="-apple-system, BlinkMacSystemFont, Segoe UI, sans-serif" fill="#0f172a">
<text x="40" y="36" font-size="23" font-weight="700">Minimum-cost flow / PyPy 3.11.13</text>
<text x="40" y="61" font-size="13" fill="#64748b">Lower is faster · median line · observed min–max range</text>
<line x1="216.46" y1="94" x2="216.46" y2="406" stroke="#e2e8f0"/>
<text x="216.46" y="431" font-size="12" text-anchor="middle" fill="#475569">10</text>
<line x1="414.63" y1="94" x2="414.63" y2="406" stroke="#e2e8f0"/>
<text x="414.63" y="431" font-size="12" text-anchor="middle" fill="#475569">20</text>
<line x1="676.59" y1="94" x2="676.59" y2="406" stroke="#e2e8f0"/>
<text x="676.59" y="431" font-size="12" text-anchor="middle" fill="#475569">50</text>
<line x1="874.76" y1="94" x2="874.76" y2="406" stroke="#e2e8f0"/>
<text x="874.76" y="431" font-size="12" text-anchor="middle" fill="#475569">100</text>
<line x1="100" y1="369.76" x2="998" y2="369.76" stroke="#e2e8f0"/>
<text x="87" y="373.76" font-size="12" text-anchor="end" fill="#475569">0.05</text>
<line x1="100" y1="336.19" x2="998" y2="336.19" stroke="#e2e8f0"/>
<text x="87" y="340.19" font-size="12" text-anchor="end" fill="#475569">0.1</text>
<line x1="100" y1="302.62" x2="998" y2="302.62" stroke="#e2e8f0"/>
<text x="87" y="306.62" font-size="12" text-anchor="end" fill="#475569">0.2</text>
<line x1="100" y1="258.25" x2="998" y2="258.25" stroke="#e2e8f0"/>
<text x="87" y="262.25" font-size="12" text-anchor="end" fill="#475569">0.5</text>
<line x1="100" y1="224.68" x2="998" y2="224.68" stroke="#e2e8f0"/>
<text x="87" y="228.68" font-size="12" text-anchor="end" fill="#475569">1</text>
<line x1="100" y1="191.11" x2="998" y2="191.11" stroke="#e2e8f0"/>
<text x="87" y="195.11" font-size="12" text-anchor="end" fill="#475569">2</text>
<line x1="100" y1="146.74" x2="998" y2="146.74" stroke="#e2e8f0"/>
<text x="87" y="150.74" font-size="12" text-anchor="end" fill="#475569">5</text>
<line x1="100" y1="113.17" x2="998" y2="113.17" stroke="#e2e8f0"/>
<text x="87" y="117.17" font-size="12" text-anchor="end" fill="#475569">10</text>
<path d="M100 94 V406 H998" fill="none" stroke="#94a3b8"/>
<text x="549" y="461" font-size="14" text-anchor="middle">Input size n (log scale)</text>
<text transform="translate(25 250) rotate(-90)" font-size="14" text-anchor="middle">Elapsed time [ms] (log scale)</text>
<polygon points="152.66,373.19 350.83,327.22 549.00,236.64 747.17,197.39 945.34,127.91 945.34,132.42 747.17,200.82 549.00,266.29 350.83,339.75 152.66,389.29" fill="#2563eb" fill-opacity="0.09"/>
<path d="M152.66,373.19 V389.29 M149.66,373.19 H155.66 M149.66,389.29 H155.66" stroke="#2563eb" stroke-opacity="0.5" fill="none"/>
<path d="M350.83,327.22 V339.75 M347.83,327.22 H353.83 M347.83,339.75 H353.83" stroke="#2563eb" stroke-opacity="0.5" fill="none"/>
<path d="M549.00,236.64 V266.29 M546.00,236.64 H552.00 M546.00,266.29 H552.00" stroke="#2563eb" stroke-opacity="0.5" fill="none"/>
<path d="M747.17,197.39 V200.82 M744.17,197.39 H750.17 M744.17,200.82 H750.17" stroke="#2563eb" stroke-opacity="0.5" fill="none"/>
<path d="M945.34,127.91 V132.42 M942.34,127.91 H948.34 M942.34,132.42 H948.34" stroke="#2563eb" stroke-opacity="0.5" fill="none"/>
<polyline points="152.66,389.16 350.83,336.47 549.00,262.88 747.17,199.34 945.34,131.28" fill="none" stroke="#2563eb" stroke-width="2.5"/>
<circle cx="152.66" cy="389.16" r="3.8" fill="white" stroke="#2563eb" stroke-width="2"/>
<circle cx="350.83" cy="336.47" r="3.8" fill="white" stroke="#2563eb" stroke-width="2"/>
<circle cx="549.00" cy="262.88" r="3.8" fill="white" stroke="#2563eb" stroke-width="2"/>
<circle cx="747.17" cy="199.34" r="3.8" fill="white" stroke="#2563eb" stroke-width="2"/>
<circle cx="945.34" cy="131.28" r="3.8" fill="white" stroke="#2563eb" stroke-width="2"/>
<polygon points="152.66,358.79 350.83,309.48 549.00,241.25 747.17,169.96 945.34,110.71 945.34,114.53 747.17,181.45 549.00,248.98 350.83,318.33 152.66,377.17" fill="#dc2626" fill-opacity="0.09"/>
<path d="M152.66,358.79 V377.17 M149.66,358.79 H155.66 M149.66,377.17 H155.66" stroke="#dc2626" stroke-opacity="0.5" fill="none"/>
<path d="M350.83,309.48 V318.33 M347.83,309.48 H353.83 M347.83,318.33 H353.83" stroke="#dc2626" stroke-opacity="0.5" fill="none"/>
<path d="M549.00,241.25 V248.98 M546.00,241.25 H552.00 M546.00,248.98 H552.00" stroke="#dc2626" stroke-opacity="0.5" fill="none"/>
<path d="M747.17,169.96 V181.45 M744.17,169.96 H750.17 M744.17,181.45 H750.17" stroke="#dc2626" stroke-opacity="0.5" fill="none"/>
<path d="M945.34,110.71 V114.53 M942.34,110.71 H948.34 M942.34,114.53 H948.34" stroke="#dc2626" stroke-opacity="0.5" fill="none"/>
<polyline points="152.66,371.72 350.83,317.26 549.00,245.76 747.17,180.55 945.34,112.49" fill="none" stroke="#dc2626" stroke-width="2.5"/>
<circle cx="152.66" cy="371.72" r="3.8" fill="white" stroke="#dc2626" stroke-width="2"/>
<circle cx="350.83" cy="317.26" r="3.8" fill="white" stroke="#dc2626" stroke-width="2"/>
<circle cx="549.00" cy="245.76" r="3.8" fill="white" stroke="#dc2626" stroke-width="2"/>
<circle cx="747.17" cy="180.55" r="3.8" fill="white" stroke="#dc2626" stroke-width="2"/>
<circle cx="945.34" cy="112.49" r="3.8" fill="white" stroke="#dc2626" stroke-width="2"/>
<polygon points="152.66,363.33 350.83,318.62 549.00,296.93 747.17,259.64 945.34,212.81 945.34,219.13 747.17,261.59 549.00,298.02 350.83,332.54 152.66,364.67" fill="#059669" fill-opacity="0.09"/>
<path d="M152.66,363.33 V364.67 M149.66,363.33 H155.66 M149.66,364.67 H155.66" stroke="#059669" stroke-opacity="0.5" fill="none"/>
<path d="M350.83,318.62 V332.54 M347.83,318.62 H353.83 M347.83,332.54 H353.83" stroke="#059669" stroke-opacity="0.5" fill="none"/>
<path d="M549.00,296.93 V298.02 M546.00,296.93 H552.00 M546.00,298.02 H552.00" stroke="#059669" stroke-opacity="0.5" fill="none"/>
<path d="M747.17,259.64 V261.59 M744.17,259.64 H750.17 M744.17,261.59 H750.17" stroke="#059669" stroke-opacity="0.5" fill="none"/>
<path d="M945.34,212.81 V219.13 M942.34,212.81 H948.34 M942.34,219.13 H948.34" stroke="#059669" stroke-opacity="0.5" fill="none"/>
<polyline points="152.66,364.19 350.83,330.54 549.00,297.23 747.17,261.13 945.34,217.51" fill="none" stroke="#059669" stroke-width="2.5"/>
<circle cx="152.66" cy="364.19" r="3.8" fill="white" stroke="#059669" stroke-width="2"/>
<circle cx="350.83" cy="330.54" r="3.8" fill="white" stroke="#059669" stroke-width="2"/>
<circle cx="549.00" cy="297.23" r="3.8" fill="white" stroke="#059669" stroke-width="2"/>
<circle cx="747.17" cy="261.13" r="3.8" fill="white" stroke="#059669" stroke-width="2"/>
<circle cx="945.34" cy="217.51" r="3.8" fill="white" stroke="#059669" stroke-width="2"/>
<line x1="42" y1="489" x2="73" y2="489" stroke="#2563eb" stroke-width="2.5"/>
<circle cx="57.00" cy="489.00" r="3.8" fill="white" stroke="#2563eb" stroke-width="2"/>
<text x="83" y="493" font-size="12">not522/ac-library-python / PyPy 3.11.13</text>
<line x1="552" y1="489" x2="583" y2="489" stroke="#dc2626" stroke-width="2.5"/>
<circle cx="567.00" cy="489.00" r="3.8" fill="white" stroke="#dc2626" stroke-width="2"/>
<text x="593" y="493" font-size="12">shakayami/ACL-for-python / PyPy 3.11.13</text>
<line x1="42" y1="523" x2="73" y2="523" stroke="#059669" stroke-width="2.5"/>
<circle cx="57.00" cy="523.00" r="3.8" fill="white" stroke="#059669" stroke-width="2"/>
<text x="83" y="527" font-size="12">tatyam-prime/acl-cpp-python (C++) / PyPy 3.11.13</text>
</g></svg>
