<svg xmlns="http://www.w3.org/2000/svg" width="1040" height="654" viewBox="0 0 1040 654" role="img" aria-labelledby="title desc">
<title id="title">Suffix array / PyPy 3.11.13 benchmark</title>
<desc id="desc">Median elapsed time versus input size. Bands and whiskers show the observed minimum and maximum. X axis: log. Y axis: log. Lower is faster.</desc>
<rect width="100%" height="100%" rx="12" fill="white"/>
<g font-family="-apple-system, BlinkMacSystemFont, Segoe UI, sans-serif" fill="#0f172a">
<text x="40" y="36" font-size="23" font-weight="700">Suffix array / PyPy 3.11.13</text>
<text x="40" y="61" font-size="13" fill="#64748b">Lower is faster · median line · observed min–max range</text>
<text x="40" y="81" font-size="11" fill="#475569">参考用：C++単体の実行時間（Pythonとの値変換・プロセス起動・入出力を除外）。</text>
<line x1="124.17" y1="94" x2="124.17" y2="406" stroke="#e2e8f0"/>
<text x="124.17" y="431" font-size="12" text-anchor="middle" fill="#475569">100</text>
<line x1="191.37" y1="94" x2="191.37" y2="406" stroke="#e2e8f0"/>
<text x="191.37" y="431" font-size="12" text-anchor="middle" fill="#475569">200</text>
<line x1="280.21" y1="94" x2="280.21" y2="406" stroke="#e2e8f0"/>
<text x="280.21" y="431" font-size="12" text-anchor="middle" fill="#475569">500</text>
<line x1="347.40" y1="94" x2="347.40" y2="406" stroke="#e2e8f0"/>
<text x="347.40" y="431" font-size="12" text-anchor="middle" fill="#475569">1,000</text>
<line x1="414.60" y1="94" x2="414.60" y2="406" stroke="#e2e8f0"/>
<text x="414.60" y="431" font-size="12" text-anchor="middle" fill="#475569">2,000</text>
<line x1="503.43" y1="94" x2="503.43" y2="406" stroke="#e2e8f0"/>
<text x="503.43" y="431" font-size="12" text-anchor="middle" fill="#475569">5,000</text>
<line x1="570.63" y1="94" x2="570.63" y2="406" stroke="#e2e8f0"/>
<text x="570.63" y="431" font-size="12" text-anchor="middle" fill="#475569">10,000</text>
<line x1="637.83" y1="94" x2="637.83" y2="406" stroke="#e2e8f0"/>
<text x="637.83" y="431" font-size="12" text-anchor="middle" fill="#475569">20,000</text>
<line x1="726.66" y1="94" x2="726.66" y2="406" stroke="#e2e8f0"/>
<text x="726.66" y="431" font-size="12" text-anchor="middle" fill="#475569">50,000</text>
<line x1="793.86" y1="94" x2="793.86" y2="406" stroke="#e2e8f0"/>
<text x="793.86" y="431" font-size="12" text-anchor="middle" fill="#475569">100,000</text>
<line x1="861.06" y1="94" x2="861.06" y2="406" stroke="#e2e8f0"/>
<text x="861.06" y="431" font-size="12" text-anchor="middle" fill="#475569">200,000</text>
<line x1="949.89" y1="94" x2="949.89" y2="406" stroke="#e2e8f0"/>
<text x="949.89" y="431" font-size="12" text-anchor="middle" fill="#475569">500,000</text>
<line x1="100" y1="371.57" x2="998" y2="371.57" stroke="#e2e8f0"/>
<text x="87" y="375.57" font-size="12" text-anchor="end" fill="#475569">0.01</text>
<line x1="100" y1="307.93" x2="998" y2="307.93" stroke="#e2e8f0"/>
<text x="87" y="311.93" font-size="12" text-anchor="end" fill="#475569">0.1</text>
<line x1="100" y1="244.30" x2="998" y2="244.30" stroke="#e2e8f0"/>
<text x="87" y="248.30" font-size="12" text-anchor="end" fill="#475569">1</text>
<line x1="100" y1="180.67" x2="998" y2="180.67" stroke="#e2e8f0"/>
<text x="87" y="184.67" font-size="12" text-anchor="end" fill="#475569">10</text>
<line x1="100" y1="117.03" x2="998" y2="117.03" stroke="#e2e8f0"/>
<text x="87" y="121.03" font-size="12" text-anchor="end" fill="#475569">100</text>
<path d="M100 94 V406 H998" fill="none" stroke="#94a3b8"/>
<text x="549" y="461" font-size="14" text-anchor="middle">Input size n (log scale)</text>
<text transform="translate(25 250) rotate(-90)" font-size="14" text-anchor="middle">Elapsed time [ms] (log scale)</text>
<polygon points="148.11,377.08 282.50,347.38 416.90,309.31 551.30,262.27 685.70,222.58 820.09,182.51 949.89,140.93 949.89,143.05 820.09,182.76 685.70,222.97 551.30,262.63 416.90,314.22 282.50,352.27 148.11,385.81" fill="#2563eb" fill-opacity="0.09"/>
<path d="M148.11,377.08 V385.81 M145.11,377.08 H151.11 M145.11,385.81 H151.11" stroke="#2563eb" stroke-opacity="0.5" fill="none"/>
<path d="M282.50,347.38 V352.27 M279.50,347.38 H285.50 M279.50,352.27 H285.50" stroke="#2563eb" stroke-opacity="0.5" fill="none"/>
<path d="M416.90,309.31 V314.22 M413.90,309.31 H419.90 M413.90,314.22 H419.90" stroke="#2563eb" stroke-opacity="0.5" fill="none"/>
<path d="M551.30,262.27 V262.63 M548.30,262.27 H554.30 M548.30,262.63 H554.30" stroke="#2563eb" stroke-opacity="0.5" fill="none"/>
<path d="M685.70,222.58 V222.97 M682.70,222.58 H688.70 M682.70,222.97 H688.70" stroke="#2563eb" stroke-opacity="0.5" fill="none"/>
<path d="M820.09,182.51 V182.76 M817.09,182.51 H823.09 M817.09,182.76 H823.09" stroke="#2563eb" stroke-opacity="0.5" fill="none"/>
<path d="M949.89,140.93 V143.05 M946.89,140.93 H952.89 M946.89,143.05 H952.89" stroke="#2563eb" stroke-opacity="0.5" fill="none"/>
<polyline points="148.11,385.73 282.50,352.10 416.90,314.05 551.30,262.59 685.70,222.83 820.09,182.58 949.89,141.76" fill="none" stroke="#2563eb" stroke-width="2.5"/>
<circle cx="148.11" cy="385.73" r="3.8" fill="white" stroke="#2563eb" stroke-width="2"/>
<circle cx="282.50" cy="352.10" r="3.8" fill="white" stroke="#2563eb" stroke-width="2"/>
<circle cx="416.90" cy="314.05" r="3.8" fill="white" stroke="#2563eb" stroke-width="2"/>
<circle cx="551.30" cy="262.59" r="3.8" fill="white" stroke="#2563eb" stroke-width="2"/>
<circle cx="685.70" cy="222.83" r="3.8" fill="white" stroke="#2563eb" stroke-width="2"/>
<circle cx="820.09" cy="182.58" r="3.8" fill="white" stroke="#2563eb" stroke-width="2"/>
<circle cx="949.89" cy="141.76" r="3.8" fill="white" stroke="#2563eb" stroke-width="2"/>
<polygon points="148.11,357.47 282.50,323.82 416.90,289.78 551.30,236.85 685.70,197.77 820.09,157.61 949.89,113.10 949.89,114.80 820.09,158.25 685.70,200.34 551.30,244.70 416.90,291.14 282.50,331.64 148.11,365.20" fill="#dc2626" fill-opacity="0.09"/>
<path d="M148.11,357.47 V365.20 M145.11,357.47 H151.11 M145.11,365.20 H151.11" stroke="#dc2626" stroke-opacity="0.5" fill="none"/>
<path d="M282.50,323.82 V331.64 M279.50,323.82 H285.50 M279.50,331.64 H285.50" stroke="#dc2626" stroke-opacity="0.5" fill="none"/>
<path d="M416.90,289.78 V291.14 M413.90,289.78 H419.90 M413.90,291.14 H419.90" stroke="#dc2626" stroke-opacity="0.5" fill="none"/>
<path d="M551.30,236.85 V244.70 M548.30,236.85 H554.30 M548.30,244.70 H554.30" stroke="#dc2626" stroke-opacity="0.5" fill="none"/>
<path d="M685.70,197.77 V200.34 M682.70,197.77 H688.70 M682.70,200.34 H688.70" stroke="#dc2626" stroke-opacity="0.5" fill="none"/>
<path d="M820.09,157.61 V158.25 M817.09,157.61 H823.09 M817.09,158.25 H823.09" stroke="#dc2626" stroke-opacity="0.5" fill="none"/>
<path d="M949.89,113.10 V114.80 M946.89,113.10 H952.89 M946.89,114.80 H952.89" stroke="#dc2626" stroke-opacity="0.5" fill="none"/>
<polyline points="148.11,365.16 282.50,327.92 416.90,290.14 551.30,244.33 685.70,200.16 820.09,157.86 949.89,114.48" fill="none" stroke="#dc2626" stroke-width="2.5"/>
<circle cx="148.11" cy="365.16" r="3.8" fill="white" stroke="#dc2626" stroke-width="2"/>
<circle cx="282.50" cy="327.92" r="3.8" fill="white" stroke="#dc2626" stroke-width="2"/>
<circle cx="416.90" cy="290.14" r="3.8" fill="white" stroke="#dc2626" stroke-width="2"/>
<circle cx="551.30" cy="244.33" r="3.8" fill="white" stroke="#dc2626" stroke-width="2"/>
<circle cx="685.70" cy="200.16" r="3.8" fill="white" stroke="#dc2626" stroke-width="2"/>
<circle cx="820.09" cy="157.86" r="3.8" fill="white" stroke="#dc2626" stroke-width="2"/>
<circle cx="949.89" cy="114.48" r="3.8" fill="white" stroke="#dc2626" stroke-width="2"/>
<polygon points="148.11,340.73 282.50,304.86 416.90,266.73 551.30,226.43 685.70,188.73 820.09,148.25 949.89,113.20 949.89,113.77 820.09,151.05 685.70,189.50 551.30,227.66 416.90,267.25 282.50,306.25 148.11,343.02" fill="#059669" fill-opacity="0.09"/>
<path d="M148.11,340.73 V343.02 M145.11,340.73 H151.11 M145.11,343.02 H151.11" stroke="#059669" stroke-opacity="0.5" fill="none"/>
<path d="M282.50,304.86 V306.25 M279.50,304.86 H285.50 M279.50,306.25 H285.50" stroke="#059669" stroke-opacity="0.5" fill="none"/>
<path d="M416.90,266.73 V267.25 M413.90,266.73 H419.90 M413.90,267.25 H419.90" stroke="#059669" stroke-opacity="0.5" fill="none"/>
<path d="M551.30,226.43 V227.66 M548.30,226.43 H554.30 M548.30,227.66 H554.30" stroke="#059669" stroke-opacity="0.5" fill="none"/>
<path d="M685.70,188.73 V189.50 M682.70,188.73 H688.70 M682.70,189.50 H688.70" stroke="#059669" stroke-opacity="0.5" fill="none"/>
<path d="M820.09,148.25 V151.05 M817.09,148.25 H823.09 M817.09,151.05 H823.09" stroke="#059669" stroke-opacity="0.5" fill="none"/>
<path d="M949.89,113.20 V113.77 M946.89,113.20 H952.89 M946.89,113.77 H952.89" stroke="#059669" stroke-opacity="0.5" fill="none"/>
<polyline points="148.11,342.93 282.50,306.01 416.90,266.83 551.30,226.74 685.70,188.90 820.09,148.30 949.89,113.60" fill="none" stroke="#059669" stroke-width="2.5"/>
<circle cx="148.11" cy="342.93" r="3.8" fill="white" stroke="#059669" stroke-width="2"/>
<circle cx="282.50" cy="306.01" r="3.8" fill="white" stroke="#059669" stroke-width="2"/>
<circle cx="416.90" cy="266.83" r="3.8" fill="white" stroke="#059669" stroke-width="2"/>
<circle cx="551.30" cy="226.74" r="3.8" fill="white" stroke="#059669" stroke-width="2"/>
<circle cx="685.70" cy="188.90" r="3.8" fill="white" stroke="#059669" stroke-width="2"/>
<circle cx="820.09" cy="148.30" r="3.8" fill="white" stroke="#059669" stroke-width="2"/>
<circle cx="949.89" cy="113.60" r="3.8" fill="white" stroke="#059669" stroke-width="2"/>
<polygon points="148.11,290.14 282.50,277.75 416.90,249.97 551.30,224.38 685.70,191.82 820.09,154.09 949.89,110.71 949.89,112.95 820.09,156.84 685.70,193.52 551.30,230.03 416.90,255.34 282.50,278.42 148.11,290.87" fill="#9333ea" fill-opacity="0.09"/>
<path d="M148.11,290.14 V290.87 M145.11,290.14 H151.11 M145.11,290.87 H151.11" stroke="#9333ea" stroke-opacity="0.5" fill="none"/>
<path d="M282.50,277.75 V278.42 M279.50,277.75 H285.50 M279.50,278.42 H285.50" stroke="#9333ea" stroke-opacity="0.5" fill="none"/>
<path d="M416.90,249.97 V255.34 M413.90,249.97 H419.90 M413.90,255.34 H419.90" stroke="#9333ea" stroke-opacity="0.5" fill="none"/>
<path d="M551.30,224.38 V230.03 M548.30,224.38 H554.30 M548.30,230.03 H554.30" stroke="#9333ea" stroke-opacity="0.5" fill="none"/>
<path d="M685.70,191.82 V193.52 M682.70,191.82 H688.70 M682.70,193.52 H688.70" stroke="#9333ea" stroke-opacity="0.5" fill="none"/>
<path d="M820.09,154.09 V156.84 M817.09,154.09 H823.09 M817.09,156.84 H823.09" stroke="#9333ea" stroke-opacity="0.5" fill="none"/>
<path d="M949.89,110.71 V112.95 M946.89,110.71 H952.89 M946.89,112.95 H952.89" stroke="#9333ea" stroke-opacity="0.5" fill="none"/>
<polyline points="148.11,290.58 282.50,277.96 416.90,253.40 551.30,226.41 685.70,192.47 820.09,155.08 949.89,112.47" fill="none" stroke="#9333ea" stroke-width="2.5"/>
<circle cx="148.11" cy="290.58" r="3.8" fill="white" stroke="#9333ea" stroke-width="2"/>
<circle cx="282.50" cy="277.96" r="3.8" fill="white" stroke="#9333ea" stroke-width="2"/>
<circle cx="416.90" cy="253.40" r="3.8" fill="white" stroke="#9333ea" stroke-width="2"/>
<circle cx="551.30" cy="226.41" r="3.8" fill="white" stroke="#9333ea" stroke-width="2"/>
<circle cx="685.70" cy="192.47" r="3.8" fill="white" stroke="#9333ea" stroke-width="2"/>
<circle cx="820.09" cy="155.08" r="3.8" fill="white" stroke="#9333ea" stroke-width="2"/>
<circle cx="949.89" cy="112.47" r="3.8" fill="white" stroke="#9333ea" stroke-width="2"/>
<polygon points="148.11,355.52 282.50,320.66 416.90,279.43 551.30,236.91 685.70,192.11 820.09,155.26 949.89,112.86 949.89,114.37 820.09,156.48 685.70,195.43 551.30,239.02 416.90,279.90 282.50,325.27 148.11,360.52" fill="#d97706" fill-opacity="0.09"/>
<path d="M148.11,355.52 V360.52 M145.11,355.52 H151.11 M145.11,360.52 H151.11" stroke="#d97706" stroke-opacity="0.5" fill="none"/>
<path d="M282.50,320.66 V325.27 M279.50,320.66 H285.50 M279.50,325.27 H285.50" stroke="#d97706" stroke-opacity="0.5" fill="none"/>
<path d="M416.90,279.43 V279.90 M413.90,279.43 H419.90 M413.90,279.90 H419.90" stroke="#d97706" stroke-opacity="0.5" fill="none"/>
<path d="M551.30,236.91 V239.02 M548.30,236.91 H554.30 M548.30,239.02 H554.30" stroke="#d97706" stroke-opacity="0.5" fill="none"/>
<path d="M685.70,192.11 V195.43 M682.70,192.11 H688.70 M682.70,195.43 H688.70" stroke="#d97706" stroke-opacity="0.5" fill="none"/>
<path d="M820.09,155.26 V156.48 M817.09,155.26 H823.09 M817.09,156.48 H823.09" stroke="#d97706" stroke-opacity="0.5" fill="none"/>
<path d="M949.89,112.86 V114.37 M946.89,112.86 H952.89 M946.89,114.37 H952.89" stroke="#d97706" stroke-opacity="0.5" fill="none"/>
<polyline points="148.11,360.42 282.50,323.64 416.90,279.89 551.30,238.95 685.70,194.80 820.09,155.59 949.89,113.14" fill="none" stroke="#d97706" stroke-width="2.5"/>
<circle cx="148.11" cy="360.42" r="3.8" fill="white" stroke="#d97706" stroke-width="2"/>
<circle cx="282.50" cy="323.64" r="3.8" fill="white" stroke="#d97706" stroke-width="2"/>
<circle cx="416.90" cy="279.89" r="3.8" fill="white" stroke="#d97706" stroke-width="2"/>
<circle cx="551.30" cy="238.95" r="3.8" fill="white" stroke="#d97706" stroke-width="2"/>
<circle cx="685.70" cy="194.80" r="3.8" fill="white" stroke="#d97706" stroke-width="2"/>
<circle cx="820.09" cy="155.59" r="3.8" fill="white" stroke="#d97706" stroke-width="2"/>
<circle cx="949.89" cy="113.14" r="3.8" fill="white" stroke="#d97706" stroke-width="2"/>
<polygon points="148.11,338.59 282.50,305.38 416.90,207.54 551.30,233.23 685.70,196.23 820.09,159.09 949.89,114.01 949.89,116.66 820.09,159.35 685.70,198.84 551.30,235.60 416.90,272.19 282.50,314.54 148.11,349.22" fill="#0891b2" fill-opacity="0.09"/>
<path d="M148.11,338.59 V349.22 M145.11,338.59 H151.11 M145.11,349.22 H151.11" stroke="#0891b2" stroke-opacity="0.5" fill="none"/>
<path d="M282.50,305.38 V314.54 M279.50,305.38 H285.50 M279.50,314.54 H285.50" stroke="#0891b2" stroke-opacity="0.5" fill="none"/>
<path d="M416.90,207.54 V272.19 M413.90,207.54 H419.90 M413.90,272.19 H419.90" stroke="#0891b2" stroke-opacity="0.5" fill="none"/>
<path d="M551.30,233.23 V235.60 M548.30,233.23 H554.30 M548.30,235.60 H554.30" stroke="#0891b2" stroke-opacity="0.5" fill="none"/>
<path d="M685.70,196.23 V198.84 M682.70,196.23 H688.70 M682.70,198.84 H688.70" stroke="#0891b2" stroke-opacity="0.5" fill="none"/>
<path d="M820.09,159.09 V159.35 M817.09,159.09 H823.09 M817.09,159.35 H823.09" stroke="#0891b2" stroke-opacity="0.5" fill="none"/>
<path d="M949.89,114.01 V116.66 M946.89,114.01 H952.89 M946.89,116.66 H952.89" stroke="#0891b2" stroke-opacity="0.5" fill="none"/>
<polyline points="148.11,349.01 282.50,307.14 416.90,271.56 551.30,235.33 685.70,197.39 820.09,159.16 949.89,114.44" fill="none" stroke="#0891b2" stroke-width="2.5"/>
<circle cx="148.11" cy="349.01" r="3.8" fill="white" stroke="#0891b2" stroke-width="2"/>
<circle cx="282.50" cy="307.14" r="3.8" fill="white" stroke="#0891b2" stroke-width="2"/>
<circle cx="416.90" cy="271.56" r="3.8" fill="white" stroke="#0891b2" stroke-width="2"/>
<circle cx="551.30" cy="235.33" r="3.8" fill="white" stroke="#0891b2" stroke-width="2"/>
<circle cx="685.70" cy="197.39" r="3.8" fill="white" stroke="#0891b2" stroke-width="2"/>
<circle cx="820.09" cy="159.16" r="3.8" fill="white" stroke="#0891b2" stroke-width="2"/>
<circle cx="949.89" cy="114.44" r="3.8" fill="white" stroke="#0891b2" stroke-width="2"/>
<polygon points="148.11,389.22 282.50,356.67 416.90,320.47 551.30,265.88 685.70,225.90 820.09,185.19 949.89,144.84 949.89,145.78 820.09,185.61 685.70,226.09 551.30,265.99 416.90,320.67 282.50,356.96 148.11,389.29" fill="#475569" fill-opacity="0.09"/>
<path d="M148.11,389.22 V389.29 M145.11,389.22 H151.11 M145.11,389.29 H151.11" stroke="#475569" stroke-opacity="0.5" fill="none"/>
<path d="M282.50,356.67 V356.96 M279.50,356.67 H285.50 M279.50,356.96 H285.50" stroke="#475569" stroke-opacity="0.5" fill="none"/>
<path d="M416.90,320.47 V320.67 M413.90,320.47 H419.90 M413.90,320.67 H419.90" stroke="#475569" stroke-opacity="0.5" fill="none"/>
<path d="M551.30,265.88 V265.99 M548.30,265.88 H554.30 M548.30,265.99 H554.30" stroke="#475569" stroke-opacity="0.5" fill="none"/>
<path d="M685.70,225.90 V226.09 M682.70,225.90 H688.70 M682.70,226.09 H688.70" stroke="#475569" stroke-opacity="0.5" fill="none"/>
<path d="M820.09,185.19 V185.61 M817.09,185.19 H823.09 M817.09,185.61 H823.09" stroke="#475569" stroke-opacity="0.5" fill="none"/>
<path d="M949.89,144.84 V145.78 M946.89,144.84 H952.89 M946.89,145.78 H952.89" stroke="#475569" stroke-opacity="0.5" fill="none"/>
<polyline points="148.11,389.24 282.50,356.86 416.90,320.63 551.30,265.98 685.70,226.07 820.09,185.52 949.89,145.71" fill="none" stroke="#475569" stroke-width="2.5" stroke-dasharray="7 5"/>
<rect x="144.31" y="385.44" width="7.6" height="7.6" fill="white" stroke="#475569" stroke-width="2"/>
<rect x="278.70" y="353.06" width="7.6" height="7.6" fill="white" stroke="#475569" stroke-width="2"/>
<rect x="413.10" y="316.83" width="7.6" height="7.6" fill="white" stroke="#475569" stroke-width="2"/>
<rect x="547.50" y="262.18" width="7.6" height="7.6" fill="white" stroke="#475569" stroke-width="2"/>
<rect x="681.90" y="222.27" width="7.6" height="7.6" fill="white" stroke="#475569" stroke-width="2"/>
<rect x="816.29" y="181.72" width="7.6" height="7.6" fill="white" stroke="#475569" stroke-width="2"/>
<rect x="946.09" y="141.91" width="7.6" height="7.6" fill="white" stroke="#475569" stroke-width="2"/>
<line x1="42" y1="489" x2="73" y2="489" stroke="#2563eb" stroke-width="2.5"/>
<circle cx="57.00" cy="489.00" r="3.8" fill="white" stroke="#2563eb" stroke-width="2"/>
<text x="83" y="493" font-size="12">local/acl-cffi (CFFI + C++) / PyPy 3.11.13</text>
<line x1="552" y1="489" x2="583" y2="489" stroke="#dc2626" stroke-width="2.5"/>
<circle cx="567.00" cy="489.00" r="3.8" fill="white" stroke="#dc2626" stroke-width="2"/>
<text x="593" y="493" font-size="12">lif4635/harurun-s-library (library_codex) / PyPy</text>
<text x="593" y="511" font-size="12">3.11.13</text>
<line x1="42" y1="541" x2="73" y2="541" stroke="#059669" stroke-width="2.5"/>
<circle cx="57.00" cy="541.00" r="3.8" fill="white" stroke="#059669" stroke-width="2"/>
<text x="83" y="545" font-size="12">local/acl-hpy (HPy Universal + C++) / PyPy 3.11.13</text>
<line x1="552" y1="541" x2="583" y2="541" stroke="#9333ea" stroke-width="2.5"/>
<circle cx="567.00" cy="541.00" r="3.8" fill="white" stroke="#9333ea" stroke-width="2"/>
<text x="593" y="545" font-size="12">not522/ac-library-python / PyPy 3.11.13</text>
<line x1="42" y1="575" x2="73" y2="575" stroke="#d97706" stroke-width="2.5"/>
<circle cx="57.00" cy="575.00" r="3.8" fill="white" stroke="#d97706" stroke-width="2"/>
<text x="83" y="579" font-size="12">shakayami/ACL-for-python / PyPy 3.11.13</text>
<line x1="552" y1="575" x2="583" y2="575" stroke="#0891b2" stroke-width="2.5"/>
<circle cx="567.00" cy="575.00" r="3.8" fill="white" stroke="#0891b2" stroke-width="2"/>
<text x="593" y="579" font-size="12">tatyam-prime/acl-cpp-python (C++) / PyPy 3.11.13</text>
<line x1="42" y1="609" x2="73" y2="609" stroke="#475569" stroke-width="2.5" stroke-dasharray="7 5"/>
<rect x="53.20" y="605.20" width="7.6" height="7.6" fill="white" stroke="#475569" stroke-width="2"/>
<text x="83" y="613" font-size="12">C++ ACL（参考用） / C++ 17</text>
</g></svg>
