<svg xmlns="http://www.w3.org/2000/svg" width="1040" height="568" viewBox="0 0 1040 568" role="img" aria-labelledby="title desc">
<title id="title">Maximum flow / PyPy 3.11.13 benchmark</title>
<desc id="desc">Median elapsed time versus input size. Bands and whiskers show the observed minimum and maximum. X axis: log. Y axis: log. Lower is faster.</desc>
<rect width="100%" height="100%" rx="12" fill="white"/>
<g font-family="-apple-system, BlinkMacSystemFont, Segoe UI, sans-serif" fill="#0f172a">
<text x="40" y="36" font-size="23" font-weight="700">Maximum flow / PyPy 3.11.13</text>
<text x="40" y="61" font-size="13" fill="#64748b">Lower is faster · median line · observed min–max range</text>
<line x1="180.37" y1="94" x2="180.37" y2="406" stroke="#e2e8f0"/>
<text x="180.37" y="431" font-size="12" text-anchor="middle" fill="#475569">10</text>
<line x1="280.60" y1="94" x2="280.60" y2="406" stroke="#e2e8f0"/>
<text x="280.60" y="431" font-size="12" text-anchor="middle" fill="#475569">20</text>
<line x1="413.08" y1="94" x2="413.08" y2="406" stroke="#e2e8f0"/>
<text x="413.08" y="431" font-size="12" text-anchor="middle" fill="#475569">50</text>
<line x1="513.31" y1="94" x2="513.31" y2="406" stroke="#e2e8f0"/>
<text x="513.31" y="431" font-size="12" text-anchor="middle" fill="#475569">100</text>
<line x1="613.53" y1="94" x2="613.53" y2="406" stroke="#e2e8f0"/>
<text x="613.53" y="431" font-size="12" text-anchor="middle" fill="#475569">200</text>
<line x1="746.02" y1="94" x2="746.02" y2="406" stroke="#e2e8f0"/>
<text x="746.02" y="431" font-size="12" text-anchor="middle" fill="#475569">500</text>
<line x1="846.24" y1="94" x2="846.24" y2="406" stroke="#e2e8f0"/>
<text x="846.24" y="431" font-size="12" text-anchor="middle" fill="#475569">1,000</text>
<line x1="946.46" y1="94" x2="946.46" y2="406" stroke="#e2e8f0"/>
<text x="946.46" y="431" font-size="12" text-anchor="middle" fill="#475569">2,000</text>
<line x1="100" y1="378.10" x2="998" y2="378.10" stroke="#e2e8f0"/>
<text x="87" y="382.10" font-size="12" text-anchor="end" fill="#475569">0.01</text>
<line x1="100" y1="321.04" x2="998" y2="321.04" stroke="#e2e8f0"/>
<text x="87" y="325.04" font-size="12" text-anchor="end" fill="#475569">0.1</text>
<line x1="100" y1="263.98" x2="998" y2="263.98" stroke="#e2e8f0"/>
<text x="87" y="267.98" font-size="12" text-anchor="end" fill="#475569">1</text>
<line x1="100" y1="206.92" x2="998" y2="206.92" stroke="#e2e8f0"/>
<text x="87" y="210.92" font-size="12" text-anchor="end" fill="#475569">10</text>
<line x1="100" y1="149.85" x2="998" y2="149.85" stroke="#e2e8f0"/>
<text x="87" y="153.85" font-size="12" text-anchor="end" fill="#475569">100</text>
<path d="M100 94 V406 H998" fill="none" stroke="#94a3b8"/>
<text x="549" y="461" font-size="14" text-anchor="middle">Input size n (log scale)</text>
<text transform="translate(25 250) rotate(-90)" font-size="14" text-anchor="middle">Elapsed time [ms] (log scale)</text>
<polygon points="148.11,381.36 348.55,348.49 549.00,302.79 749.45,250.90 949.89,209.98 949.89,211.05 749.45,253.26 549.00,305.51 348.55,353.44 148.11,389.29" fill="#2563eb" fill-opacity="0.09"/>
<path d="M148.11,381.36 V389.29 M145.11,381.36 H151.11 M145.11,389.29 H151.11" stroke="#2563eb" stroke-opacity="0.5" fill="none"/>
<path d="M348.55,348.49 V353.44 M345.55,348.49 H351.55 M345.55,353.44 H351.55" stroke="#2563eb" stroke-opacity="0.5" fill="none"/>
<path d="M549.00,302.79 V305.51 M546.00,302.79 H552.00 M546.00,305.51 H552.00" stroke="#2563eb" stroke-opacity="0.5" fill="none"/>
<path d="M749.45,250.90 V253.26 M746.45,250.90 H752.45 M746.45,253.26 H752.45" stroke="#2563eb" stroke-opacity="0.5" fill="none"/>
<path d="M949.89,209.98 V211.05 M946.89,209.98 H952.89 M946.89,211.05 H952.89" stroke="#2563eb" stroke-opacity="0.5" fill="none"/>
<polyline points="148.11,389.20 348.55,352.59 549.00,304.12 749.45,251.80 949.89,210.56" fill="none" stroke="#2563eb" stroke-width="2.5"/>
<circle cx="148.11" cy="389.20" r="3.8" fill="white" stroke="#2563eb" stroke-width="2"/>
<circle cx="348.55" cy="352.59" r="3.8" fill="white" stroke="#2563eb" stroke-width="2"/>
<circle cx="549.00" cy="304.12" r="3.8" fill="white" stroke="#2563eb" stroke-width="2"/>
<circle cx="749.45" cy="251.80" r="3.8" fill="white" stroke="#2563eb" stroke-width="2"/>
<circle cx="949.89" cy="210.56" r="3.8" fill="white" stroke="#2563eb" stroke-width="2"/>
<polygon points="148.11,368.01 348.55,313.87 549.00,249.47 749.45,181.56 949.89,110.71 949.89,111.45 749.45,181.92 549.00,254.11 348.55,319.04 148.11,375.05" fill="#dc2626" fill-opacity="0.09"/>
<path d="M148.11,368.01 V375.05 M145.11,368.01 H151.11 M145.11,375.05 H151.11" stroke="#dc2626" stroke-opacity="0.5" fill="none"/>
<path d="M348.55,313.87 V319.04 M345.55,313.87 H351.55 M345.55,319.04 H351.55" stroke="#dc2626" stroke-opacity="0.5" fill="none"/>
<path d="M549.00,249.47 V254.11 M546.00,249.47 H552.00 M546.00,254.11 H552.00" stroke="#dc2626" stroke-opacity="0.5" fill="none"/>
<path d="M749.45,181.56 V181.92 M746.45,181.56 H752.45 M746.45,181.92 H752.45" stroke="#dc2626" stroke-opacity="0.5" fill="none"/>
<path d="M949.89,110.71 V111.45 M946.89,110.71 H952.89 M946.89,111.45 H952.89" stroke="#dc2626" stroke-opacity="0.5" fill="none"/>
<polyline points="148.11,374.84 348.55,318.58 549.00,254.03 749.45,181.70 949.89,111.36" fill="none" stroke="#dc2626" stroke-width="2.5"/>
<circle cx="148.11" cy="374.84" r="3.8" fill="white" stroke="#dc2626" stroke-width="2"/>
<circle cx="348.55" cy="318.58" r="3.8" fill="white" stroke="#dc2626" stroke-width="2"/>
<circle cx="549.00" cy="254.03" r="3.8" fill="white" stroke="#dc2626" stroke-width="2"/>
<circle cx="749.45" cy="181.70" r="3.8" fill="white" stroke="#dc2626" stroke-width="2"/>
<circle cx="949.89" cy="111.36" r="3.8" fill="white" stroke="#dc2626" stroke-width="2"/>
<polygon points="148.11,327.18 348.55,297.81 549.00,263.45 749.45,228.19 949.89,195.35 949.89,196.12 749.45,230.14 549.00,264.96 348.55,298.85 148.11,335.28" fill="#059669" fill-opacity="0.09"/>
<path d="M148.11,327.18 V335.28 M145.11,327.18 H151.11 M145.11,335.28 H151.11" stroke="#059669" stroke-opacity="0.5" fill="none"/>
<path d="M348.55,297.81 V298.85 M345.55,297.81 H351.55 M345.55,298.85 H351.55" stroke="#059669" stroke-opacity="0.5" fill="none"/>
<path d="M549.00,263.45 V264.96 M546.00,263.45 H552.00 M546.00,264.96 H552.00" stroke="#059669" stroke-opacity="0.5" fill="none"/>
<path d="M749.45,228.19 V230.14 M746.45,228.19 H752.45 M746.45,230.14 H752.45" stroke="#059669" stroke-opacity="0.5" fill="none"/>
<path d="M949.89,195.35 V196.12 M946.89,195.35 H952.89 M946.89,196.12 H952.89" stroke="#059669" stroke-opacity="0.5" fill="none"/>
<polyline points="148.11,334.32 348.55,298.39 549.00,264.79 749.45,229.55 949.89,195.86" fill="none" stroke="#059669" stroke-width="2.5"/>
<circle cx="148.11" cy="334.32" r="3.8" fill="white" stroke="#059669" stroke-width="2"/>
<circle cx="348.55" cy="298.39" r="3.8" fill="white" stroke="#059669" stroke-width="2"/>
<circle cx="549.00" cy="264.79" r="3.8" fill="white" stroke="#059669" stroke-width="2"/>
<circle cx="749.45" cy="229.55" r="3.8" fill="white" stroke="#059669" stroke-width="2"/>
<circle cx="949.89" cy="195.86" r="3.8" fill="white" stroke="#059669" stroke-width="2"/>
<line x1="42" y1="489" x2="73" y2="489" stroke="#2563eb" stroke-width="2.5"/>
<circle cx="57.00" cy="489.00" r="3.8" fill="white" stroke="#2563eb" stroke-width="2"/>
<text x="83" y="493" font-size="12">not522/ac-library-python / PyPy 3.11.13</text>
<line x1="552" y1="489" x2="583" y2="489" stroke="#dc2626" stroke-width="2.5"/>
<circle cx="567.00" cy="489.00" r="3.8" fill="white" stroke="#dc2626" stroke-width="2"/>
<text x="593" y="493" font-size="12">shakayami/ACL-for-python / PyPy 3.11.13</text>
<line x1="42" y1="523" x2="73" y2="523" stroke="#059669" stroke-width="2.5"/>
<circle cx="57.00" cy="523.00" r="3.8" fill="white" stroke="#059669" stroke-width="2"/>
<text x="83" y="527" font-size="12">tatyam-prime/acl-cpp-python (C++) / PyPy 3.11.13</text>
</g></svg>
